<?xml version="1.0" standalone="no"?>
<!DOCTYPE svg PUBLIC "-//W3C//DTD SVG 1.1//EN" "http://www.w3.org/Graphics/SVG/1.1/DTD/svg11.dtd" >
<svg xmlns="http://www.w3.org/2000/svg" xmlns:xlink="http://www.w3.org/1999/xlink" version="1.1">
<metadata>
Created by FontForge 20170731 at Tue Dec 29 17:42:30 2015
 By Aleksey,,,
Copyright (c) 2014 by Type Dynamic. All rights reserved.
</metadata>
<defs>
<font id="Sailec-Black" horiz-adv-x="309" >
  <font-face 
    font-family="Sailec-Black"
    font-weight="400"
    font-stretch="normal"
    units-per-em="1000"
    panose-1="0 0 10 0 0 0 0 0 0 0"
    ascent="748"
    descent="-252"
    x-height="521"
    cap-height="748"
    bbox="-221 -422 1302 1089"
    underline-thickness="50"
    underline-position="-150"
    unicode-range="U+000D-FB02"
  />
<missing-glyph horiz-adv-x="755" 
d="M58 0v748h639v-748h-639zM380 488l81 131h-162zM296 372l-100 149v-298zM559 231v282l-95 -141zM458 129l-78 126l-78 -126h156z" />
    <glyph glyph-name=".notdef" horiz-adv-x="755" 
d="M58 0v748h639v-748h-639zM380 488l81 131h-162zM296 372l-100 149v-298zM559 231v282l-95 -141zM458 129l-78 126l-78 -126h156z" />
    <glyph glyph-name=".null" horiz-adv-x="0" 
 />
    <glyph glyph-name="nonmarkingreturn" unicode="&#xd;" horiz-adv-x="600" 
 />
    <glyph glyph-name="NULL" horiz-adv-x="0" 
 />
    <glyph glyph-name="NULL" horiz-adv-x="0" 
 />
    <glyph glyph-name="space" unicode=" " horiz-adv-x="218" 
 />
    <glyph glyph-name="exclam" unicode="!" horiz-adv-x="350" 
d="M79 244l-11 504h214l-10 -504h-193zM175 201q22 0 41.5 -8.5t33.5 -23t22.5 -33.5t8.5 -41q0 -23 -8.5 -42t-22.5 -33.5t-33.5 -22.5t-41.5 -8t-41.5 8t-33.5 22.5t-22.5 33.5t-8.5 42q0 22 8.5 41t22.5 33.5t33.5 23t41.5 8.5z" />
    <glyph glyph-name="quotedbl" unicode="&#x22;" horiz-adv-x="473" 
d="M55 449l-16 314h170l-17 -314h-137zM281 449l-17 314h170l-16 -314h-137z" />
    <glyph glyph-name="numbersign" unicode="#" horiz-adv-x="689" 
d="M684 576l-34 -145h-98l-29 -121h98l-34 -145h-98l-40 -165h-148l39 165h-91l-39 -165h-148l39 165h-96l34 145h97l28 121h-96l35 145h96l41 172h148l-41 -172h91l41 172h148l-41 -172h98zM284 310h91l28 121h-91z" />
    <glyph glyph-name="dollar" unicode="$" horiz-adv-x="668" 
d="M629 226q0 -53 -16.5 -93.5t-45.5 -69t-68 -45.5t-85 -24v-112h-151v114q-51 9 -92.5 29.5t-71 51.5t-45 72.5t-15.5 92.5l197 10q-1 -43 30.5 -69.5t81.5 -26.5q38 0 61 14t23 46q0 28 -31 46t-96 35q-51 13 -96.5 29t-79 40.5t-53.5 61.5t-20 92q0 42 13 81t38.5 70
t64.5 52.5t91 30.5v111h151v-114q94 -20 148 -80.5t56 -154.5l-197 -10q0 38 -22.5 62t-66.5 24q-36 0 -57.5 -17.5t-21.5 -48.5q0 -14 5.5 -24.5t20 -19t38.5 -16t60 -15.5q55 -15 101.5 -33t80 -44t52 -62t18.5 -86z" />
    <glyph glyph-name="percent" unicode="%" horiz-adv-x="924" 
d="M212 759q40 0 73.5 -14t58 -39t38 -61t13.5 -79q0 -44 -13.5 -79.5t-38 -61t-58 -39.5t-73.5 -14t-74 14t-58.5 39.5t-38.5 61t-14 79.5q0 43 14 79t38.5 61t58.5 39t74 14zM139 0l472 748h175l-472 -748h-175zM212 633q-52 0 -52 -67q0 -32 14 -50t38 -18q50 0 50 68
q0 67 -50 67zM714 376q40 0 73.5 -13.5t58 -39t38 -61t13.5 -79.5t-13.5 -79.5t-38 -61t-58 -39.5t-73.5 -14t-74 14t-58.5 39.5t-38.5 61t-14 79.5t14 79.5t38.5 61t58.5 39t74 13.5zM714 250q-52 0 -52 -67q0 -32 14 -50t38 -18q50 0 50 68q0 67 -50 67z" />
    <glyph glyph-name="ampersand" unicode="&#x26;" horiz-adv-x="734" 
d="M540 79q-48 -47 -104 -68.5t-122 -21.5q-71 0 -123 18t-86 48t-51 70t-17 85q0 68 29.5 113.5t78.5 81.5q-23 27 -39 59.5t-16 74.5q0 54 18.5 95.5t51.5 69t79 41.5t101 14q100 0 167.5 -52.5t83.5 -149.5l-187 -16q-4 29 -19 46t-45 17q-28 0 -43 -16.5t-15 -45.5
q0 -32 23.5 -55t52.5 -46l138 -112q8 21 14 45t12 50l171 -43q-26 -96 -58 -163l117 -95l-101 -134zM317 152q50 0 92 33l-146 118q-15 -14 -23 -32t-8 -44q0 -36 23 -55.5t62 -19.5z" />
    <glyph glyph-name="quotesingle" unicode="'" horiz-adv-x="247" 
d="M55 449l-16 314h170l-17 -314h-137z" />
    <glyph glyph-name="parenleft" unicode="(" horiz-adv-x="324" 
d="M310 685q-40 -75 -66.5 -163.5t-26.5 -201.5t26.5 -202t66.5 -163l-158 -55q-51 78 -84 182.5t-33 237.5q0 132 33.5 237t83.5 183z" />
    <glyph glyph-name="parenright" unicode=")" horiz-adv-x="324" 
d="M172 740q50 -78 84 -183t34 -237q0 -133 -33.5 -237.5t-84.5 -182.5l-157 55q39 74 65.5 163t26.5 202t-26.5 201.5t-65.5 163.5z" />
    <glyph glyph-name="asterisk" unicode="*" horiz-adv-x="390" 
d="M355 688l31 -94l-115 -36l73 -93l-81 -60l-68 99l-68 -100l-80 60l72 94l-114 36l31 94l112 -40l-3 120h100l-3 -120z" />
    <glyph glyph-name="plus" unicode="+" horiz-adv-x="548" 
d="M518 452v-164h-155v-162h-177v162h-156v164h156v163h177v-163h155z" />
    <glyph glyph-name="comma" unicode="," horiz-adv-x="270" 
d="M236 83q-1 -79 -43.5 -142.5t-133.5 -109.5v75q52 31 70 84q-41 4 -68 33.5t-27 71.5q0 22 7.5 41t21.5 33.5t33 23t42 8.5q47 0 72.5 -33t25.5 -84v-1z" />
    <glyph glyph-name="hyphen" unicode="-" horiz-adv-x="408" 
d="M45 177v171h318v-171h-318z" />
    <glyph glyph-name="period" unicode="." horiz-adv-x="281" 
d="M140 201q22 0 41.5 -8.5t33.5 -23t22.5 -33.5t8.5 -41q0 -23 -8.5 -42t-22.5 -33.5t-33.5 -22.5t-41.5 -8t-41.5 8t-33.5 22.5t-22.5 33.5t-8.5 42q0 22 8.5 41t22.5 33.5t33.5 23t41.5 8.5z" />
    <glyph glyph-name="slash" unicode="/" horiz-adv-x="455" 
d="M5 -67l255 815h190l-255 -815h-190z" />
    <glyph glyph-name="zero" unicode="0" horiz-adv-x="655" 
d="M327 759q64 0 117.5 -25t92.5 -74t61 -121t22 -165t-22 -165t-61 -121t-92.5 -74t-117.5 -25q-63 0 -116.5 25t-92.5 74t-61 121t-22 165t22 165t61 121t92.5 74t116.5 25zM327 588q-53 0 -74 -54t-21 -160t21 -160t74 -54q54 0 75 54t21 160t-21 160t-75 54z" />
    <glyph glyph-name="one" unicode="1" horiz-adv-x="406" 
d="M147 0v513l-75 -48l-80 153l206 130h142v-748h-193z" />
    <glyph glyph-name="two" unicode="2" horiz-adv-x="546" 
d="M279 759q112 0 175.5 -53.5t63.5 -160.5q0 -46 -11 -83.5t-29 -69t-41 -58t-46 -51.5l-106 -112h235v-171h-476v146l197 223q24 27 40 48t25.5 40t13.5 37.5t4 41.5q0 27 -11 39.5t-30 12.5q-28 0 -36.5 -20t-9.5 -56l-193 10q2 112 63 174.5t172 62.5z" />
    <glyph glyph-name="three" unicode="3" horiz-adv-x="575" 
d="M285 759q58 0 103 -16t76 -46t47 -72t16 -94q0 -29 -5 -50.5t-14 -38.5t-20.5 -30.5t-24.5 -25.5q30 -18 51.5 -58.5t21.5 -99.5q0 -57 -18.5 -101.5t-52 -75t-80 -46.5t-101.5 -16q-124 0 -188.5 63t-65.5 170l193 11q0 -34 14.5 -53.5t45.5 -19.5q59 0 59 74
q0 35 -19 52.5t-50 17.5h-79v161h77q27 0 44.5 16.5t17.5 47.5q0 59 -49 59q-52 0 -52 -68l-193 11q2 107 64 167.5t182 60.5z" />
    <glyph glyph-name="four" unicode="4" horiz-adv-x="608" 
d="M585 274v-171h-104v-103h-163v103h-291v159l308 486h146v-474h104zM318 274v167l-106 -167h106z" />
    <glyph glyph-name="five" unicode="5" horiz-adv-x="577" 
d="M307 485q49 0 92 -15t74.5 -45t49.5 -75.5t18 -106.5q0 -59 -18.5 -106t-52 -80t-81.5 -50.5t-108 -17.5q-59 0 -105 15.5t-78 44.5t-49 69t-17 90l193 12q0 -27 14 -43.5t43 -16.5q33 0 49 21t16 57q0 75 -59 75q-32 0 -53 -15h-178v450h454v-171h-261v-100q26 8 57 8z
" />
    <glyph glyph-name="six" unicode="6" horiz-adv-x="617" 
d="M375 491q46 -9 84 -30.5t65.5 -53t43 -73t15.5 -90.5q0 -58 -20.5 -105t-57 -80.5t-86.5 -51.5t-108 -18q-59 0 -109 18t-87 51.5t-57.5 80.5t-20.5 105q0 49 16 87.5t42 78.5l229 338h231zM310 160q36 0 56.5 24.5t20.5 66.5q0 44 -20.5 67.5t-56.5 23.5
q-20 0 -35.5 -8.5t-26.5 -22.5q-7 -11 -11 -26t-4 -34q0 -42 20.5 -66.5t56.5 -24.5z" />
    <glyph glyph-name="seven" unicode="7" horiz-adv-x="541" 
d="M254 0h-213l257 577h-280v171h492v-155z" />
    <glyph glyph-name="eight" unicode="8" horiz-adv-x="624" 
d="M311 759q54 0 100.5 -14.5t80 -42.5t53 -68.5t19.5 -91.5q0 -83 -50 -139q33 -32 51.5 -75.5t18.5 -97.5q0 -57 -20.5 -101.5t-57 -75.5t-86.5 -47.5t-108 -16.5t-108 16.5t-86.5 47.5t-57 75.5t-20.5 101.5q0 54 18 97t50 75q-23 27 -36 62.5t-13 77.5q0 51 19 91.5
t53 68.5t80 42.5t100 14.5zM312 588q-25 0 -42 -16t-17 -45q0 -28 17 -44.5t42 -16.5q26 0 42.5 16.5t16.5 44.5q0 29 -16.5 45t-42.5 16zM312 322q-34 0 -56.5 -21.5t-22.5 -60.5q0 -38 22.5 -59t56.5 -21q35 0 57 21t22 59q0 39 -22 60.5t-57 21.5z" />
    <glyph glyph-name="nine" unicode="9" horiz-adv-x="617" 
d="M306 759q59 0 109 -18t87 -51.5t57.5 -80.5t20.5 -105q0 -49 -16 -87.5t-42 -78.5l-229 -338h-231l180 257q-46 9 -84 30.5t-65.5 53t-43 73t-15.5 90.5q0 58 20.5 105t57 80.5t86 51.5t108.5 18zM307 406q20 0 35.5 8.5t26.5 22.5q7 11 11 26t4 34q0 42 -20.5 66.5
t-56.5 24.5t-56.5 -24.5t-20.5 -66.5q0 -44 20.5 -67.5t56.5 -23.5z" />
    <glyph glyph-name="colon" unicode=":" horiz-adv-x="281" 
d="M129 532q22 0 41.5 -8.5t34 -23t23 -34t8.5 -41.5t-8.5 -41t-23 -33.5t-34 -22.5t-41.5 -8q-45 0 -75 30t-30 75q0 22 8 41.5t22.5 34t33.5 23t41 8.5zM129 201q22 0 41.5 -8.5t34 -23t23 -33.5t8.5 -41q0 -23 -8.5 -42t-23 -33.5t-34 -22.5t-41.5 -8t-41 8t-33.5 22.5
t-22.5 33.5t-8 42q0 22 8 41t22.5 33.5t33.5 23t41 8.5z" />
    <glyph glyph-name="semicolon" unicode=";" horiz-adv-x="281" 
d="M129 320q-45 0 -75 30t-30 75q0 22 8 41.5t22.5 34t33.5 23t41 8.5t41.5 -8.5t34 -23t23 -34t8.5 -41.5t-8.5 -41t-23 -33.5t-34 -22.5t-41.5 -8zM138 201q47 0 72.5 -32.5t25.5 -83.5v-1v-1q-1 -79 -43.5 -142.5t-133.5 -109.5v75q52 31 70 84q-41 4 -68 33.5t-27 71.5
q0 22 7.5 41t21.5 33.5t33 23t42 8.5z" />
    <glyph glyph-name="less" unicode="&#x3c;" horiz-adv-x="550" 
d="M385 369l136 -80v-208l-491 288l491 287v-207z" />
    <glyph glyph-name="equal" unicode="=" horiz-adv-x="548" 
d="M30 410v171h488v-171h-488zM30 162v170h488v-170h-488z" />
    <glyph glyph-name="greater" unicode="&#x3e;" horiz-adv-x="550" 
d="M30 81v208l135 80l-135 80v207l490 -287z" />
    <glyph glyph-name="question" unicode="?" horiz-adv-x="555" 
d="M278 761q60 0 108.5 -16t82.5 -46t52.5 -73.5t18.5 -98.5q0 -30 -8.5 -54t-22 -43t-30.5 -34.5t-33 -28.5q-13 -11 -25.5 -21t-22 -20.5t-15.5 -22.5t-6 -25v-34h-192v41q0 23 8.5 43t22.5 37.5t30.5 33t33.5 30.5q25 24 44.5 46.5t19.5 48.5q0 34 -18.5 50t-47.5 16
q-31 0 -50.5 -21t-20.5 -60l-192 11q1 55 20.5 99.5t54.5 76t83 48.5t105 17zM281 201q22 0 41.5 -8.5t33.5 -23t22.5 -33.5t8.5 -41q0 -23 -8.5 -42t-22.5 -33.5t-33.5 -22.5t-41.5 -8t-41.5 8t-33.5 22.5t-22.5 33.5t-8.5 42q0 22 8.5 41t22.5 33.5t33.5 23t41.5 8.5z" />
    <glyph glyph-name="at" unicode="@" horiz-adv-x="793" 
d="M599 143q0 -29 29 -29q23 0 40.5 31t17.5 102q0 62 -22 115t-60.5 92t-91.5 61t-116 22t-116 -22t-91.5 -61t-60 -92t-21.5 -115q0 -67 23.5 -120.5t62.5 -91t90 -57.5t105 -20q58 0 99.5 10.5t76.5 29.5l28 -65q-41 -23 -88 -33t-116 -10q-72 0 -136.5 25.5t-113 72.5
t-76.5 113t-28 146q0 77 27 143t75 114t114.5 75t145.5 27t145.5 -27t115 -75t75.5 -114t27 -143q0 -109 -45 -161t-123 -52t-109 48q-22 -24 -50 -37t-68 -13q-43 0 -78.5 15.5t-61 43.5t-39.5 67.5t-14 86.5q0 48 14 87t39.5 67t61 43.5t78.5 15.5q37 0 63 -11t41 -25v20
h131v-299zM461 252q0 38 -20 60.5t-54 22.5t-54 -23t-20 -67q0 -43 20 -67t54 -24t54 23t20 61v14z" />
    <glyph glyph-name="A" unicode="A" horiz-adv-x="823" 
d="M607 0l-52 119h-287l-52 -119h-212l326 748h163l326 -748h-212zM490 267l-79 182l-78 -182h157z" />
    <glyph glyph-name="B" unicode="B" horiz-adv-x="718" 
d="M399 748q52 0 96 -13t76 -39t50 -66t18 -95q0 -49 -18.5 -83t-42.5 -57q35 -18 62.5 -61t27.5 -109q0 -54 -18 -96t-50.5 -70.5t-78.5 -43.5t-102 -15h-353v748h333zM259 464h116q31 0 49 13.5t18 42.5q0 31 -17.5 44t-47.5 13h-118v-113zM259 171h137q35 0 55 15t20 49
t-20 49.5t-56 15.5h-136v-129z" />
    <glyph glyph-name="C" unicode="C" horiz-adv-x="837" 
d="M433 759q69 0 130.5 -20t109.5 -57t80 -91t43 -121l-202 -19q-16 70 -59 103.5t-109 33.5q-43 0 -77 -15.5t-58 -43.5t-37 -67.5t-13 -87.5q0 -53 14.5 -93t39 -67t58.5 -40.5t73 -13.5q65 0 109.5 34t58.5 103l202 -17q-11 -68 -43 -122t-80 -91.5t-109.5 -57.5
t-130.5 -20q-84 0 -155.5 26.5t-123 76t-81 121t-29.5 161.5t29.5 161.5t81 121t123 76t155.5 26.5z" />
    <glyph glyph-name="D" unicode="D" horiz-adv-x="805" 
d="M383 748q82 0 151 -25.5t119.5 -73.5t79 -117.5t28.5 -157.5t-28.5 -157.5t-79 -117.5t-119.5 -73.5t-151 -25.5h-317v748h317zM259 166h126q87 0 136 50.5t49 157.5t-49 157.5t-136 50.5h-126v-416z" />
    <glyph glyph-name="E" unicode="E" horiz-adv-x="608" 
d="M259 577v-112h254v-167h-254v-127h298v-171h-491v748h490v-171h-297z" />
    <glyph glyph-name="F" unicode="F" horiz-adv-x="592" 
d="M259 577v-109h237v-171h-237v-297h-193v748h490v-171h-297z" />
    <glyph glyph-name="G" unicode="G" horiz-adv-x="843" 
d="M796 364q0 -83 -25 -151.5t-72 -118.5t-114.5 -77.5t-151.5 -27.5t-155.5 26.5t-123 76t-81 121t-29.5 161.5t29.5 161.5t81 121t123 76t155.5 26.5q65 0 122.5 -16.5t103 -48.5t79 -79t50.5 -108l-200 -33q-17 53 -55 83.5t-102 30.5q-89 0 -139.5 -52t-50.5 -162
t50.5 -162t139.5 -52q49 0 89 21t60 74h-149v171h365v-62z" />
    <glyph glyph-name="H" unicode="H" horiz-adv-x="768" 
d="M509 0v296h-250v-296h-193v748h193v-281h250v281h193v-748h-193z" />
    <glyph glyph-name="I" unicode="I" horiz-adv-x="325" 
d="M66 0v748h193v-748h-193z" />
    <glyph glyph-name="J" unicode="J" horiz-adv-x="635" 
d="M574 285q0 -69 -19 -124t-55.5 -93.5t-89 -58.5t-118.5 -20q-60 0 -109 17.5t-85 51t-57.5 82.5t-25.5 112l193 32q4 -58 25 -91t61 -33q87 0 87 118v470h193v-463z" />
    <glyph glyph-name="K" unicode="K" horiz-adv-x="749" 
d="M742 0h-221l-169 293l-93 -116v-177h-193v748h193v-280l214 280h248l-241 -298z" />
    <glyph glyph-name="L" unicode="L" horiz-adv-x="591" 
d="M556 171v-171h-490v748h193v-577h297z" />
    <glyph glyph-name="M" unicode="M" horiz-adv-x="969" 
d="M710 0v319l-161 -309h-127l-163 309v-319h-193v748h172l248 -455l245 455h172v-748h-193z" />
    <glyph glyph-name="N" unicode="N" horiz-adv-x="773" 
d="M542 0l-283 392v-392h-193v748h164l284 -394v394h193v-748h-165z" />
    <glyph glyph-name="O" unicode="O" horiz-adv-x="880" 
d="M441 759q86 0 158.5 -27.5t125 -77.5t82 -121t29.5 -159t-29.5 -159t-82 -121.5t-125 -77.5t-158.5 -27q-87 0 -160 27t-125.5 77.5t-82 121.5t-29.5 159t29.5 159t82 121t125.5 77.5t160 27.5zM441 588q-92 0 -146 -57t-54 -157t54 -157t146 -57q91 0 144.5 57t53.5 157
t-53.5 157t-144.5 57z" />
    <glyph glyph-name="P" unicode="P" horiz-adv-x="678" 
d="M408 748q57 0 103 -17t78.5 -49t50 -78.5t17.5 -105.5t-17.5 -105t-50 -78t-78.5 -49t-103 -17h-149v-249h-193v748h342zM259 419h125q35 0 56 21t21 58t-21 58t-56 21h-125v-158z" />
    <glyph glyph-name="Q" unicode="Q" horiz-adv-x="886" 
d="M634 31q-42 -20 -90.5 -31t-102.5 -11q-87 0 -160 27t-125.5 77.5t-82 121.5t-29.5 159t29.5 159t82 121t125.5 77.5t160 27.5q86 0 158.5 -27.5t125 -77.5t82 -121t29.5 -159q0 -63 -15 -117t-44 -99l102 -100l-135 -136zM441 160q29 0 55 6l-86 85l136 135l85 -83
q8 34 8 71q0 100 -53.5 157t-144.5 57q-92 0 -146 -57t-54 -157t54 -157t146 -57z" />
    <glyph glyph-name="R" unicode="R" horiz-adv-x="720" 
d="M341 250h-82v-250h-193v748h338q57 0 103 -17t78.5 -49t50 -78t17.5 -105q0 -76 -29 -131t-83 -85l151 -283h-218zM381 421q36 0 56 21t20 57t-20 57t-56 21h-122v-156h122z" />
    <glyph glyph-name="S" unicode="S" horiz-adv-x="668" 
d="M328 759q65 0 118 -16.5t91 -48t59 -76.5t22 -102l-197 -10q0 38 -22.5 62t-66.5 24q-36 0 -57.5 -17.5t-21.5 -48.5q0 -14 5.5 -24.5t20 -19t38.5 -16t60 -15.5q55 -15 101.5 -33t80 -44t52 -62t18.5 -86q0 -62 -22.5 -107t-60.5 -74t-89.5 -42.5t-108.5 -13.5
q-68 0 -125 16.5t-98 48.5t-63.5 79t-22.5 109l197 10q-1 -43 30.5 -69.5t81.5 -26.5q38 0 61 14t23 46q0 28 -31 46t-96 35q-51 13 -96.5 29t-79 40.5t-53.5 61.5t-20 92q0 48 17 91.5t50.5 76.5t84.5 52t120 19z" />
    <glyph glyph-name="T" unicode="T" horiz-adv-x="700" 
d="M447 577v-577h-193v577h-234v171h660v-171h-233z" />
    <glyph glyph-name="U" unicode="U" horiz-adv-x="785" 
d="M723 318q0 -78 -22.5 -139t-65 -103t-104 -64.5t-138.5 -22.5q-78 0 -139.5 22.5t-104 64.5t-65.5 103t-23 139v430h193v-427q0 -78 34 -119.5t105 -41.5q70 0 104 41.5t34 119.5v427h192v-430z" />
    <glyph glyph-name="V" unicode="V" horiz-adv-x="807" 
d="M322 0l-315 748h211l185 -449l185 449h212l-315 -748h-163z" />
    <glyph glyph-name="W" unicode="W" horiz-adv-x="1129" 
d="M698 0l-134 413l-134 -413h-162l-261 748h212l132 -430l134 430h159l133 -430l133 430h212l-261 -748h-163z" />
    <glyph glyph-name="X" unicode="X" horiz-adv-x="749" 
d="M735 0h-223l-137 252l-138 -252h-223l217 380l-204 368h223l125 -239l124 239h223l-204 -368z" />
    <glyph glyph-name="Y" unicode="Y" horiz-adv-x="776" 
d="M485 0h-193v274l-284 474h224l156 -282l156 282h224l-283 -474v-274z" />
    <glyph glyph-name="Z" unicode="Z" horiz-adv-x="631" 
d="M285 171h313v-171h-560v146l301 431h-301v171h549v-146z" />
    <glyph glyph-name="bracketleft" unicode="[" horiz-adv-x="333" 
d="M232 567v-493h81v-151h-264v795h264v-151h-81z" />
    <glyph glyph-name="backslash" unicode="\" horiz-adv-x="455" 
d="M260 -67l-255 815h190l255 -815h-190z" />
    <glyph glyph-name="bracketright" unicode="]" horiz-adv-x="333" 
d="M20 -77v151h81v493h-81v151h264v-795h-264z" />
    <glyph glyph-name="asciicircum" unicode="^" horiz-adv-x="621" 
d="M389 371l-79 115l-78 -115h-207l285 397l286 -397h-207z" />
    <glyph glyph-name="underscore" unicode="_" horiz-adv-x="690" 
d="M45 -171v171h600v-171h-600z" />
    <glyph glyph-name="grave" unicode="`" horiz-adv-x="287" 
d="M141 600l-137 191h206l73 -191h-142z" />
    <glyph glyph-name="a" unicode="a" horiz-adv-x="566" 
d="M282 532q111 0 168.5 -53t57.5 -160v-319h-171v37q-17 -19 -48 -33.5t-78 -14.5q-80 0 -126 38.5t-46 115.5q0 46 19 76.5t51 48.5t73 26t85 10l59 2v27q0 26 -11 37.5t-30 11.5q-26 0 -38 -15.5t-12 -30.5l-182 6q0 35 16 69t46 61t72 43.5t95 16.5zM279 198
q-26 -2 -42 -11t-16 -29q0 -19 11.5 -27.5t29.5 -8.5q24 0 43.5 15t19.5 38v25z" />
    <glyph glyph-name="b" unicode="b" horiz-adv-x="662" 
d="M245 496q20 15 52.5 25.5t74.5 10.5q56 0 102 -20t79 -56t51.5 -86t18.5 -110t-18.5 -110t-51.5 -85.5t-79 -55.5t-102 -20q-49 0 -83 14t-54 31v-34h-172v777h182v-281zM341 376q-44 0 -70 -29t-26 -77v-19q0 -48 26 -77t70 -29q45 0 71.5 30t26.5 85q0 56 -26.5 86
t-71.5 30z" />
    <glyph glyph-name="c" unicode="c" horiz-adv-x="601" 
d="M313 532q48 0 91 -14t76.5 -40.5t56 -64.5t30.5 -86l-179 -16q-4 29 -23.5 47t-51.5 18q-40 0 -65 -30t-25 -86q0 -55 25 -85t65 -30q32 0 51.5 18t23.5 47l178 -15q-8 -48 -30 -86.5t-55.5 -65t-76.5 -40.5t-91 -14q-59 0 -109.5 18.5t-87 53.5t-57 85t-20.5 114
t20.5 114.5t57 85.5t87 53.5t109.5 18.5z" />
    <glyph glyph-name="d" unicode="d" horiz-adv-x="662" 
d="M427 0v34q-20 -17 -54 -31t-83 -14q-56 0 -102 20t-79 55.5t-51.5 85.5t-18.5 110t18.5 110t51.5 86t79 56t102 20q42 0 74.5 -10.5t52.5 -25.5v281h182v-777h-172zM321 376q-45 0 -71.5 -30t-26.5 -86q0 -55 26.5 -85t71.5 -30q44 0 70 29t26 77v19q0 48 -26 77t-70 29z
" />
    <glyph glyph-name="e" unicode="e" horiz-adv-x="603" 
d="M233 211q0 -35 17.5 -58.5t58.5 -23.5q53 0 67 40l183 -9q-6 -40 -28 -71.5t-55 -53.5t-74.5 -34t-87.5 -12q-62 0 -112.5 19t-86.5 54t-56 85t-20 113t19.5 113t55.5 85.5t85.5 54.5t109.5 19q57 0 103.5 -17.5t80.5 -50.5t52.5 -82t18.5 -112v-59h-331zM307 398
q-34 0 -53 -21.5t-21 -58.5h147q-2 37 -19.5 58.5t-53.5 21.5z" />
    <glyph glyph-name="f" unicode="f" horiz-adv-x="403" 
d="M328 784q35 0 58 -4v-157q-15 3 -37 3q-33 0 -54.5 -19t-21.5 -48v-38h113v-156h-113v-365h-183v365h-89v156h89v34q0 51 17 93.5t48.5 72.5t75 46.5t97.5 16.5z" />
    <glyph glyph-name="g" unicode="g" horiz-adv-x="650" 
d="M290 532q49 0 83 -14t54 -31v34h172v-534q0 -57 -19 -103.5t-54.5 -79.5t-86 -51t-112.5 -18q-66 0 -115 15t-83 42.5t-53.5 66t-26.5 85.5l182 6q2 -28 24.5 -44.5t64.5 -16.5q45 0 71 20.5t26 64.5v51q-20 -15 -52.5 -25.5t-74.5 -10.5q-56 0 -102 20t-79 55.5
t-51.5 85.5t-18.5 110t18.5 110t51.5 86t79 56t102 20zM321 376q-45 0 -71.5 -30t-26.5 -86q0 -55 26.5 -85t71.5 -30q44 0 70 29t26 77v19q0 48 -26 77t-70 29z" />
    <glyph glyph-name="h" unicode="h" horiz-adv-x="625" 
d="M245 492q16 14 43.5 27t74.5 13q91 0 147 -53t56 -154v-325h-182v281q0 81 -68 81q-32 0 -51.5 -21t-19.5 -61v-280h-182v777h182v-285z" />
    <glyph glyph-name="i" unicode="i" 
d="M154 788q22 0 41.5 -8.5t33.5 -23t22.5 -34t8.5 -41.5q0 -45 -30.5 -75.5t-75.5 -30.5t-75.5 30.5t-30.5 75.5q0 22 8.5 41.5t23 34t34 23t40.5 8.5zM63 0v521h182v-521h-182z" />
    <glyph glyph-name="j" unicode="j" 
d="M154 788q22 0 41.5 -8.5t33.5 -23t22.5 -34t8.5 -41.5q0 -45 -30.5 -75.5t-75.5 -30.5t-75.5 30.5t-30.5 75.5q0 22 8.5 41.5t22.5 34t33.5 23t41.5 8.5zM245 -34q0 -51 -17 -93.5t-48.5 -72.5t-75 -46.5t-97.5 -16.5q-35 0 -58 4v157q15 -3 38 -3q32 0 54 19t22 48v559
h182v-555z" />
    <glyph glyph-name="k" unicode="k" horiz-adv-x="609" 
d="M376 521h222l-183 -220l190 -301h-215l-104 164l-41 -47v-117h-182v777h182v-415z" />
    <glyph glyph-name="l" unicode="l" 
d="M63 0v777h182v-777h-182z" />
    <glyph glyph-name="m" unicode="m" horiz-adv-x="927" 
d="M669 532q92 0 146 -53t54 -155v-324h-182v281q0 81 -63 81q-67 0 -67 -82v-280h-182v281q0 81 -64 81q-66 0 -66 -82v-280h-182v521h172v-36q15 19 44 33t78 14q109 0 161 -71q23 31 58.5 51t92.5 20z" />
    <glyph glyph-name="n" unicode="n" horiz-adv-x="624" 
d="M363 532q91 0 147 -53t56 -154v-325h-182v281q0 81 -68 81q-32 0 -51.5 -21t-19.5 -61v-280h-182v521h172v-36q15 19 47 33t81 14z" />
    <glyph glyph-name="o" unicode="o" horiz-adv-x="643" 
d="M321 532q62 0 114 -19.5t89.5 -55.5t58.5 -86t21 -111t-21 -111t-58.5 -85.5t-89.5 -55t-114 -19.5t-113.5 19.5t-89 55t-58.5 85.5t-21 111t21 111t58.5 86t89 55.5t113.5 19.5zM321 376q-45 0 -71.5 -30.5t-26.5 -85.5q0 -54 26.5 -84.5t71.5 -30.5q46 0 72.5 30.5
t26.5 84.5q0 55 -26.5 85.5t-72.5 30.5z" />
    <glyph glyph-name="p" unicode="p" horiz-adv-x="662" 
d="M372 532q56 0 102 -20t79 -56t51.5 -86t18.5 -110t-18.5 -110t-51.5 -85.5t-79 -55.5t-102 -20q-42 0 -74.5 10.5t-52.5 25.5v-280h-182v776h172v-34q20 17 54 31t83 14zM341 376q-44 0 -70 -29t-26 -77v-19q0 -48 26 -77t70 -29q45 0 71.5 30t26.5 85q0 56 -26.5 86
t-71.5 30z" />
    <glyph glyph-name="q" unicode="q" horiz-adv-x="662" 
d="M290 532q49 0 83 -14t54 -31v34h172v-776h-182v280q-20 -15 -52.5 -25.5t-74.5 -10.5q-56 0 -102 20t-79 55.5t-51.5 85.5t-18.5 110t18.5 110t51.5 86t79 56t102 20zM321 376q-45 0 -71.5 -30t-26.5 -86q0 -55 26.5 -85t71.5 -30q44 0 70 29t26 77v19q0 48 -26 77
t-70 29z" />
    <glyph glyph-name="r" unicode="r" horiz-adv-x="402" 
d="M376 350q-60 0 -95.5 -28.5t-35.5 -78.5v-243h-182v521h176v-44q18 20 49 34.5t88 14.5v-176z" />
    <glyph glyph-name="s" unicode="s" horiz-adv-x="510" 
d="M252 532q107 0 162 -47.5t61 -123.5l-182 -10q1 22 -8.5 37.5t-32.5 15.5q-38 0 -38 -31q0 -20 24 -29t66 -20q37 -10 69.5 -22t55.5 -29.5t36.5 -42t13.5 -60.5q0 -81 -57 -131t-167 -50q-216 0 -231 171l183 10q-1 -22 9 -37.5t39 -15.5q41 0 41 34q0 7 -2.5 12.5
t-11 11t-23 11t-38.5 11.5q-44 11 -78.5 22.5t-59.5 29.5t-38 44.5t-13 67.5q0 80 58.5 125.5t161.5 45.5z" />
    <glyph glyph-name="t" unicode="t" horiz-adv-x="433" 
d="M285 219q0 -35 22 -51t48 -16q15 0 25 1t18 3v-161q-18 -2 -36.5 -4t-51.5 -2q-47 0 -85 11t-65.5 33.5t-42 56.5t-14.5 81l1 194h-94v156h95l1 168h182l-1 -168h111v-156h-112z" />
    <glyph glyph-name="u" unicode="u" horiz-adv-x="609" 
d="M374 0v36q-16 -20 -45 -33.5t-77 -13.5q-92 0 -143 50t-51 148v334h182v-289q0 -38 13.5 -55.5t46.5 -17.5q64 0 64 71v291h182v-521h-172z" />
    <glyph glyph-name="v" unicode="v" horiz-adv-x="599" 
d="M227 0l-226 521h203l96 -261l96 261h202l-226 -521h-145z" />
    <glyph glyph-name="w" unicode="w" horiz-adv-x="862" 
d="M515 0l-83 218l-84 -218h-146l-201 521h203l77 -258l86 258h128l86 -258l77 258h203l-201 -521h-145z" />
    <glyph glyph-name="x" unicode="x" horiz-adv-x="577" 
d="M567 0h-203l-77 136l-74 -136h-204l155 260l-155 261h202l76 -138l79 138h201l-155 -260z" />
    <glyph glyph-name="y" unicode="y" horiz-adv-x="599" 
d="M63 -255l139 312l-201 464h202l97 -260l96 260h202l-336 -776h-199z" />
    <glyph glyph-name="z" unicode="z" horiz-adv-x="459" 
d="M246 147h179v-147h-391v120l176 254h-172v147h382v-120z" />
    <glyph glyph-name="braceleft" unicode="{" horiz-adv-x="334" 
d="M309 567q-21 0 -34.5 -4.5t-20 -17t-7.5 -34t3 -54.5q4 -27 3.5 -51t-9 -42t-26 -29.5t-47.5 -13.5q30 -2 47.5 -13.5t26 -30t9 -42.5t-3.5 -51q-4 -33 -3 -54.5t7.5 -34t20 -17t34.5 -4.5h6v-151h-6q-59 0 -108.5 14.5t-82.5 44.5t-46.5 75.5t-0.5 108.5q6 25 8 40.5
t-2.5 24.5t-17 12t-36.5 3h-8v149h8q24 0 36.5 3t17 12t2.5 24.5t-8 40.5q-13 63 0.5 108.5t46.5 75.5t82.5 44.5t108.5 14.5h6v-151h-6z" />
    <glyph glyph-name="bar" unicode="|" 
d="M63 -67v815h183v-815h-183z" />
    <glyph glyph-name="braceright" unicode="}" horiz-adv-x="334" 
d="M26 718q59 0 108.5 -14.5t82.5 -44.5t46 -75.5t0 -108.5q-6 -25 -8 -40.5t2.5 -24.5t17.5 -12t37 -3h8v-149h-8q-24 0 -37 -3t-17.5 -12t-2.5 -24.5t8 -40.5q13 -63 0 -108.5t-46 -75.5t-82.5 -44.5t-108.5 -14.5h-6v151h6q21 0 34 4.5t19.5 17t7.5 34t-3 54.5
q-3 27 -2.5 51t8.5 42.5t26 30t48 13.5q-30 2 -48 13.5t-26 29.5t-8.5 42t2.5 51q4 33 3 54.5t-7.5 34t-19.5 17t-34 4.5h-6v151h6z" />
    <glyph glyph-name="asciitilde" unicode="~" horiz-adv-x="549" 
d="M545 357q-34 -46 -75 -72t-92 -26q-29 0 -52.5 8.5t-45 18.5t-43.5 18.5t-47 8.5q-32 0 -57 -10t-48 -39l-81 121q34 46 75 72t92 26q30 0 53.5 -8.5t45.5 -18.5t43 -18.5t46 -8.5q32 0 57 10t48 39z" />
    <glyph glyph-name="exclamdown" unicode="&#xa1;" horiz-adv-x="350" 
d="M176 299q-22 0 -41.5 8.5t-34 23t-23 34t-8.5 41.5t8.5 41t23 33.5t34 22.5t41.5 8q45 0 75 -30t30 -75q0 -22 -8 -41.5t-22.5 -34t-33.5 -23t-41 -8.5zM271 256l11 -504h-214l11 504h192z" />
    <glyph glyph-name="cent" unicode="&#xa2;" horiz-adv-x="601" 
d="M313 145q32 0 51.5 18t23.5 47l178 -15q-12 -79 -62 -130t-122 -68v-115h-151v117q-87 22 -139.5 89t-52.5 172q0 52 14 95.5t39 77t60.5 56t78.5 33.5v105h151v-103q72 -17 122 -68t63 -129l-179 -16q-4 29 -23.5 47t-51.5 18q-40 0 -65 -30t-25 -86q0 -55 25 -85
t65 -30z" />
    <glyph glyph-name="sterling" unicode="&#xa3;" horiz-adv-x="577" 
d="M560 0h-536v157q58 6 75.5 39t13.5 96h-86v151h72l-4 37q-14 134 44.5 206.5t184.5 72.5q109 0 168 -57t63 -162l-192 -10q-1 29 -12.5 43.5t-30.5 14.5q-52 0 -46 -74l8 -71h135v-151h-120q2 -43 -9 -71.5t-31 -49.5h303v-171z" />
    <glyph glyph-name="currency" unicode="&#xa4;" horiz-adv-x="610" 
d="M499 252q0 -42 -12 -78l108 -108l-114 -115l-110 110q-30 -9 -66 -9q-17 0 -33.5 2.5t-31.5 7.5l-111 -111l-115 115l110 110q-13 37 -13 76q0 20 3.5 39.5t9.5 37.5l-110 111l115 114l111 -111q15 5 31.5 7.5t33.5 2.5t33.5 -2.5t31.5 -7.5l111 111l114 -114l-110 -110
q14 -37 14 -78zM259 252q0 -72 46 -72q23 0 34.5 19.5t11.5 52.5q0 34 -11.5 53t-34.5 19t-34.5 -19t-11.5 -53z" />
    <glyph glyph-name="yen" unicode="&#xa5;" horiz-adv-x="776" 
d="M614 358v-113h-129v-51h129v-112h-129v-82h-193v82h-129v112h129v51h-129v113h79l-234 390h224l156 -282l156 282h224l-233 -390h79z" />
    <glyph glyph-name="brokenbar" unicode="&#xa6;" 
d="M63 429v319h183v-319h-183zM63 -67v319h183v-319h-183z" />
    <glyph glyph-name="section" unicode="&#xa7;" horiz-adv-x="538" 
d="M448 266q27 -17 42 -44.5t15 -71.5q0 -38 -16 -70.5t-46 -56.5t-73.5 -37.5t-99.5 -13.5q-118 0 -179.5 47.5t-60.5 126.5l182 7q0 -21 12.5 -38.5t46.5 -17.5q26 0 39 12t13 30q0 7 -2.5 13.5t-11 12.5t-24.5 12t-42 12q-53 11 -94.5 22.5t-71 28.5t-45 42t-15.5 63
q0 45 21 74.5t53 50.5q-26 17 -40.5 44.5t-14.5 70.5q0 37 15 69t44 55.5t71 36.5t96 13q113 0 171 -45t59 -120l-182 -7q0 18 -9.5 32.5t-36.5 14.5q-46 0 -46 -37q0 -8 2.5 -14.5t11 -12.5t23.5 -12t40 -12q54 -12 96.5 -23.5t71 -28.5t43.5 -42t15 -63q0 -45 -20.5 -74
t-52.5 -49zM185 370q0 -23 30 -35.5t99 -25.5q17 11 28 23t11 32q0 25 -30 36.5t-98 24.5q-17 -11 -28.5 -23t-11.5 -32z" />
    <glyph glyph-name="dieresis" unicode="&#xa8;" horiz-adv-x="418" 
d="M99 773q41 0 68.5 -27.5t27.5 -67.5q0 -41 -27.5 -68.5t-68.5 -27.5q-40 0 -67.5 27.5t-27.5 68.5q0 40 27.5 67.5t67.5 27.5zM318 773q41 0 69 -27.5t28 -67.5q0 -41 -28 -68.5t-69 -27.5q-40 0 -67.5 27.5t-27.5 68.5q0 40 27.5 67.5t67.5 27.5z" />
    <glyph glyph-name="copyright" unicode="&#xa9;" horiz-adv-x="603" 
d="M302 762q60 0 110.5 -19.5t87 -54t57.5 -81.5t21 -102q0 -56 -21 -103.5t-57.5 -82t-87 -54t-110.5 -19.5q-61 0 -112 19.5t-87.5 54t-57 82t-20.5 103.5q0 55 20.5 102t57 81.5t87.5 54t112 19.5zM302 701q-47 0 -85 -14.5t-65 -40t-42 -62t-15 -79.5q0 -44 15 -80
t42 -62t65 -40.5t85 -14.5q46 0 84 14.5t65 40.5t42 62t15 80q0 43 -15 79.5t-42 62t-65 40t-84 14.5zM303 663q57 0 97.5 -31t50.5 -86l-104 -8q-4 20 -16 29t-30 9q-26 0 -40 -18.5t-14 -50.5q0 -35 16 -52.5t38 -17.5q18 0 30.5 9.5t15.5 29.5l103 -7q-9 -56 -49.5 -87.5
t-97.5 -31.5q-34 0 -63 10.5t-50 31t-33 49.5t-12 66t12 66t33 49t50 30.5t63 10.5z" />
    <glyph glyph-name="ordfeminine" unicode="&#xaa;" horiz-adv-x="466" 
d="M229 757q195 0 195 -171v-257h-154v21q-14 -12 -39 -21t-60 -9q-68 0 -107 31t-39 94q0 37 15.5 60.5t42 38t60.5 21t71 8.5l47 3v22q0 15 -8.5 24.5t-22.5 9.5q-18 0 -27 -10t-9 -27l-159 5q0 28 13.5 56t38.5 50.5t61 36.5t81 14zM227 483q-17 -2 -27.5 -8.5
t-10.5 -19.5q0 -12 8 -17t21 -5q17 0 30 9.5t13 23.5v19z" />
    <glyph glyph-name="guillemotleft" unicode="&#xab;" horiz-adv-x="612" 
d="M217 260l97 -155l-146 -89l-153 244l153 245l146 -89zM501 260l97 -155l-146 -89l-153 244l153 245l146 -89z" />
    <glyph glyph-name="logicalnot" unicode="&#xac;" horiz-adv-x="631" 
d="M455 136v195h-426v141h568v-336h-142z" />
    <glyph glyph-name="registered" unicode="&#xae;" horiz-adv-x="603" 
d="M302 762q60 0 110.5 -19.5t87 -54t57.5 -81.5t21 -102q0 -56 -21 -103.5t-57.5 -82t-87 -54t-110.5 -19.5q-61 0 -112 19.5t-87.5 54t-57 82t-20.5 103.5q0 55 20.5 102t57 81.5t87.5 54t112 19.5zM441 354q32 26 49.5 64.5t17.5 86.5q0 43 -15 79.5t-42 62t-65 40
t-84 14.5q-47 0 -85 -14.5t-65 -40t-42 -62t-15 -79.5q0 -44 15 -80t42 -62t65 -40.5t85 -14.5q82 0 138 45h-107l-42 97h-15v-97h-99v306h150q47 0 74.5 -28t27.5 -76q0 -59 -39 -86zM300 529q28 0 28 25t-28 25h-24v-50h24z" />
    <glyph glyph-name="macron" unicode="&#xaf;" horiz-adv-x="331" 
d="M4 609v140h323v-140h-323z" />
    <glyph glyph-name="degree" unicode="&#xb0;" horiz-adv-x="395" 
d="M197 758q37 0 69 -10.5t55 -30.5t36 -49t13 -66v-22q0 -37 -13 -66t-36 -49t-55 -30.5t-69 -10.5q-38 0 -69.5 10.5t-54 30.5t-35.5 49t-13 66v22q0 75 48 115.5t124 40.5zM197 648q-23 0 -36 -13.5t-13 -38.5v-10q0 -25 13 -38.5t36 -13.5q22 0 35.5 13.5t13.5 38.5v10
q0 25 -13.5 38.5t-35.5 13.5z" />
    <glyph glyph-name="plusminus" unicode="&#xb1;" horiz-adv-x="548" 
d="M518 571v-165h-155v-162h-177v162h-156v165h156v162h177v-162h155zM30 29v171h488v-171h-488z" />
    <glyph glyph-name="acute" unicode="&#xb4;" horiz-adv-x="287" 
d="M4 600l73 191h206l-137 -191h-142z" />
    <glyph glyph-name="paragraph" unicode="&#xb6;" horiz-adv-x="737" 
d="M653 614v-681h-141v681h-75v-681h-140v429h-51q-49 0 -89 12t-68.5 36.5t-44 60.5t-15.5 84t15.5 84.5t44 60.5t68.5 36t89 12h477v-134h-70z" />
    <glyph glyph-name="periodcentered" unicode="&#xb7;" horiz-adv-x="301" 
d="M140 447q22 0 41.5 -8.5t33.5 -23t22.5 -33.5t8.5 -41q0 -23 -8.5 -42t-22.5 -33.5t-33.5 -22.5t-41.5 -8t-41.5 8t-33.5 22.5t-22.5 33.5t-8.5 42q0 22 8.5 41t22.5 33.5t33.5 23t41.5 8.5z" />
    <glyph glyph-name="cedilla" unicode="&#xb8;" horiz-adv-x="274" 
d="M147 -41q21 -1 42 -8.5t37.5 -21.5t27 -34t10.5 -47t-12.5 -47t-33 -32.5t-47 -18.5t-53.5 -6q-37 0 -61 5t-42 14l27 86q9 -5 19.5 -7.5t24.5 -2.5q13 0 27.5 6t14.5 23t-13 24.5t-28 7.5q-24 0 -38 -7l42 121h71z" />
    <glyph glyph-name="ordmasculine" unicode="&#xba;" horiz-adv-x="517" 
d="M258 757q51 0 93 -16t72.5 -44.5t47.5 -68.5t17 -89t-17 -89.5t-47.5 -69t-72.5 -44.5t-93 -16q-50 0 -92 16t-72.5 44.5t-47.5 69t-17 89.5t17 89t47.5 68.5t72.5 44.5t92 16zM258 619q-31 0 -47.5 -21t-16.5 -59t16.5 -59t47.5 -21q32 0 49 21t17 59t-17 59t-49 21z
" />
    <glyph glyph-name="guillemotright" unicode="&#xbb;" horiz-adv-x="612" 
d="M160 16l-145 89l97 155l-97 156l145 89l154 -245zM444 16l-146 89l97 155l-97 156l146 89l153 -245z" />
    <glyph glyph-name="onequarter" unicode="&#xbc;" horiz-adv-x="761" 
d="M40 0l494 748h185l-494 -748h-185zM79 322v229l-32 -17l-59 113l143 86h87v-411h-139zM746 169v-123h-33v-46h-139v46h-155v108l160 257h134v-242h33zM574 169v56l-35 -56h35z" />
    <glyph glyph-name="onehalf" unicode="&#xbd;" horiz-adv-x="812" 
d="M40 0l494 748h185l-494 -748h-185zM79 322v229l-32 -17l-59 113l143 86h87v-411h-139zM645 418q38 0 66 -10.5t46 -29t27 -43.5t9 -55q0 -39 -17 -70.5t-40 -57.5l-23 -28h79v-124h-288v96l131 142q9 11 13.5 20.5t4.5 23.5q0 12 -5 12q-8 0 -8 -17l-136 8q1 63 39.5 98
t101.5 35z" />
    <glyph glyph-name="threequarters" unicode="&#xbe;" horiz-adv-x="832" 
d="M112 0l494 748h185l-494 -748h-185zM163 739q71 0 107 -34.5t36 -95.5q0 -28 -9 -45t-24 -31q15 -11 25 -32.5t10 -50.5q0 -66 -41 -101t-105 -35q-73 0 -110 36.5t-36 96.5l141 9q-3 -18 4 -18q8 0 8 17q0 20 -13 20h-46v108h44q6 0 11.5 4.5t5.5 12.5q0 15 -8 15
q-3 0 -5 -3t-1 -12l-136 8q-1 62 35 96.5t107 34.5zM818 169v-123h-33v-46h-139v46h-155v108l160 257h134v-242h33zM646 169v56l-35 -56h35z" />
    <glyph glyph-name="questiondown" unicode="&#xbf;" horiz-adv-x="555" 
d="M274 320q-45 0 -75.5 30.5t-30.5 75.5t30.5 75.5t75.5 30.5t75.5 -30.5t30.5 -75.5t-30.5 -75.5t-75.5 -30.5zM277 -240q-60 0 -108.5 16t-82.5 46t-52.5 73.5t-18.5 98.5q0 30 8.5 54t22 43t30 34t33.5 29q13 11 25.5 21t22 20.5t15.5 22t6 25.5v34h192v-41
q0 -24 -8.5 -44t-22.5 -37.5t-31 -33t-33 -30.5q-25 -23 -44.5 -45.5t-19.5 -48.5q0 -34 18.5 -50.5t47.5 -16.5q31 0 50.5 21.5t20.5 60.5l192 -11q-1 -55 -20.5 -99.5t-54.5 -76t-83 -48.5t-105 -17z" />
    <glyph glyph-name="Agrave" unicode="&#xc0;" horiz-adv-x="823" 
d="M322 795l-199 162h248l115 -162h-164zM607 0l-52 119h-287l-52 -119h-212l326 748h163l326 -748h-212zM490 267l-79 182l-78 -182h157z" />
    <glyph glyph-name="Aacute" unicode="&#xc1;" horiz-adv-x="823" 
d="M328 795l116 162h247l-199 -162h-164zM607 0l-52 119h-287l-52 -119h-212l326 748h163l326 -748h-212zM490 267l-79 182l-78 -182h157z" />
    <glyph glyph-name="Acircumflex" unicode="&#xc2;" horiz-adv-x="823" 
d="M463 795l-52 66l-51 -66h-152l115 170h177l114 -170h-151zM607 0l-52 119h-287l-52 -119h-212l326 748h163l326 -748h-212zM490 267l-79 182l-78 -182h157z" />
    <glyph glyph-name="Atilde" unicode="&#xc3;" horiz-adv-x="823" 
d="M335 974q24 0 42 -7.5t32.5 -17t28 -17t28.5 -7.5q20 0 28.5 11t8.5 31h102q3 -35 -3.5 -67t-22 -57t-39 -40t-53.5 -15q-25 0 -43 8t-33 17t-28 17t-27 8q-21 0 -29 -11.5t-8 -31.5h-102q-3 35 3.5 67.5t21.5 57t38.5 39.5t54.5 15zM607 0l-52 119h-287l-52 -119h-212
l326 748h163l326 -748h-212zM490 267l-79 182l-78 -182h157z" />
    <glyph glyph-name="Adieresis" unicode="&#xc4;" horiz-adv-x="823" 
d="M301 980q41 0 68.5 -28t27.5 -68q0 -41 -27.5 -68t-68.5 -27q-40 0 -67.5 27t-27.5 68q0 40 27.5 68t67.5 28zM520 980q41 0 69 -28t28 -68q0 -41 -28 -68t-69 -27q-40 0 -67.5 27t-27.5 68q0 40 27.5 68t67.5 28zM607 0l-52 119h-287l-52 -119h-212l326 748h163
l326 -748h-212zM490 267l-79 182l-78 -182h157z" />
    <glyph glyph-name="Aring" unicode="&#xc5;" horiz-adv-x="823" 
d="M411 1019q25 0 47 -8t38.5 -23t26 -36t9.5 -46t-9.5 -45.5t-26 -35.5t-38.5 -23.5t-47 -8.5q-52 0 -87 31.5t-35 81.5q0 51 35 82t87 31zM411 941q-17 0 -26 -10t-9 -25q0 -14 9 -24t26 -10q16 0 25 10t9 24q0 15 -9 25t-25 10zM607 0l-52 119h-287l-52 -119h-212
l326 748h163l326 -748h-212zM490 267l-79 182l-78 -182h157z" />
    <glyph glyph-name="AE" unicode="&#xc6;" horiz-adv-x="1073" 
d="M1022 0h-491v119h-211l-82 -119h-235l507 748h511v-171h-297v-112h254v-167h-254v-127h298v-171zM531 438l-113 -171h113v171z" />
    <glyph glyph-name="Ccedilla" unicode="&#xc7;" horiz-adv-x="837" 
d="M426 160q65 0 109.5 34t58.5 103l202 -17q-11 -65 -41 -117.5t-75 -90t-103 -59t-123 -24.5l-10 -35q21 -1 42 -8.5t37.5 -21.5t27 -34t10.5 -47t-12.5 -47t-33 -32.5t-47 -18.5t-53.5 -6q-37 0 -61 5t-42 14l27 86q9 -5 19.5 -7.5t24.5 -2.5q13 0 27.5 6t14.5 23
t-13 24.5t-28 7.5q-24 0 -38 -7l36 104q-74 7 -136 36.5t-107 78.5t-70 116.5t-25 150.5q0 90 29.5 161.5t81 121t123 76t155.5 26.5q69 0 130.5 -20t109.5 -57t80 -91t43 -121l-202 -19q-16 70 -59 103.5t-109 33.5q-43 0 -77 -15.5t-58 -43.5t-37 -67.5t-13 -87.5
q0 -53 14.5 -93t39 -67t58.5 -40.5t73 -13.5z" />
    <glyph glyph-name="Egrave" unicode="&#xc8;" horiz-adv-x="608" 
d="M226 795l-199 162h248l115 -162h-164zM259 577v-112h254v-167h-254v-127h298v-171h-491v748h490v-171h-297z" />
    <glyph glyph-name="Eacute" unicode="&#xc9;" horiz-adv-x="608" 
d="M232 795l116 162h247l-199 -162h-164zM259 577v-112h254v-167h-254v-127h298v-171h-491v748h490v-171h-297z" />
    <glyph glyph-name="Ecircumflex" unicode="&#xca;" horiz-adv-x="608" 
d="M367 795l-52 66l-51 -66h-152l115 170h177l114 -170h-151zM259 577v-112h254v-167h-254v-127h298v-171h-491v748h490v-171h-297z" />
    <glyph glyph-name="Edieresis" unicode="&#xcb;" horiz-adv-x="608" 
d="M205 980q41 0 68.5 -28t27.5 -68q0 -41 -27.5 -68t-68.5 -27q-40 0 -67.5 27t-27.5 68q0 40 27.5 68t67.5 28zM424 980q41 0 69 -28t28 -68q0 -41 -28 -68t-69 -27q-40 0 -67.5 27t-27.5 68q0 40 27.5 68t67.5 28zM259 577v-112h254v-167h-254v-127h298v-171h-491v748
h490v-171h-297z" />
    <glyph glyph-name="Igrave" unicode="&#xcc;" horiz-adv-x="325" 
d="M79 795l-199 162h248l115 -162h-164zM66 0v748h193v-748h-193z" />
    <glyph glyph-name="Iacute" unicode="&#xcd;" horiz-adv-x="325" 
d="M85 795l116 162h247l-199 -162h-164zM66 0v748h193v-748h-193z" />
    <glyph glyph-name="Icircumflex" unicode="&#xce;" horiz-adv-x="325" 
d="M220 795l-52 66l-51 -66h-152l115 170h177l114 -170h-151zM66 0v748h193v-748h-193z" />
    <glyph glyph-name="Idieresis" unicode="&#xcf;" horiz-adv-x="325" 
d="M58 980q41 0 68.5 -28t27.5 -68q0 -41 -27.5 -68t-68.5 -27q-40 0 -67.5 27t-27.5 68q0 40 27.5 68t67.5 28zM277 980q41 0 69 -28t28 -68q0 -41 -28 -68t-69 -27q-40 0 -67.5 27t-27.5 68q0 40 27.5 68t67.5 28zM66 0v748h193v-748h-193z" />
    <glyph glyph-name="Eth" unicode="&#xd0;" horiz-adv-x="812" 
d="M399 748q82 0 151 -25.5t119.5 -73.5t79 -117.5t28.5 -157.5t-28.5 -157.5t-79 -117.5t-119.5 -73.5t-151 -25.5h-317v300h-71v147h71v301h317zM401 166q87 0 136 50.5t49 157.5t-49 157.5t-136 50.5h-126v-135h84v-147h-84v-134h126z" />
    <glyph glyph-name="Ntilde" unicode="&#xd1;" horiz-adv-x="773" 
d="M300 974q24 0 42 -7.5t32.5 -17t28 -17t28.5 -7.5q20 0 28.5 11t8.5 31h102q3 -35 -3.5 -67t-22 -57t-39 -40t-53.5 -15q-25 0 -43 8t-33 17t-28 17t-27 8q-21 0 -29 -11.5t-8 -31.5h-102q-3 35 3.5 67.5t21.5 57t38.5 39.5t54.5 15zM542 0l-283 392v-392h-193v748h164
l284 -394v394h193v-748h-165z" />
    <glyph glyph-name="Ograve" unicode="&#xd2;" horiz-adv-x="880" 
d="M352 795l-199 162h248l115 -162h-164zM441 759q86 0 158.5 -27.5t125 -77.5t82 -121t29.5 -159t-29.5 -159t-82 -121.5t-125 -77.5t-158.5 -27q-87 0 -160 27t-125.5 77.5t-82 121.5t-29.5 159t29.5 159t82 121t125.5 77.5t160 27.5zM441 588q-92 0 -146 -57t-54 -157
t54 -157t146 -57q91 0 144.5 57t53.5 157t-53.5 157t-144.5 57z" />
    <glyph glyph-name="Oacute" unicode="&#xd3;" horiz-adv-x="880" 
d="M358 795l116 162h247l-199 -162h-164zM441 759q86 0 158.5 -27.5t125 -77.5t82 -121t29.5 -159t-29.5 -159t-82 -121.5t-125 -77.5t-158.5 -27q-87 0 -160 27t-125.5 77.5t-82 121.5t-29.5 159t29.5 159t82 121t125.5 77.5t160 27.5zM441 588q-92 0 -146 -57t-54 -157
t54 -157t146 -57q91 0 144.5 57t53.5 157t-53.5 157t-144.5 57z" />
    <glyph glyph-name="Ocircumflex" unicode="&#xd4;" horiz-adv-x="880" 
d="M493 795l-52 66l-51 -66h-152l115 170h177l114 -170h-151zM441 759q86 0 158.5 -27.5t125 -77.5t82 -121t29.5 -159t-29.5 -159t-82 -121.5t-125 -77.5t-158.5 -27q-87 0 -160 27t-125.5 77.5t-82 121.5t-29.5 159t29.5 159t82 121t125.5 77.5t160 27.5zM441 588
q-92 0 -146 -57t-54 -157t54 -157t146 -57q91 0 144.5 57t53.5 157t-53.5 157t-144.5 57z" />
    <glyph glyph-name="Otilde" unicode="&#xd5;" horiz-adv-x="880" 
d="M365 974q24 0 42 -7.5t32.5 -17t28 -17t28.5 -7.5q20 0 28.5 11t8.5 31h102q3 -35 -3.5 -67t-22 -57t-39 -40t-53.5 -15q-25 0 -43 8t-33 17t-28 17t-27 8q-21 0 -29 -11.5t-8 -31.5h-102q-3 35 3.5 67.5t21.5 57t38.5 39.5t54.5 15zM441 759q86 0 158.5 -27.5t125 -77.5
t82 -121t29.5 -159t-29.5 -159t-82 -121.5t-125 -77.5t-158.5 -27q-87 0 -160 27t-125.5 77.5t-82 121.5t-29.5 159t29.5 159t82 121t125.5 77.5t160 27.5zM441 588q-92 0 -146 -57t-54 -157t54 -157t146 -57q91 0 144.5 57t53.5 157t-53.5 157t-144.5 57z" />
    <glyph glyph-name="Odieresis" unicode="&#xd6;" horiz-adv-x="880" 
d="M332 980q41 0 68.5 -28t27.5 -68q0 -41 -27.5 -68t-68.5 -27q-40 0 -67.5 27t-27.5 68q0 40 27.5 68t67.5 28zM551 980q41 0 69 -28t28 -68q0 -41 -28 -68t-69 -27q-40 0 -67.5 27t-27.5 68q0 40 27.5 68t67.5 28zM441 759q86 0 158.5 -27.5t125 -77.5t82 -121t29.5 -159
t-29.5 -159t-82 -121.5t-125 -77.5t-158.5 -27q-87 0 -160 27t-125.5 77.5t-82 121.5t-29.5 159t29.5 159t82 121t125.5 77.5t160 27.5zM441 588q-92 0 -146 -57t-54 -157t54 -157t146 -57q91 0 144.5 57t53.5 157t-53.5 157t-144.5 57z" />
    <glyph glyph-name="multiply" unicode="&#xd7;" horiz-adv-x="565" 
d="M403 371l123 -123l-121 -120l-122 122l-123 -122l-121 121l123 122l-123 123l121 121l123 -123l122 123l121 -121z" />
    <glyph glyph-name="Oslash" unicode="&#xd8;" horiz-adv-x="882" 
d="M738 641q47 -50 72.5 -117t25.5 -150q0 -88 -29.5 -159t-82 -121.5t-125 -77.5t-158.5 -27q-97 0 -177 34l-62 -81l-118 90l58 75q-47 51 -72.5 118t-25.5 149q0 88 29.5 159t82 121t125.5 77.5t160 27.5q95 0 175 -34l63 83l118 -89zM241 374q0 -32 5.5 -59t16.5 -50
l241 315q-30 8 -63 8q-92 0 -146 -57t-54 -157zM441 160q91 0 144.5 57t53.5 157q0 65 -22 110l-241 -315q30 -9 65 -9z" />
    <glyph glyph-name="Ugrave" unicode="&#xd9;" horiz-adv-x="785" 
d="M304 795l-199 162h248l115 -162h-164zM723 318q0 -78 -22.5 -139t-65 -103t-104 -64.5t-138.5 -22.5q-78 0 -139.5 22.5t-104 64.5t-65.5 103t-23 139v430h193v-427q0 -78 34 -119.5t105 -41.5q70 0 104 41.5t34 119.5v427h192v-430z" />
    <glyph glyph-name="Uacute" unicode="&#xda;" horiz-adv-x="785" 
d="M310 795l116 162h247l-199 -162h-164zM723 318q0 -78 -22.5 -139t-65 -103t-104 -64.5t-138.5 -22.5q-78 0 -139.5 22.5t-104 64.5t-65.5 103t-23 139v430h193v-427q0 -78 34 -119.5t105 -41.5q70 0 104 41.5t34 119.5v427h192v-430z" />
    <glyph glyph-name="Ucircumflex" unicode="&#xdb;" horiz-adv-x="785" 
d="M445 795l-52 66l-51 -66h-152l115 170h177l114 -170h-151zM723 318q0 -78 -22.5 -139t-65 -103t-104 -64.5t-138.5 -22.5q-78 0 -139.5 22.5t-104 64.5t-65.5 103t-23 139v430h193v-427q0 -78 34 -119.5t105 -41.5q70 0 104 41.5t34 119.5v427h192v-430z" />
    <glyph glyph-name="Udieresis" unicode="&#xdc;" horiz-adv-x="785" 
d="M283 980q41 0 68.5 -28t27.5 -68q0 -41 -27.5 -68t-68.5 -27q-40 0 -67.5 27t-27.5 68q0 40 27.5 68t67.5 28zM502 980q41 0 69 -28t28 -68q0 -41 -28 -68t-69 -27q-40 0 -67.5 27t-27.5 68q0 40 27.5 68t67.5 28zM723 318q0 -78 -22.5 -139t-65 -103t-104 -64.5
t-138.5 -22.5q-78 0 -139.5 22.5t-104 64.5t-65.5 103t-23 139v430h193v-427q0 -78 34 -119.5t105 -41.5q70 0 104 41.5t34 119.5v427h192v-430z" />
    <glyph glyph-name="Yacute" unicode="&#xdd;" horiz-adv-x="776" 
d="M305 795l116 162h247l-199 -162h-164zM485 0h-193v274l-284 474h224l156 -282l156 282h224l-283 -474v-274z" />
    <glyph glyph-name="Thorn" unicode="&#xde;" horiz-adv-x="669" 
d="M398 659q57 0 103 -17t78.5 -49t50.5 -78.5t18 -105.5t-18 -105.5t-50.5 -78.5t-78.5 -49t-103 -17h-139v-159h-193v748h193v-89h139zM259 330h115q36 0 56.5 21t20.5 58q0 38 -20.5 58.5t-56.5 20.5h-115v-158z" />
    <glyph glyph-name="germandbls" unicode="&#xdf;" horiz-adv-x="674" 
d="M317 785q58 0 106 -13.5t82.5 -37.5t53 -58t18.5 -76q0 -39 -13.5 -61t-29 -37.5t-29 -30.5t-13.5 -40q0 -20 10.5 -35t27 -28.5t35 -28t35 -34t27 -45t10.5 -60.5q0 -51 -19 -90t-52 -65t-77.5 -39.5t-95.5 -13.5q-38 0 -64.5 5.5t-47.5 13.5l34 146q32 -13 60 -13
q30 0 54 18.5t24 55.5q0 30 -22.5 52.5t-50 45t-50 48.5t-22.5 63q0 35 13 53t29 30.5t29 24t13 33.5q0 30 -17.5 48t-54.5 18q-35 0 -55 -22.5t-20 -67.5v-544h-183v549q0 54 18 98t51.5 74.5t80.5 47t105 16.5z" />
    <glyph glyph-name="agrave" unicode="&#xe0;" horiz-adv-x="566" 
d="M217 600l-137 191h206l73 -191h-142zM282 532q111 0 168.5 -53t57.5 -160v-319h-171v37q-17 -19 -48 -33.5t-78 -14.5q-80 0 -126 38.5t-46 115.5q0 46 19 76.5t51 48.5t73 26t85 10l59 2v27q0 26 -11 37.5t-30 11.5q-26 0 -38 -15.5t-12 -30.5l-182 6q0 35 16 69t46 61
t72 43.5t95 16.5zM279 198q-26 -2 -42 -11t-16 -29q0 -19 11.5 -27.5t29.5 -8.5q24 0 43.5 15t19.5 38v25z" />
    <glyph glyph-name="aacute" unicode="&#xe1;" horiz-adv-x="566" 
d="M220 600l73 191h206l-137 -191h-142zM282 532q111 0 168.5 -53t57.5 -160v-319h-171v37q-17 -19 -48 -33.5t-78 -14.5q-80 0 -126 38.5t-46 115.5q0 46 19 76.5t51 48.5t73 26t85 10l59 2v27q0 26 -11 37.5t-30 11.5q-26 0 -38 -15.5t-12 -30.5l-182 6q0 35 16 69t46 61
t72 43.5t95 16.5zM279 198q-26 -2 -42 -11t-16 -29q0 -19 11.5 -27.5t29.5 -8.5q24 0 43.5 15t19.5 38v25z" />
    <glyph glyph-name="acircumflex" unicode="&#xe2;" horiz-adv-x="566" 
d="M345 600l-52 65l-51 -65h-152l115 182h177l114 -182h-151zM282 532q111 0 168.5 -53t57.5 -160v-319h-171v37q-17 -19 -48 -33.5t-78 -14.5q-80 0 -126 38.5t-46 115.5q0 46 19 76.5t51 48.5t73 26t85 10l59 2v27q0 26 -11 37.5t-30 11.5q-26 0 -38 -15.5t-12 -30.5
l-182 6q0 35 16 69t46 61t72 43.5t95 16.5zM279 198q-26 -2 -42 -11t-16 -29q0 -19 11.5 -27.5t29.5 -8.5q24 0 43.5 15t19.5 38v25z" />
    <glyph glyph-name="atilde" unicode="&#xe3;" horiz-adv-x="566" 
d="M217 776q24 0 42 -7.5t32.5 -17t28 -17t28.5 -7.5q20 0 28.5 11.5t8.5 30.5h102q3 -35 -3.5 -67t-22 -56.5t-39 -39.5t-53.5 -15q-25 0 -43 7.5t-33 17t-28 17t-27 7.5q-21 0 -29 -11.5t-8 -30.5h-102q-3 34 3.5 66.5t21.5 57t38.5 39.5t54.5 15zM282 532
q111 0 168.5 -53t57.5 -160v-319h-171v37q-17 -19 -48 -33.5t-78 -14.5q-80 0 -126 38.5t-46 115.5q0 46 19 76.5t51 48.5t73 26t85 10l59 2v27q0 26 -11 37.5t-30 11.5q-26 0 -38 -15.5t-12 -30.5l-182 6q0 35 16 69t46 61t72 43.5t95 16.5zM279 198q-26 -2 -42 -11
t-16 -29q0 -19 11.5 -27.5t29.5 -8.5q24 0 43.5 15t19.5 38v25z" />
    <glyph glyph-name="adieresis" unicode="&#xe4;" horiz-adv-x="566" 
d="M183 773q41 0 68.5 -27.5t27.5 -67.5q0 -41 -27.5 -68.5t-68.5 -27.5q-40 0 -67.5 27.5t-27.5 68.5q0 40 27.5 67.5t67.5 27.5zM402 773q41 0 69 -27.5t28 -67.5q0 -41 -28 -68.5t-69 -27.5q-40 0 -67.5 27.5t-27.5 68.5q0 40 27.5 67.5t67.5 27.5zM282 532
q111 0 168.5 -53t57.5 -160v-319h-171v37q-17 -19 -48 -33.5t-78 -14.5q-80 0 -126 38.5t-46 115.5q0 46 19 76.5t51 48.5t73 26t85 10l59 2v27q0 26 -11 37.5t-30 11.5q-26 0 -38 -15.5t-12 -30.5l-182 6q0 35 16 69t46 61t72 43.5t95 16.5zM279 198q-26 -2 -42 -11
t-16 -29q0 -19 11.5 -27.5t29.5 -8.5q24 0 43.5 15t19.5 38v25z" />
    <glyph glyph-name="aring" unicode="&#xe5;" horiz-adv-x="566" 
d="M294 838q29 0 55 -10t45 -27t30 -41.5t11 -52.5q0 -29 -11 -53t-30 -41.5t-45 -27.5t-55 -10q-30 0 -55.5 10t-45 27.5t-30.5 41.5t-11 53q0 28 11 52.5t30.5 41.5t45 27t55.5 10zM294 745q-18 0 -28.5 -10.5t-10.5 -27.5t10.5 -28t28.5 -11q17 0 27.5 11t10.5 28
t-10.5 27.5t-27.5 10.5zM282 532q111 0 168.5 -53t57.5 -160v-319h-171v37q-17 -19 -48 -33.5t-78 -14.5q-80 0 -126 38.5t-46 115.5q0 46 19 76.5t51 48.5t73 26t85 10l59 2v27q0 26 -11 37.5t-30 11.5q-26 0 -38 -15.5t-12 -30.5l-182 6q0 35 16 69t46 61t72 43.5t95 16.5
zM279 198q-26 -2 -42 -11t-16 -29q0 -19 11.5 -27.5t29.5 -8.5q24 0 43.5 15t19.5 38v25z" />
    <glyph glyph-name="ae" unicode="&#xe6;" horiz-adv-x="891" 
d="M521 211q0 -35 18 -58.5t59 -23.5q53 0 66 40l184 -9q-6 -40 -28 -71.5t-55 -53.5t-75 -34t-88 -12q-120 0 -194 68q-35 -30 -78.5 -49t-97.5 -19q-92 0 -142.5 40t-50.5 116q0 46 19 76t51 48t73 25.5t85 9.5l59 2v23q0 19 -8.5 35.5t-34.5 16.5t-37 -15t-11 -30l-182 6
q0 35 15.5 69t44 61t70 43.5t93.5 16.5q48 0 87 -12t68 -37q69 49 167 49q56 0 103 -17.5t80.5 -50.5t52.5 -82t19 -112v-59h-332zM596 398q-35 0 -54 -21.5t-21 -58.5h147q-2 37 -19.5 58.5t-52.5 21.5zM279 198q-26 -2 -42 -11.5t-16 -29.5q0 -19 11.5 -27t29.5 -8
q26 0 44.5 15t18.5 38v25z" />
    <glyph glyph-name="ccedilla" unicode="&#xe7;" horiz-adv-x="601" 
d="M313 145q32 0 51.5 18t23.5 47l178 -15q-7 -46 -27.5 -83t-51.5 -63t-71 -41t-85 -18l-9 -35q21 -1 42 -8.5t37.5 -21.5t27 -34t10.5 -47t-12.5 -47t-33 -32.5t-47 -18.5t-53.5 -6q-37 0 -61 5t-42 14l27 86q9 -5 19.5 -7.5t24.5 -2.5q13 0 27.5 6t14.5 23t-13 24.5
t-28 7.5q-24 0 -38 -7l36 104q-49 7 -89.5 29t-70 56t-45.5 80t-16 102q0 64 20.5 114.5t57 85.5t87 53.5t109.5 18.5q48 0 91 -14t76.5 -40.5t56 -64.5t30.5 -86l-179 -16q-4 29 -23.5 47t-51.5 18q-40 0 -65 -30t-25 -86q0 -55 25 -85t65 -30z" />
    <glyph glyph-name="egrave" unicode="&#xe8;" horiz-adv-x="603" 
d="M92 791h206l73 -191h-142zM233 211q0 -35 17.5 -58.5t58.5 -23.5q53 0 67 40l183 -9q-6 -40 -28 -71.5t-55 -53.5t-74.5 -34t-87.5 -12q-62 0 -112.5 19t-86.5 54t-56 85t-20 113t19.5 113t55.5 85.5t85.5 54.5t109.5 19q57 0 103.5 -17.5t80.5 -50.5t52.5 -82t18.5 -112
v-59h-331zM307 398q-34 0 -53 -21.5t-21 -58.5h147q-2 37 -19.5 58.5t-53.5 21.5z" />
    <glyph glyph-name="eacute" unicode="&#xe9;" horiz-adv-x="603" 
d="M231 600l73 191h206l-137 -191h-142zM233 211q0 -35 17.5 -58.5t58.5 -23.5q53 0 67 40l183 -9q-6 -40 -28 -71.5t-55 -53.5t-74.5 -34t-87.5 -12q-62 0 -112.5 19t-86.5 54t-56 85t-20 113t19.5 113t55.5 85.5t85.5 54.5t109.5 19q57 0 103.5 -17.5t80.5 -50.5t52.5 -82
t18.5 -112v-59h-331zM307 398q-34 0 -53 -21.5t-21 -58.5h147q-2 37 -19.5 58.5t-53.5 21.5z" />
    <glyph glyph-name="ecircumflex" unicode="&#xea;" horiz-adv-x="603" 
d="M102 600l115 182h177l114 -182h-151l-52 65l-51 -65h-152zM233 211q0 -35 17.5 -58.5t58.5 -23.5q53 0 67 40l183 -9q-6 -40 -28 -71.5t-55 -53.5t-74.5 -34t-87.5 -12q-62 0 -112.5 19t-86.5 54t-56 85t-20 113t19.5 113t55.5 85.5t85.5 54.5t109.5 19q57 0 103.5 -17.5
t80.5 -50.5t52.5 -82t18.5 -112v-59h-331zM307 398q-34 0 -53 -21.5t-21 -58.5h147q-2 37 -19.5 58.5t-53.5 21.5z" />
    <glyph glyph-name="edieresis" unicode="&#xeb;" horiz-adv-x="603" 
d="M195 582q-40 0 -67.5 27.5t-27.5 68.5q0 40 27.5 67.5t67.5 27.5q41 0 68.5 -27.5t27.5 -67.5q0 -41 -27.5 -68.5t-68.5 -27.5zM414 582q-40 0 -67.5 27.5t-27.5 68.5q0 40 27.5 67.5t67.5 27.5q41 0 69 -27.5t28 -67.5q0 -41 -28 -68.5t-69 -27.5zM233 211
q0 -35 17.5 -58.5t58.5 -23.5q53 0 67 40l183 -9q-6 -40 -28 -71.5t-55 -53.5t-74.5 -34t-87.5 -12q-62 0 -112.5 19t-86.5 54t-56 85t-20 113t19.5 113t55.5 85.5t85.5 54.5t109.5 19q57 0 103.5 -17.5t80.5 -50.5t52.5 -82t18.5 -112v-59h-331zM307 398q-34 0 -53 -21.5
t-21 -58.5h147q-2 37 -19.5 58.5t-53.5 21.5z" />
    <glyph glyph-name="igrave" unicode="&#xec;" 
d="M82 600l-137 191h206l73 -191h-142zM63 0v521h182v-521h-182z" />
    <glyph glyph-name="iacute" unicode="&#xed;" 
d="M84 600l73 191h206l-137 -191h-142zM63 0v521h182v-521h-182z" />
    <glyph glyph-name="icircumflex" unicode="&#xee;" 
d="M210 600l-52 65l-51 -65h-152l115 182h177l114 -182h-151zM63 0v521h182v-521h-182z" />
    <glyph glyph-name="idieresis" unicode="&#xef;" 
d="M47 773q41 0 68.5 -27.5t27.5 -67.5q0 -41 -27.5 -68.5t-68.5 -27.5q-40 0 -67.5 27.5t-27.5 68.5q0 40 27.5 67.5t67.5 27.5zM266 773q41 0 69 -27.5t28 -67.5q0 -41 -28 -68.5t-69 -27.5q-40 0 -67.5 27.5t-27.5 68.5q0 40 27.5 67.5t67.5 27.5zM63 0v521h182v-521
h-182z" />
    <glyph glyph-name="eth" unicode="&#xf0;" horiz-adv-x="610" 
d="M433 672q71 -66 105.5 -166.5t34.5 -228.5q0 -69 -19 -123t-54.5 -90.5t-86 -55.5t-113.5 -19q-52 0 -99 16.5t-83 48t-57.5 78t-21.5 106.5q0 58 21 102.5t57 75.5t83 47t99 16q39 0 75 -9q-19 58 -47 92l-58 -61l-82 80l44 46q-45 15 -100 18v132q118 0 205 -41l69 72
l84 -78zM308 135q22 0 38.5 8.5t27 22.5t16 32t5.5 38q0 48 -22 75.5t-65 27.5q-40 0 -65.5 -27.5t-25.5 -74.5q0 -48 25.5 -75t65.5 -27z" />
    <glyph glyph-name="ntilde" unicode="&#xf1;" horiz-adv-x="624" 
d="M249 776q24 0 42 -7.5t32.5 -17t28 -17t28.5 -7.5q20 0 28.5 11.5t8.5 30.5h102q3 -35 -3.5 -67t-22 -56.5t-39 -39.5t-53.5 -15q-25 0 -43 7.5t-33 17t-28 17t-27 7.5q-21 0 -29 -11.5t-8 -30.5h-102q-3 34 3.5 66.5t21.5 57t38.5 39.5t54.5 15zM363 532q91 0 147 -53
t56 -154v-325h-182v281q0 81 -68 81q-32 0 -51.5 -21t-19.5 -61v-280h-182v521h172v-36q15 19 47 33t81 14z" />
    <glyph glyph-name="ograve" unicode="&#xf2;" horiz-adv-x="643" 
d="M244 600l-137 191h206l73 -191h-142zM321 532q62 0 114 -19.5t89.5 -55.5t58.5 -86t21 -111t-21 -111t-58.5 -85.5t-89.5 -55t-114 -19.5t-113.5 19.5t-89 55t-58.5 85.5t-21 111t21 111t58.5 86t89 55.5t113.5 19.5zM321 376q-45 0 -71.5 -30.5t-26.5 -85.5
q0 -54 26.5 -84.5t71.5 -30.5q46 0 72.5 30.5t26.5 84.5q0 55 -26.5 85.5t-72.5 30.5z" />
    <glyph glyph-name="oacute" unicode="&#xf3;" horiz-adv-x="643" 
d="M247 600l73 191h206l-137 -191h-142zM321 532q62 0 114 -19.5t89.5 -55.5t58.5 -86t21 -111t-21 -111t-58.5 -85.5t-89.5 -55t-114 -19.5t-113.5 19.5t-89 55t-58.5 85.5t-21 111t21 111t58.5 86t89 55.5t113.5 19.5zM321 376q-45 0 -71.5 -30.5t-26.5 -85.5
q0 -54 26.5 -84.5t71.5 -30.5q46 0 72.5 30.5t26.5 84.5q0 55 -26.5 85.5t-72.5 30.5z" />
    <glyph glyph-name="ocircumflex" unicode="&#xf4;" horiz-adv-x="643" 
d="M372 600l-52 65l-51 -65h-152l115 182h177l114 -182h-151zM321 532q62 0 114 -19.5t89.5 -55.5t58.5 -86t21 -111t-21 -111t-58.5 -85.5t-89.5 -55t-114 -19.5t-113.5 19.5t-89 55t-58.5 85.5t-21 111t21 111t58.5 86t89 55.5t113.5 19.5zM321 376q-45 0 -71.5 -30.5
t-26.5 -85.5q0 -54 26.5 -84.5t71.5 -30.5q46 0 72.5 30.5t26.5 84.5q0 55 -26.5 85.5t-72.5 30.5z" />
    <glyph glyph-name="otilde" unicode="&#xf5;" horiz-adv-x="643" 
d="M244 776q24 0 42 -7.5t32.5 -17t28 -17t28.5 -7.5q20 0 28.5 11.5t8.5 30.5h102q3 -35 -3.5 -67t-22 -56.5t-39 -39.5t-53.5 -15q-25 0 -43 7.5t-33 17t-28 17t-27 7.5q-21 0 -29 -11.5t-8 -30.5h-102q-3 34 3.5 66.5t21.5 57t38.5 39.5t54.5 15zM321 532q62 0 114 -19.5
t89.5 -55.5t58.5 -86t21 -111t-21 -111t-58.5 -85.5t-89.5 -55t-114 -19.5t-113.5 19.5t-89 55t-58.5 85.5t-21 111t21 111t58.5 86t89 55.5t113.5 19.5zM321 376q-45 0 -71.5 -30.5t-26.5 -85.5q0 -54 26.5 -84.5t71.5 -30.5q46 0 72.5 30.5t26.5 84.5q0 55 -26.5 85.5
t-72.5 30.5z" />
    <glyph glyph-name="odieresis" unicode="&#xf6;" horiz-adv-x="643" 
d="M210 773q41 0 68.5 -27.5t27.5 -67.5q0 -41 -27.5 -68.5t-68.5 -27.5q-40 0 -67.5 27.5t-27.5 68.5q0 40 27.5 67.5t67.5 27.5zM429 773q41 0 69 -27.5t28 -67.5q0 -41 -28 -68.5t-69 -27.5q-40 0 -67.5 27.5t-27.5 68.5q0 40 27.5 67.5t67.5 27.5zM321 532
q62 0 114 -19.5t89.5 -55.5t58.5 -86t21 -111t-21 -111t-58.5 -85.5t-89.5 -55t-114 -19.5t-113.5 19.5t-89 55t-58.5 85.5t-21 111t21 111t58.5 86t89 55.5t113.5 19.5zM321 376q-45 0 -71.5 -30.5t-26.5 -85.5q0 -54 26.5 -84.5t71.5 -30.5q46 0 72.5 30.5t26.5 84.5
q0 55 -26.5 85.5t-72.5 30.5z" />
    <glyph glyph-name="divide" unicode="&#xf7;" horiz-adv-x="548" 
d="M274 738q22 0 41.5 -8.5t34 -22.5t23 -33.5t8.5 -41.5t-8.5 -41.5t-23 -33.5t-34 -22.5t-41.5 -8.5q-45 0 -75 30.5t-30 75.5t30 75.5t75 30.5zM30 287v171h488v-171h-488zM274 218q22 0 41.5 -8t34 -22.5t23 -33.5t8.5 -41t-8.5 -41.5t-23 -34t-34 -23t-41.5 -8.5
t-41 8.5t-33.5 23t-22.5 34t-8 41.5q0 45 30 75t75 30z" />
    <glyph glyph-name="oslash" unicode="&#xf8;" horiz-adv-x="643" 
d="M538 443q32 -35 49 -81t17 -102q0 -61 -21 -111t-58.5 -85.5t-89.5 -55t-114 -19.5q-61 0 -110 18l-46 -61l-100 74l42 55q-32 35 -50 81.5t-18 103.5q0 61 21 111t58.5 86t89 55.5t113.5 19.5q59 0 114 -19l36 48l100 -74zM223 260q0 -7 0.5 -13.5t1.5 -13.5l107 143
h-11q-45 0 -71.5 -30.5t-26.5 -85.5zM321 145q46 0 72.5 30.5t26.5 84.5q0 6 -0.5 12t-1.5 12l-104 -139h7z" />
    <glyph glyph-name="ugrave" unicode="&#xf9;" horiz-adv-x="609" 
d="M228 600l-137 191h206l73 -191h-142zM374 0v36q-16 -20 -45 -33.5t-77 -13.5q-92 0 -143 50t-51 148v334h182v-289q0 -38 13.5 -55.5t46.5 -17.5q64 0 64 71v291h182v-521h-172z" />
    <glyph glyph-name="uacute" unicode="&#xfa;" horiz-adv-x="609" 
d="M231 600l73 191h206l-137 -191h-142zM374 0v36q-16 -20 -45 -33.5t-77 -13.5q-92 0 -143 50t-51 148v334h182v-289q0 -38 13.5 -55.5t46.5 -17.5q64 0 64 71v291h182v-521h-172z" />
    <glyph glyph-name="ucircumflex" unicode="&#xfb;" horiz-adv-x="609" 
d="M356 600l-52 65l-51 -65h-152l115 182h177l114 -182h-151zM374 0v36q-16 -20 -45 -33.5t-77 -13.5q-92 0 -143 50t-51 148v334h182v-289q0 -38 13.5 -55.5t46.5 -17.5q64 0 64 71v291h182v-521h-172z" />
    <glyph glyph-name="udieresis" unicode="&#xfc;" horiz-adv-x="609" 
d="M194 773q41 0 68.5 -27.5t27.5 -67.5q0 -41 -27.5 -68.5t-68.5 -27.5q-40 0 -67.5 27.5t-27.5 68.5q0 40 27.5 67.5t67.5 27.5zM413 773q41 0 69 -27.5t28 -67.5q0 -41 -28 -68.5t-69 -27.5q-40 0 -67.5 27.5t-27.5 68.5q0 40 27.5 67.5t67.5 27.5zM374 0v36
q-16 -20 -45 -33.5t-77 -13.5q-92 0 -143 50t-51 148v334h182v-289q0 -38 13.5 -55.5t46.5 -17.5q64 0 64 71v291h182v-521h-172z" />
    <glyph glyph-name="yacute" unicode="&#xfd;" horiz-adv-x="599" 
d="M226 600l73 191h206l-137 -191h-142zM63 -255l139 312l-201 464h202l97 -260l96 260h202l-336 -776h-199z" />
    <glyph glyph-name="thorn" unicode="&#xfe;" horiz-adv-x="662" 
d="M245 496q20 15 52.5 25.5t74.5 10.5q56 0 102 -20t79 -56t51.5 -86t18.5 -110t-18.5 -110t-51.5 -85.5t-79 -55.5t-102 -20q-42 0 -74.5 10.5t-52.5 25.5v-280h-182v1032h182v-281zM341 376q-44 0 -70 -29t-26 -77v-19q0 -48 26 -77t70 -29q45 0 71.5 30t26.5 85
q0 56 -26.5 86t-71.5 30z" />
    <glyph glyph-name="ydieresis" unicode="&#xff;" horiz-adv-x="599" 
d="M189 773q41 0 68.5 -27.5t27.5 -67.5q0 -41 -27.5 -68.5t-68.5 -27.5q-40 0 -67.5 27.5t-27.5 68.5q0 40 27.5 67.5t67.5 27.5zM408 773q41 0 69 -27.5t28 -67.5q0 -41 -28 -68.5t-69 -27.5q-40 0 -67.5 27.5t-27.5 68.5q0 40 27.5 67.5t67.5 27.5zM63 -255l139 312
l-201 464h202l97 -260l96 260h202l-336 -776h-199z" />
    <glyph glyph-name="Amacron" unicode="&#x100;" horiz-adv-x="823" 
d="M250 803v139h323v-139h-323zM607 0l-52 119h-287l-52 -119h-212l326 748h163l326 -748h-212zM490 267l-79 182l-78 -182h157z" />
    <glyph glyph-name="amacron" unicode="&#x101;" horiz-adv-x="566" 
d="M132 609v140h323v-140h-323zM282 532q111 0 168.5 -53t57.5 -160v-319h-171v37q-17 -19 -48 -33.5t-78 -14.5q-80 0 -126 38.5t-46 115.5q0 46 19 76.5t51 48.5t73 26t85 10l59 2v27q0 26 -11 37.5t-30 11.5q-26 0 -38 -15.5t-12 -30.5l-182 6q0 35 16 69t46 61t72 43.5
t95 16.5zM279 198q-26 -2 -42 -11t-16 -29q0 -19 11.5 -27.5t29.5 -8.5q24 0 43.5 15t19.5 38v25z" />
    <glyph glyph-name="Abreve" unicode="&#x102;" horiz-adv-x="823" 
d="M615 976q0 -47 -15.5 -82t-42.5 -58t-64.5 -34t-81.5 -11t-81.5 11t-64.5 34t-42 58t-15 82h148q0 -29 15 -44.5t40 -15.5q26 0 41 15.5t15 44.5h148zM607 0l-52 119h-287l-52 -119h-212l326 748h163l326 -748h-212zM490 267l-79 182l-78 -182h157z" />
    <glyph glyph-name="abreve" unicode="&#x103;" horiz-adv-x="566" 
d="M497 774q0 -47 -15.5 -82t-42.5 -58t-64.5 -34t-81.5 -11t-81.5 11t-64.5 34t-42 58t-15 82h148q0 -28 15 -44t40 -16q26 0 41 16t15 44h148zM282 532q111 0 168.5 -53t57.5 -160v-319h-171v37q-17 -19 -48 -33.5t-78 -14.5q-80 0 -126 38.5t-46 115.5q0 46 19 76.5
t51 48.5t73 26t85 10l59 2v27q0 26 -11 37.5t-30 11.5q-26 0 -38 -15.5t-12 -30.5l-182 6q0 35 16 69t46 61t72 43.5t95 16.5zM279 198q-26 -2 -42 -11t-16 -29q0 -19 11.5 -27.5t29.5 -8.5q24 0 43.5 15t19.5 38v25z" />
    <glyph glyph-name="Aogonek" unicode="&#x104;" horiz-adv-x="823" 
d="M667 -99q14 0 24 3t21 8l16 -87q-19 -8 -40 -13.5t-53 -5.5q-28 0 -53 6t-43.5 18t-29 31.5t-10.5 46.5q0 42 27.5 68t72.5 43l-44 100h-287l-52 -119h-212l326 748h163l326 -748h-124q-29 -17 -44.5 -32t-15.5 -38q0 -29 32 -29zM411 449l-78 -182h157z" />
    <glyph glyph-name="aogonek" unicode="&#x105;" horiz-adv-x="566" 
d="M472 0q-29 -17 -44 -32t-15 -37q0 -29 32 -29q14 0 24 3t21 8l16 -87q-19 -8 -40 -13.5t-53 -5.5q-28 0 -53 6t-43.5 18t-29 31.5t-10.5 46.5q0 31 16 53t44 39v36q-17 -19 -48 -33.5t-78 -14.5q-80 0 -126 38.5t-46 115.5q0 46 19 76.5t51 48.5t73 26t85 10l59 2v27
q0 26 -11 37.5t-30 11.5q-26 0 -38 -15.5t-12 -30.5l-182 6q0 35 16 69t46 61t72 43.5t95 16.5q111 0 168.5 -53t57.5 -160v-319h-36zM279 198q-26 -2 -42 -11t-16 -29q0 -19 11.5 -27.5t29.5 -8.5q24 0 43.5 15t19.5 38v25z" />
    <glyph glyph-name="Cacute" unicode="&#x106;" horiz-adv-x="837" 
d="M342 795l116 162h247l-199 -162h-164zM433 759q69 0 130.5 -20t109.5 -57t80 -91t43 -121l-202 -19q-16 70 -59 103.5t-109 33.5q-43 0 -77 -15.5t-58 -43.5t-37 -67.5t-13 -87.5q0 -53 14.5 -93t39 -67t58.5 -40.5t73 -13.5q65 0 109.5 34t58.5 103l202 -17
q-11 -68 -43 -122t-80 -91.5t-109.5 -57.5t-130.5 -20q-84 0 -155.5 26.5t-123 76t-81 121t-29.5 161.5t29.5 161.5t81 121t123 76t155.5 26.5z" />
    <glyph glyph-name="cacute" unicode="&#x107;" horiz-adv-x="601" 
d="M232 600l73 191h206l-137 -191h-142zM313 532q48 0 91 -14t76.5 -40.5t56 -64.5t30.5 -86l-179 -16q-4 29 -23.5 47t-51.5 18q-40 0 -65 -30t-25 -86q0 -55 25 -85t65 -30q32 0 51.5 18t23.5 47l178 -15q-8 -48 -30 -86.5t-55.5 -65t-76.5 -40.5t-91 -14
q-59 0 -109.5 18.5t-87 53.5t-57 85t-20.5 114t20.5 114.5t57 85.5t87 53.5t109.5 18.5z" />
    <glyph glyph-name="Ccircumflex" unicode="&#x108;" horiz-adv-x="837" 
d="M477 795l-52 66l-51 -66h-152l115 170h177l114 -170h-151zM433 759q69 0 130.5 -20t109.5 -57t80 -91t43 -121l-202 -19q-16 70 -59 103.5t-109 33.5q-43 0 -77 -15.5t-58 -43.5t-37 -67.5t-13 -87.5q0 -53 14.5 -93t39 -67t58.5 -40.5t73 -13.5q65 0 109.5 34t58.5 103
l202 -17q-11 -68 -43 -122t-80 -91.5t-109.5 -57.5t-130.5 -20q-84 0 -155.5 26.5t-123 76t-81 121t-29.5 161.5t29.5 161.5t81 121t123 76t155.5 26.5z" />
    <glyph glyph-name="ccircumflex" unicode="&#x109;" horiz-adv-x="601" 
d="M357 600l-52 65l-51 -65h-152l115 182h177l114 -182h-151zM313 532q48 0 91 -14t76.5 -40.5t56 -64.5t30.5 -86l-179 -16q-4 29 -23.5 47t-51.5 18q-40 0 -65 -30t-25 -86q0 -55 25 -85t65 -30q32 0 51.5 18t23.5 47l178 -15q-8 -48 -30 -86.5t-55.5 -65t-76.5 -40.5
t-91 -14q-59 0 -109.5 18.5t-87 53.5t-57 85t-20.5 114t20.5 114.5t57 85.5t87 53.5t109.5 18.5z" />
    <glyph glyph-name="Cdotaccent" unicode="&#x10a;" horiz-adv-x="837" 
d="M424 1003q22 0 42 -8.5t34 -23t22.5 -34t8.5 -41.5t-8.5 -41t-22.5 -33.5t-34 -22.5t-42 -8q-45 0 -75 30t-30 75q0 22 8.5 41.5t22.5 34t33.5 23t40.5 8.5zM433 759q69 0 130.5 -20t109.5 -57t80 -91t43 -121l-202 -19q-16 70 -59 103.5t-109 33.5q-43 0 -77 -15.5
t-58 -43.5t-37 -67.5t-13 -87.5q0 -53 14.5 -93t39 -67t58.5 -40.5t73 -13.5q65 0 109.5 34t58.5 103l202 -17q-11 -68 -43 -122t-80 -91.5t-109.5 -57.5t-130.5 -20q-84 0 -155.5 26.5t-123 76t-81 121t-29.5 161.5t29.5 161.5t81 121t123 76t155.5 26.5z" />
    <glyph glyph-name="cdotaccent" unicode="&#x10b;" horiz-adv-x="601" 
d="M305 789q22 0 42 -8.5t34 -23t22.5 -34t8.5 -41.5t-8.5 -41t-22.5 -33.5t-34 -22.5t-42 -8q-45 0 -75 30t-30 75q0 22 8.5 41.5t22.5 34t33.5 23t40.5 8.5zM313 532q48 0 91 -14t76.5 -40.5t56 -64.5t30.5 -86l-179 -16q-4 29 -23.5 47t-51.5 18q-40 0 -65 -30t-25 -86
q0 -55 25 -85t65 -30q32 0 51.5 18t23.5 47l178 -15q-8 -48 -30 -86.5t-55.5 -65t-76.5 -40.5t-91 -14q-59 0 -109.5 18.5t-87 53.5t-57 85t-20.5 114t20.5 114.5t57 85.5t87 53.5t109.5 18.5z" />
    <glyph glyph-name="Ccaron" unicode="&#x10c;" horiz-adv-x="837" 
d="M337 795l-115 170h152l51 -66l52 66h151l-114 -170h-177zM433 759q69 0 130.5 -20t109.5 -57t80 -91t43 -121l-202 -19q-16 70 -59 103.5t-109 33.5q-43 0 -77 -15.5t-58 -43.5t-37 -67.5t-13 -87.5q0 -53 14.5 -93t39 -67t58.5 -40.5t73 -13.5q65 0 109.5 34t58.5 103
l202 -17q-11 -68 -43 -122t-80 -91.5t-109.5 -57.5t-130.5 -20q-84 0 -155.5 26.5t-123 76t-81 121t-29.5 161.5t29.5 161.5t81 121t123 76t155.5 26.5z" />
    <glyph glyph-name="ccaron" unicode="&#x10d;" horiz-adv-x="601" 
d="M217 598l-115 182h152l51 -64l52 64h151l-114 -182h-177zM313 532q48 0 91 -14t76.5 -40.5t56 -64.5t30.5 -86l-179 -16q-4 29 -23.5 47t-51.5 18q-40 0 -65 -30t-25 -86q0 -55 25 -85t65 -30q32 0 51.5 18t23.5 47l178 -15q-8 -48 -30 -86.5t-55.5 -65t-76.5 -40.5
t-91 -14q-59 0 -109.5 18.5t-87 53.5t-57 85t-20.5 114t20.5 114.5t57 85.5t87 53.5t109.5 18.5z" />
    <glyph glyph-name="Dcaron" unicode="&#x10e;" horiz-adv-x="805" 
d="M258 795l-115 170h152l51 -66l52 66h151l-114 -170h-177zM383 748q82 0 151 -25.5t119.5 -73.5t79 -117.5t28.5 -157.5t-28.5 -157.5t-79 -117.5t-119.5 -73.5t-151 -25.5h-317v748h317zM259 166h126q87 0 136 50.5t49 157.5t-49 157.5t-136 50.5h-126v-416z" />
    <glyph glyph-name="dcaron" unicode="&#x10f;" horiz-adv-x="853" 
d="M836 673q-1 -79 -43.5 -142.5t-133.5 -109.5v75q52 31 70 84q-41 4 -68 33.5t-27 71.5q0 22 7.5 41t21.5 33.5t33 23t42 8.5q47 0 72.5 -33t25.5 -84v-1zM599 777v-777h-172v34q-20 -17 -54 -31t-83 -14q-56 0 -102 20t-79 55.5t-51.5 85.5t-18.5 110t18.5 110t51.5 86
t79 56t102 20q42 0 74.5 -10.5t52.5 -25.5v281h182zM417 270q0 48 -26 77t-70 29q-45 0 -71.5 -30t-26.5 -86q0 -55 26.5 -85t71.5 -30q44 0 70 29t26 77v19z" />
    <glyph glyph-name="Dcroat" unicode="&#x110;" horiz-adv-x="812" 
d="M399 748q82 0 151 -25.5t119.5 -73.5t79 -117.5t28.5 -157.5t-28.5 -157.5t-79 -117.5t-119.5 -73.5t-151 -25.5h-317v300h-71v147h71v301h317zM401 166q87 0 135.5 50.5t48.5 157.5t-48.5 157.5t-135.5 50.5h-126v-135h84v-147h-84v-134h126z" />
    <glyph glyph-name="dcroat" unicode="&#x111;" horiz-adv-x="663" 
d="M599 586v-586h-172v34q-20 -17 -54 -31t-83 -14q-56 0 -102 20t-79 55.5t-51.5 85.5t-18.5 110t18.5 110t51.5 86t79 56t102 20q42 0 74.5 -10.5t52.5 -25.5v90h-77v140h77v51h182v-51h64v-140h-64zM417 270q0 48 -26 77t-70 29q-45 0 -71.5 -30t-26.5 -86
q0 -55 26.5 -85t71.5 -30q44 0 70 29t26 77v19z" />
    <glyph glyph-name="Emacron" unicode="&#x112;" horiz-adv-x="608" 
d="M154 803v139h323v-139h-323zM259 577v-112h254v-167h-254v-127h298v-171h-491v748h490v-171h-297z" />
    <glyph glyph-name="emacron" unicode="&#x113;" horiz-adv-x="603" 
d="M144 609v140h323v-140h-323zM233 211q0 -35 17.5 -58.5t58.5 -23.5q53 0 67 40l183 -9q-6 -40 -28 -71.5t-55 -53.5t-74.5 -34t-87.5 -12q-62 0 -112.5 19t-86.5 54t-56 85t-20 113t19.5 113t55.5 85.5t85.5 54.5t109.5 19q57 0 103.5 -17.5t80.5 -50.5t52.5 -82
t18.5 -112v-59h-331zM307 398q-34 0 -53 -21.5t-21 -58.5h147q-2 37 -19.5 58.5t-53.5 21.5z" />
    <glyph glyph-name="Ebreve" unicode="&#x114;" horiz-adv-x="608" 
d="M519 976q0 -47 -15.5 -82t-42.5 -58t-64.5 -34t-81.5 -11t-81.5 11t-64.5 34t-42 58t-15 82h148q0 -29 15 -44.5t40 -15.5q26 0 41 15.5t15 44.5h148zM259 577v-112h254v-167h-254v-127h298v-171h-491v748h490v-171h-297z" />
    <glyph glyph-name="ebreve" unicode="&#x115;" horiz-adv-x="603" 
d="M305 589q-44 0 -81.5 11t-64.5 34t-42 58t-15 82h148q0 -28 15 -44t40 -16q26 0 41 16t15 44h148q0 -47 -15.5 -82t-42.5 -58t-64.5 -34t-81.5 -11zM233 211q0 -35 17.5 -58.5t58.5 -23.5q53 0 67 40l183 -9q-6 -40 -28 -71.5t-55 -53.5t-74.5 -34t-87.5 -12
q-62 0 -112.5 19t-86.5 54t-56 85t-20 113t19.5 113t55.5 85.5t85.5 54.5t109.5 19q57 0 103.5 -17.5t80.5 -50.5t52.5 -82t18.5 -112v-59h-331zM307 398q-34 0 -53 -21.5t-21 -58.5h147q-2 37 -19.5 58.5t-53.5 21.5z" />
    <glyph glyph-name="Edotaccent" unicode="&#x116;" horiz-adv-x="608" 
d="M315 1003q22 0 42 -8.5t34 -23t22.5 -34t8.5 -41.5t-8.5 -41t-22.5 -33.5t-34 -22.5t-42 -8q-45 0 -75 30t-30 75q0 22 8.5 41.5t22.5 34t33.5 23t40.5 8.5zM259 577v-112h254v-167h-254v-127h298v-171h-491v748h490v-171h-297z" />
    <glyph glyph-name="edotaccent" unicode="&#x117;" horiz-adv-x="603" 
d="M305 577q-45 0 -75 30t-30 75q0 22 8.5 41.5t22.5 34t33.5 23t40.5 8.5q22 0 42 -8.5t34 -23t22.5 -34t8.5 -41.5t-8.5 -41t-22.5 -33.5t-34 -22.5t-42 -8zM233 211q0 -35 17.5 -58.5t58.5 -23.5q53 0 67 40l183 -9q-6 -40 -28 -71.5t-55 -53.5t-74.5 -34t-87.5 -12
q-62 0 -112.5 19t-86.5 54t-56 85t-20 113t19.5 113t55.5 85.5t85.5 54.5t109.5 19q57 0 103.5 -17.5t80.5 -50.5t52.5 -82t18.5 -112v-59h-331zM307 398q-34 0 -53 -21.5t-21 -58.5h147q-2 37 -19.5 58.5t-53.5 21.5z" />
    <glyph glyph-name="Eogonek" unicode="&#x118;" horiz-adv-x="608" 
d="M589 -175q-19 -8 -40 -13.5t-53 -5.5q-28 0 -53 6t-43.5 18t-29 31.5t-10.5 46.5q0 31 16 53t44 39h-354v748h490v-171h-297v-112h254v-167h-254v-127h298v-169l1 -1l-1 -1h-1q-29 -17 -44.5 -32t-15.5 -38q0 -29 32 -29q14 0 24 3t21 8z" />
    <glyph glyph-name="eogonek" unicode="&#x119;" horiz-adv-x="603" 
d="M233 211q0 -35 17.5 -58.5t58.5 -23.5q53 0 67 40l183 -9q-10 -62 -55 -103t-110 -58q-28 -17 -43 -32t-15 -37q0 -29 32 -29q14 0 24 3t21 8l16 -87q-19 -8 -40 -13.5t-53 -5.5q-28 0 -53 6t-43.5 18t-29 31.5t-10.5 46.5q0 29 14 49.5t37 36.5q-97 18 -154.5 87.5
t-57.5 178.5q0 63 19.5 113t55.5 85.5t85.5 54.5t109.5 19q57 0 103.5 -17.5t80.5 -50.5t52.5 -82t18.5 -112v-59h-331zM307 398q-34 0 -53 -21.5t-21 -58.5h147q-2 37 -19.5 58.5t-53.5 21.5z" />
    <glyph glyph-name="Ecaron" unicode="&#x11a;" horiz-adv-x="608" 
d="M227 795l-115 170h152l51 -66l52 66h151l-114 -170h-177zM259 577v-112h254v-167h-254v-127h298v-171h-491v748h490v-171h-297z" />
    <glyph glyph-name="ecaron" unicode="&#x11b;" horiz-adv-x="603" 
d="M102 780h152l51 -64l52 64h151l-114 -182h-177zM233 211q0 -35 17.5 -58.5t58.5 -23.5q53 0 67 40l183 -9q-6 -40 -28 -71.5t-55 -53.5t-74.5 -34t-87.5 -12q-62 0 -112.5 19t-86.5 54t-56 85t-20 113t19.5 113t55.5 85.5t85.5 54.5t109.5 19q57 0 103.5 -17.5
t80.5 -50.5t52.5 -82t18.5 -112v-59h-331zM307 398q-34 0 -53 -21.5t-21 -58.5h147q-2 37 -19.5 58.5t-53.5 21.5z" />
    <glyph glyph-name="Gcircumflex" unicode="&#x11c;" horiz-adv-x="843" 
d="M222 795l115 170h177l114 -170h-151l-52 66l-51 -66h-152zM796 364q0 -83 -25 -151.5t-72 -118.5t-114.5 -77.5t-151.5 -27.5t-155.5 26.5t-123 76t-81 121t-29.5 161.5t29.5 161.5t81 121t123 76t155.5 26.5q65 0 122.5 -16.5t103 -48.5t79 -79t50.5 -108l-200 -33
q-17 53 -55 83.5t-102 30.5q-89 0 -139.5 -52t-50.5 -162t50.5 -162t139.5 -52q49 0 89 21t60 74h-149v171h365v-62z" />
    <glyph glyph-name="gcircumflex" unicode="&#x11d;" horiz-adv-x="650" 
d="M371 600l-52 65l-51 -65h-152l115 182h177l114 -182h-151zM290 532q49 0 83 -14t54 -31v34h172v-534q0 -57 -19 -103.5t-54.5 -79.5t-86 -51t-112.5 -18q-66 0 -115 15t-83 42.5t-53.5 66t-26.5 85.5l182 6q2 -28 24.5 -44.5t64.5 -16.5q45 0 71 20.5t26 64.5v51
q-20 -15 -52.5 -25.5t-74.5 -10.5q-56 0 -102 20t-79 55.5t-51.5 85.5t-18.5 110t18.5 110t51.5 86t79 56t102 20zM321 376q-45 0 -71.5 -30t-26.5 -86q0 -55 26.5 -85t71.5 -30q44 0 70 29t26 77v19q0 48 -26 77t-70 29z" />
    <glyph glyph-name="Gbreve" unicode="&#x11e;" horiz-adv-x="843" 
d="M425 791q-44 0 -81.5 11t-64.5 34t-42 58t-15 82h148q0 -29 15 -44.5t40 -15.5q26 0 41 15.5t15 44.5h148q0 -47 -15.5 -82t-42.5 -58t-64.5 -34t-81.5 -11zM796 364q0 -83 -25 -151.5t-72 -118.5t-114.5 -77.5t-151.5 -27.5t-155.5 26.5t-123 76t-81 121t-29.5 161.5
t29.5 161.5t81 121t123 76t155.5 26.5q65 0 122.5 -16.5t103 -48.5t79 -79t50.5 -108l-200 -33q-17 53 -55 83.5t-102 30.5q-89 0 -139.5 -52t-50.5 -162t50.5 -162t139.5 -52q49 0 89 21t60 74h-149v171h365v-62z" />
    <glyph glyph-name="gbreve" unicode="&#x11f;" horiz-adv-x="650" 
d="M523 774q0 -47 -15.5 -82t-42.5 -58t-64.5 -34t-81.5 -11t-81.5 11t-64.5 34t-42 58t-15 82h148q0 -28 15 -44t40 -16q26 0 41 16t15 44h148zM290 532q49 0 83 -14t54 -31v34h172v-534q0 -57 -19 -103.5t-54.5 -79.5t-86 -51t-112.5 -18q-66 0 -115 15t-83 42.5t-53.5 66
t-26.5 85.5l182 6q2 -28 24.5 -44.5t64.5 -16.5q45 0 71 20.5t26 64.5v51q-20 -15 -52.5 -25.5t-74.5 -10.5q-56 0 -102 20t-79 55.5t-51.5 85.5t-18.5 110t18.5 110t51.5 86t79 56t102 20zM321 376q-45 0 -71.5 -30t-26.5 -86q0 -55 26.5 -85t71.5 -30q44 0 70 29t26 77v19
q0 48 -26 77t-70 29z" />
    <glyph glyph-name="Gdotaccent" unicode="&#x120;" horiz-adv-x="843" 
d="M425 791q-45 0 -75 30t-30 75q0 22 8.5 41.5t22.5 34t33.5 23t40.5 8.5q22 0 42 -8.5t34 -23t22.5 -34t8.5 -41.5t-8.5 -41t-22.5 -33.5t-34 -22.5t-42 -8zM796 364q0 -83 -25 -151.5t-72 -118.5t-114.5 -77.5t-151.5 -27.5t-155.5 26.5t-123 76t-81 121t-29.5 161.5
t29.5 161.5t81 121t123 76t155.5 26.5q65 0 122.5 -16.5t103 -48.5t79 -79t50.5 -108l-200 -33q-17 53 -55 83.5t-102 30.5q-89 0 -139.5 -52t-50.5 -162t50.5 -162t139.5 -52q49 0 89 21t60 74h-149v171h365v-62z" />
    <glyph glyph-name="gdotaccent" unicode="&#x121;" horiz-adv-x="650" 
d="M319 789q22 0 42 -8.5t34 -23t22.5 -34t8.5 -41.5t-8.5 -41t-22.5 -33.5t-34 -22.5t-42 -8q-45 0 -75 30t-30 75q0 22 8.5 41.5t22.5 34t33.5 23t40.5 8.5zM290 532q49 0 83 -14t54 -31v34h172v-534q0 -57 -19 -103.5t-54.5 -79.5t-86 -51t-112.5 -18q-66 0 -115 15
t-83 42.5t-53.5 66t-26.5 85.5l182 6q2 -28 24.5 -44.5t64.5 -16.5q45 0 71 20.5t26 64.5v51q-20 -15 -52.5 -25.5t-74.5 -10.5q-56 0 -102 20t-79 55.5t-51.5 85.5t-18.5 110t18.5 110t51.5 86t79 56t102 20zM321 376q-45 0 -71.5 -30t-26.5 -86q0 -55 26.5 -85t71.5 -30
q44 0 70 29t26 77v19q0 48 -26 77t-70 29z" />
    <glyph glyph-name="Gcommaaccent" unicode="&#x122;" horiz-adv-x="843" 
d="M796 364q0 -83 -25 -151.5t-72 -118.5t-114.5 -77.5t-151.5 -27.5t-155.5 26.5t-123 76t-81 121t-29.5 161.5t29.5 161.5t81 121t123 76t155.5 26.5q65 0 122.5 -16.5t103 -48.5t79 -79t50.5 -108l-200 -33q-17 53 -55 83.5t-102 30.5q-89 0 -139.5 -52t-50.5 -162
t50.5 -162t139.5 -52q49 0 89 21t60 74h-149v171h365v-62zM428 -49q47 0 72.5 -32.5t25.5 -83.5v-1v-1q-1 -79 -43.5 -142.5t-133.5 -109.5v75q52 31 70 84q-41 4 -68 33t-27 71q0 22 7.5 41.5t21.5 34t33 23t42 8.5z" />
    <glyph glyph-name="gcommaaccent" unicode="&#x123;" horiz-adv-x="650" 
d="M324 727q-41 4 -68 33.5t-27 71.5q0 22 7.5 41t21.5 33.5t33 23t42 8.5q47 0 72.5 -32.5t25.5 -83.5v-1v-1q-1 -79 -43.5 -142.5t-133.5 -109.5v75q52 31 70 84zM599 -13q0 -57 -19 -103.5t-54.5 -79.5t-86 -51t-112.5 -18q-66 0 -115 15t-83 42.5t-53.5 66t-26.5 85.5
l182 6q2 -28 24.5 -44.5t64.5 -16.5q45 0 71 20.5t26 64.5v51q-20 -15 -52.5 -25.5t-74.5 -10.5q-56 0 -102 20t-79 55.5t-51.5 85.5t-18.5 110t18.5 110t51.5 86t79 56t102 20q49 0 83 -14t54 -31v34h172v-534zM417 270q0 48 -26 77t-70 29q-45 0 -71.5 -30t-26.5 -86
q0 -55 26.5 -85t71.5 -30q44 0 70 29t26 77v19z" />
    <glyph glyph-name="Hcircumflex" unicode="&#x124;" horiz-adv-x="768" 
d="M436 795l-52 66l-51 -66h-152l115 170h177l114 -170h-151zM509 0v296h-250v-296h-193v748h193v-281h250v281h193v-748h-193z" />
    <glyph glyph-name="hcircumflex" unicode="&#x125;" horiz-adv-x="625" 
d="M208 803l-51 67l-51 -67h-152l114 171h177l115 -171h-152zM245 492q16 14 43.5 27t74.5 13q91 0 147 -53t56 -154v-325h-182v281q0 81 -68 81q-32 0 -51.5 -21t-19.5 -61v-280h-182v777h182v-285z" />
    <glyph glyph-name="Hbar" unicode="&#x126;" horiz-adv-x="789" 
d="M712 532v-532h-192v296h-251v-296h-192v532h-67v146h67v70h192v-70h251v70h192v-70h67v-146h-67zM269 532v-65h251v65h-251z" />
    <glyph glyph-name="hbar" unicode="&#x127;" horiz-adv-x="625" 
d="M363 532q91 0 147 -53t56 -154v-325h-182v281q0 81 -68 81q-32 0 -51.5 -21t-19.5 -61v-280h-182v586h-60v140h60v51h182v-51h80v-140h-80v-94q16 14 43.5 27t74.5 13z" />
    <glyph glyph-name="Itilde" unicode="&#x128;" horiz-adv-x="325" 
d="M92 974q24 0 42 -7.5t32.5 -17t28 -17t28.5 -7.5q20 0 28.5 11t8.5 31h102q3 -35 -3.5 -67t-22 -57t-39 -40t-53.5 -15q-25 0 -43 8t-33 17t-28 17t-27 8q-21 0 -29 -11.5t-8 -31.5h-102q-3 35 3.5 67.5t21.5 57t38.5 39.5t54.5 15zM66 0v748h193v-748h-193z" />
    <glyph glyph-name="itilde" unicode="&#x129;" 
d="M82 776q24 0 42 -7.5t32.5 -17t28 -17t28.5 -7.5q20 0 28.5 11.5t8.5 30.5h102q3 -35 -3.5 -67t-22 -56.5t-39 -39.5t-53.5 -15q-25 0 -43 7.5t-33 17t-28 17t-27 7.5q-21 0 -29 -11.5t-8 -30.5h-102q-3 34 3.5 66.5t21.5 57t38.5 39.5t54.5 15zM63 0v521h182v-521h-182z
" />
    <glyph glyph-name="Imacron" unicode="&#x12a;" horiz-adv-x="325" 
d="M7 803v139h323v-139h-323zM66 0v748h193v-748h-193z" />
    <glyph glyph-name="imacron" unicode="&#x12b;" 
d="M-4 609v140h323v-140h-323zM63 0v521h182v-521h-182z" />
    <glyph glyph-name="Ibreve" unicode="&#x12c;" horiz-adv-x="325" 
d="M372 976q0 -47 -15.5 -82t-42.5 -58t-64.5 -34t-81.5 -11t-81.5 11t-64.5 34t-42 58t-15 82h148q0 -29 15 -44.5t40 -15.5q26 0 41 15.5t15 44.5h148zM66 0v748h193v-748h-193z" />
    <glyph glyph-name="ibreve" unicode="&#x12d;" 
d="M362 774q0 -47 -15.5 -82t-42.5 -58t-64.5 -34t-81.5 -11t-81.5 11t-64.5 34t-42 58t-15 82h148q0 -28 15 -44t40 -16q26 0 41 16t15 44h148zM63 0v521h182v-521h-182z" />
    <glyph glyph-name="Iogonek" unicode="&#x12e;" horiz-adv-x="325" 
d="M182 0q-29 -17 -44 -32t-15 -37q0 -29 32 -29q14 0 24 3t21 8l16 -87q-19 -8 -40 -13.5t-53 -5.5q-28 0 -53 6t-43.5 18t-29 31.5t-10.5 46.5q0 36 21.5 60.5t57.5 41.5v737h193v-748h-77z" />
    <glyph glyph-name="iogonek" unicode="&#x12f;" 
d="M157 577q-45 0 -75 30t-30 75q0 22 8.5 41.5t22.5 34t33.5 23t40.5 8.5q22 0 42 -8.5t34 -23t22.5 -34t8.5 -41.5t-8.5 -41t-22.5 -33.5t-34 -22.5t-42 -8zM245 521v-521h-46q-29 -17 -44 -32t-15 -37q0 -29 32 -29q14 0 24 3t21 8l16 -87q-19 -8 -40 -13.5t-53 -5.5
q-28 0 -53 6t-43.5 18t-29 31.5t-10.5 46.5q0 31 16 53t43 38v521h182z" />
    <glyph glyph-name="Idotaccent" unicode="&#x130;" horiz-adv-x="325" 
d="M168 1003q22 0 42 -8.5t34 -23t22.5 -34t8.5 -41.5t-8.5 -41t-22.5 -33.5t-34 -22.5t-42 -8q-45 0 -75 30t-30 75q0 22 8.5 41.5t22.5 34t33.5 23t40.5 8.5zM66 0v748h193v-748h-193z" />
    <glyph glyph-name="dotlessi" unicode="&#x131;" 
d="M63 0v521h182v-521h-182z" />
    <glyph glyph-name="Jcircumflex" unicode="&#x134;" horiz-adv-x="635" 
d="M539 795l-52 66l-51 -66h-152l115 170h177l114 -170h-151zM574 285q0 -69 -19 -124t-55.5 -93.5t-89 -58.5t-118.5 -20q-60 0 -109 17.5t-85 51t-57.5 82.5t-25.5 112l193 32q4 -58 25 -91t61 -33q87 0 87 118v470h193v-463z" />
    <glyph glyph-name="jcircumflex" unicode="&#x135;" 
d="M204 600l-52 65l-51 -65h-152l115 182h177l114 -182h-151zM245 -35q0 -61 -16.5 -104.5t-45.5 -71.5t-68.5 -41.5t-85.5 -13.5q-52 0 -90.5 11.5t-64.5 29.5l73 149q11 -10 25.5 -20t37.5 -10q53 0 53 61v566h182v-556z" />
    <glyph glyph-name="Kcommaaccent" unicode="&#x136;" horiz-adv-x="749" 
d="M521 0l-169 293l-93 -116v-177h-193v748h193v-280l214 280h248l-241 -298l262 -450h-221zM383 -44q47 0 72.5 -32.5t25.5 -83.5v-1v-1q-1 -79 -43.5 -142.5t-133.5 -109.5v75q52 31 70 84q-41 4 -68 33t-27 71q0 22 7.5 41.5t21.5 34t33 23t42 8.5z" />
    <glyph glyph-name="kcommaaccent" unicode="&#x137;" horiz-adv-x="609" 
d="M63 0v777h182v-415l131 159h222l-183 -220l190 -301h-215l-104 164l-41 -47v-117h-182zM311 -44q47 0 72.5 -32.5t25.5 -83.5v-1v-1q-1 -79 -43.5 -142.5t-133.5 -109.5v75q52 31 70 84q-41 4 -68 33t-27 71q0 22 7.5 41.5t21.5 34t33 23t42 8.5z" />
    <glyph glyph-name="Lacute" unicode="&#x139;" horiz-adv-x="591" 
d="M87 795l116 162h247l-199 -162h-164zM556 171v-171h-490v748h193v-577h297z" />
    <glyph glyph-name="lacute" unicode="&#x13a;" 
d="M79 814l116 162h247l-199 -162h-164zM63 0v777h182v-777h-182z" />
    <glyph glyph-name="Lcommaaccent" unicode="&#x13b;" horiz-adv-x="591" 
d="M556 0h-490v748h193v-577h297v-171zM319 -44q47 0 72.5 -32.5t25.5 -83.5v-1v-1q-1 -79 -43.5 -142.5t-133.5 -109.5v75q52 31 70 84q-41 4 -68 33t-27 71q0 22 7.5 41.5t21.5 34t33 23t42 8.5z" />
    <glyph glyph-name="lcommaaccent" unicode="&#x13c;" 
d="M63 0v777h182v-777h-182zM254 -162q-1 -79 -43.5 -142.5t-133.5 -109.5v75q52 31 70 84q-41 4 -68 33t-27 71q0 22 7.5 41.5t21.5 34t33 23t42 8.5q47 0 72.5 -33t25.5 -84v-1z" />
    <glyph glyph-name="Lcaron" unicode="&#x13d;" horiz-adv-x="591" 
d="M613 673q-1 -79 -43.5 -142.5t-133.5 -109.5v75q52 31 70 84q-41 4 -68 33.5t-27 71.5q0 22 7.5 41t21.5 33.5t33 23t42 8.5q47 0 72.5 -33t25.5 -84v-1zM556 171v-171h-490v748h193v-577h297z" />
    <glyph glyph-name="lcaron" unicode="&#x13e;" horiz-adv-x="500" 
d="M490 673q-1 -79 -43.5 -142.5t-133.5 -109.5v75q52 31 70 84q-41 4 -68 33.5t-27 71.5q0 22 7.5 41t21.5 33.5t33 23t42 8.5q47 0 72.5 -33t25.5 -84v-1zM245 777v-777h-182v777h182z" />
    <glyph glyph-name="Ldot" unicode="&#x13f;" horiz-adv-x="591" 
d="M556 171v-171h-490v748h193v-577h297zM472 537q22 0 41.5 -8.5t33.5 -23t22.5 -33.5t8.5 -41q0 -23 -8.5 -42t-22.5 -33.5t-33.5 -22.5t-41.5 -8t-41.5 8t-33.5 22.5t-22.5 33.5t-8.5 42q0 22 8.5 41t22.5 33.5t33.5 23t41.5 8.5z" />
    <glyph glyph-name="ldot" unicode="&#x140;" horiz-adv-x="517" 
d="M63 0v777h182v-777h-182zM387 447q22 0 41.5 -8.5t33.5 -23t22.5 -33.5t8.5 -41q0 -23 -8.5 -42t-22.5 -33.5t-33.5 -22.5t-41.5 -8t-41.5 8t-33.5 22.5t-22.5 33.5t-8.5 42q0 22 8.5 41t22.5 33.5t33.5 23t41.5 8.5z" />
    <glyph glyph-name="Lslash" unicode="&#x141;" horiz-adv-x="601" 
d="M566 0h-490v282l-62 -8l-20 146l82 11v317h193v-292l73 9l20 -146l-93 -12v-136h297v-171z" />
    <glyph glyph-name="lslash" unicode="&#x142;" horiz-adv-x="334" 
d="M261 0h-183v211l-66 -14l-32 144l98 21v415h183v-375l62 13l32 -143l-94 -21v-251z" />
    <glyph glyph-name="Nacute" unicode="&#x143;" horiz-adv-x="773" 
d="M293 795l116 162h247l-199 -162h-164zM542 0l-283 392v-392h-193v748h164l284 -394v394h193v-748h-165z" />
    <glyph glyph-name="nacute" unicode="&#x144;" horiz-adv-x="624" 
d="M251 600l73 191h206l-137 -191h-142zM363 532q91 0 147 -53t56 -154v-325h-182v281q0 81 -68 81q-32 0 -51.5 -21t-19.5 -61v-280h-182v521h172v-36q15 19 47 33t81 14z" />
    <glyph glyph-name="Ncommaaccent" unicode="&#x145;" horiz-adv-x="773" 
d="M707 0h-165l-283 392v-392h-193v748h164l284 -394v394h193v-748zM406 -44q47 0 72.5 -32.5t25.5 -83.5v-1v-1q-1 -79 -43.5 -142.5t-133.5 -109.5v75q52 31 70 84q-41 4 -68 33t-27 71q0 22 7.5 41.5t21.5 34t33 23t42 8.5z" />
    <glyph glyph-name="ncommaaccent" unicode="&#x146;" horiz-adv-x="624" 
d="M363 532q91 0 147 -53t56 -154v-325h-182v281q0 81 -68 81q-32 0 -51.5 -21t-19.5 -61v-280h-182v521h172v-36q15 19 47 33t81 14zM315 -44q47 0 72.5 -32.5t25.5 -83.5v-1v-1q-1 -79 -43.5 -142.5t-133.5 -109.5v75q52 31 70 84q-41 4 -68 33t-27 71q0 22 7.5 41.5
t21.5 34t33 23t42 8.5z" />
    <glyph glyph-name="Ncaron" unicode="&#x147;" horiz-adv-x="773" 
d="M288 795l-115 170h152l51 -66l52 66h151l-114 -170h-177zM542 0l-283 392v-392h-193v748h164l284 -394v394h193v-748h-165z" />
    <glyph glyph-name="ncaron" unicode="&#x148;" horiz-adv-x="624" 
d="M236 598l-115 182h152l51 -64l52 64h151l-114 -182h-177zM363 532q91 0 147 -53t56 -154v-325h-182v281q0 81 -68 81q-32 0 -51.5 -21t-19.5 -61v-280h-182v521h172v-36q15 19 47 33t81 14z" />
    <glyph glyph-name="Eng" unicode="&#x14a;" horiz-adv-x="773" 
d="M707 -14q0 -49 -19.5 -92.5t-55.5 -76.5t-88.5 -52.5t-118.5 -19.5v171q89 0 89 119v4l-255 353v-392h-193v748h164l284 -394v394h193v-762z" />
    <glyph glyph-name="eng" unicode="&#x14b;" horiz-adv-x="624" 
d="M363 532q91 0 147 -53t56 -154v-359q0 -51 -17 -93.5t-49.5 -72.5t-78.5 -46.5t-103 -16.5v158q25 0 45.5 19t20.5 48v319q0 81 -68 81q-32 0 -51.5 -21t-19.5 -61v-280h-182v521h172v-36q15 19 47 33t81 14z" />
    <glyph glyph-name="Omacron" unicode="&#x14c;" horiz-adv-x="880" 
d="M280 803v139h323v-139h-323zM441 759q86 0 158.5 -27.5t125 -77.5t82 -121t29.5 -159t-29.5 -159t-82 -121.5t-125 -77.5t-158.5 -27q-87 0 -160 27t-125.5 77.5t-82 121.5t-29.5 159t29.5 159t82 121t125.5 77.5t160 27.5zM441 588q-92 0 -146 -57t-54 -157t54 -157
t146 -57q91 0 144.5 57t53.5 157t-53.5 157t-144.5 57z" />
    <glyph glyph-name="omacron" unicode="&#x14d;" horiz-adv-x="643" 
d="M159 609v140h323v-140h-323zM321 532q62 0 114 -19.5t89.5 -55.5t58.5 -86t21 -111t-21 -111t-58.5 -85.5t-89.5 -55t-114 -19.5t-113.5 19.5t-89 55t-58.5 85.5t-21 111t21 111t58.5 86t89 55.5t113.5 19.5zM321 376q-45 0 -71.5 -30.5t-26.5 -85.5q0 -54 26.5 -84.5
t71.5 -30.5q46 0 72.5 30.5t26.5 84.5q0 55 -26.5 85.5t-72.5 30.5z" />
    <glyph glyph-name="Obreve" unicode="&#x14e;" horiz-adv-x="880" 
d="M645 976q0 -47 -15.5 -82t-42.5 -58t-64.5 -34t-81.5 -11t-81.5 11t-64.5 34t-42 58t-15 82h148q0 -29 15 -44.5t40 -15.5q26 0 41 15.5t15 44.5h148zM441 759q86 0 158.5 -27.5t125 -77.5t82 -121t29.5 -159t-29.5 -159t-82 -121.5t-125 -77.5t-158.5 -27q-87 0 -160 27
t-125.5 77.5t-82 121.5t-29.5 159t29.5 159t82 121t125.5 77.5t160 27.5zM441 588q-92 0 -146 -57t-54 -157t54 -157t146 -57q91 0 144.5 57t53.5 157t-53.5 157t-144.5 57z" />
    <glyph glyph-name="obreve" unicode="&#x14f;" horiz-adv-x="643" 
d="M524 774q0 -47 -15.5 -82t-42.5 -58t-64.5 -34t-81.5 -11t-81.5 11t-64.5 34t-42 58t-15 82h148q0 -28 15 -44t40 -16q26 0 41 16t15 44h148zM321 532q62 0 114 -19.5t89.5 -55.5t58.5 -86t21 -111t-21 -111t-58.5 -85.5t-89.5 -55t-114 -19.5t-113.5 19.5t-89 55
t-58.5 85.5t-21 111t21 111t58.5 86t89 55.5t113.5 19.5zM321 376q-45 0 -71.5 -30.5t-26.5 -85.5q0 -54 26.5 -84.5t71.5 -30.5q46 0 72.5 30.5t26.5 84.5q0 55 -26.5 85.5t-72.5 30.5z" />
    <glyph glyph-name="Ohungarumlaut" unicode="&#x150;" horiz-adv-x="880" 
d="M253 798l62 182h172l-92 -182h-142zM475 798l62 182h172l-92 -182h-142zM441 759q86 0 158.5 -27.5t125 -77.5t82 -121t29.5 -159t-29.5 -159t-82 -121.5t-125 -77.5t-158.5 -27q-87 0 -160 27t-125.5 77.5t-82 121.5t-29.5 159t29.5 159t82 121t125.5 77.5t160 27.5z
M441 588q-92 0 -146 -57t-54 -157t54 -157t146 -57q91 0 144.5 57t53.5 157t-53.5 157t-144.5 57z" />
    <glyph glyph-name="ohungarumlaut" unicode="&#x151;" horiz-adv-x="643" 
d="M137 600l62 193h172l-92 -193h-142zM359 600l62 193h172l-92 -193h-142zM321 532q62 0 114 -19.5t89.5 -55.5t58.5 -86t21 -111t-21 -111t-58.5 -85.5t-89.5 -55t-114 -19.5t-113.5 19.5t-89 55t-58.5 85.5t-21 111t21 111t58.5 86t89 55.5t113.5 19.5zM321 376
q-45 0 -71.5 -30.5t-26.5 -85.5q0 -54 26.5 -84.5t71.5 -30.5q46 0 72.5 30.5t26.5 84.5q0 55 -26.5 85.5t-72.5 30.5z" />
    <glyph glyph-name="OE" unicode="&#x152;" horiz-adv-x="1181" 
d="M1130 0h-491v33q-43 -21 -92.5 -32.5t-105.5 -11.5q-87 0 -160 27t-125.5 77.5t-82 121.5t-29.5 159t29.5 159t82 121t125.5 77.5t160 27.5q56 0 105.5 -11.5t92.5 -32.5v33h490v-171h-297v-112h254v-167h-254v-127h298v-171zM441 160q91 0 144.5 57t53.5 157t-53.5 157
t-144.5 57q-92 0 -146 -57t-54 -157t54 -157t146 -57z" />
    <glyph glyph-name="oe" unicode="&#x153;" horiz-adv-x="984" 
d="M614 211q0 -35 17.5 -58.5t58.5 -23.5q53 0 66 40l184 -9q-6 -40 -28 -71.5t-55 -53.5t-75 -34t-88 -12q-57 0 -103.5 16t-81.5 45q-37 -29 -84.5 -45t-103.5 -16q-62 0 -113.5 19.5t-89 55t-58.5 85.5t-21 111t21 111t58.5 86t89 55.5t113.5 19.5q56 0 103.5 -16
t83.5 -45q35 29 81 45t101 16q57 0 103.5 -17.5t80.5 -50.5t52.5 -82t18.5 -112v-59h-331zM688 398q-34 0 -53 -21.5t-21 -58.5h146q-2 37 -19.5 58.5t-52.5 21.5zM321 145q46 0 72.5 30.5t26.5 84.5q0 55 -26.5 85.5t-72.5 30.5q-45 0 -71.5 -30.5t-26.5 -85.5
q0 -54 26.5 -84.5t71.5 -30.5z" />
    <glyph glyph-name="Racute" unicode="&#x154;" horiz-adv-x="720" 
d="M237 795l116 162h247l-199 -162h-164zM341 250h-82v-250h-193v748h338q57 0 103 -17t78.5 -49t50 -78t17.5 -105q0 -76 -29 -131t-83 -85l151 -283h-218zM381 421q36 0 56 21t20 57t-20 57t-56 21h-122v-156h122z" />
    <glyph glyph-name="racute" unicode="&#x155;" horiz-adv-x="402" 
d="M167 600l73 191h206l-137 -191h-142zM376 350q-60 0 -95.5 -28.5t-35.5 -78.5v-243h-182v521h176v-44q18 20 49 34.5t88 14.5v-176z" />
    <glyph glyph-name="Rcommaaccent" unicode="&#x156;" horiz-adv-x="720" 
d="M474 0l-133 250h-82v-250h-193v748h338q57 0 103 -17t78.5 -49t50 -78t17.5 -105q0 -76 -29 -131t-83 -85l151 -283h-218zM381 421q36 0 56 21t20 57t-20 57t-56 21h-122v-156h122zM364 -44q47 0 72.5 -32.5t25.5 -83.5v-1v-1q-1 -79 -43.5 -142.5t-133.5 -109.5v75
q52 31 70 84q-41 4 -68 33t-27 71q0 22 7.5 41.5t21.5 34t33 23t42 8.5z" />
    <glyph glyph-name="rcommaaccent" unicode="&#x157;" horiz-adv-x="402" 
d="M239 477q18 20 49 34.5t88 14.5v-176q-60 0 -95.5 -28.5t-35.5 -78.5v-243h-182v521h176v-44zM155 -44q47 0 72.5 -32.5t25.5 -83.5v-1v-1q-1 -79 -43.5 -142.5t-133.5 -109.5v75q52 31 70 84q-41 4 -68 33t-27 71q0 22 7.5 41.5t21.5 34t33 23t42 8.5z" />
    <glyph glyph-name="Rcaron" unicode="&#x158;" horiz-adv-x="720" 
d="M117 965h152l51 -66l52 66h151l-114 -170h-177zM341 250h-82v-250h-193v748h338q57 0 103 -17t78.5 -49t50 -78t17.5 -105q0 -76 -29 -131t-83 -85l151 -283h-218zM381 421q36 0 56 21t20 57t-20 57t-56 21h-122v-156h122z" />
    <glyph glyph-name="rcaron" unicode="&#x159;" horiz-adv-x="402" 
d="M152 598l-115 182h152l51 -64l52 64h151l-114 -182h-177zM376 350q-60 0 -95.5 -28.5t-35.5 -78.5v-243h-182v521h176v-44q18 20 49 34.5t88 14.5v-176z" />
    <glyph glyph-name="Sacute" unicode="&#x15a;" horiz-adv-x="668" 
d="M249 795l116 162h247l-199 -162h-164zM328 759q65 0 118 -16.5t91 -48t59 -76.5t22 -102l-197 -10q0 38 -22.5 62t-66.5 24q-36 0 -57.5 -17.5t-21.5 -48.5q0 -14 5.5 -24.5t20 -19t38.5 -16t60 -15.5q55 -15 101.5 -33t80 -44t52 -62t18.5 -86q0 -62 -22.5 -107
t-60.5 -74t-89.5 -42.5t-108.5 -13.5q-68 0 -125 16.5t-98 48.5t-63.5 79t-22.5 109l197 10q-1 -43 30.5 -69.5t81.5 -26.5q38 0 61 14t23 46q0 28 -31 46t-96 35q-51 13 -96.5 29t-79 40.5t-53.5 61.5t-20 92q0 48 17 91.5t50.5 76.5t84.5 52t120 19z" />
    <glyph glyph-name="sacute" unicode="&#x15b;" horiz-adv-x="510" 
d="M174 600l73 191h206l-137 -191h-142zM252 532q107 0 162 -47.5t61 -123.5l-182 -10q1 22 -8.5 37.5t-32.5 15.5q-38 0 -38 -31q0 -20 24 -29t66 -20q37 -10 69.5 -22t55.5 -29.5t36.5 -42t13.5 -60.5q0 -81 -57 -131t-167 -50q-216 0 -231 171l183 10q-1 -22 9 -37.5
t39 -15.5q41 0 41 34q0 7 -2.5 12.5t-11 11t-23 11t-38.5 11.5q-44 11 -78.5 22.5t-59.5 29.5t-38 44.5t-13 67.5q0 80 58.5 125.5t161.5 45.5z" />
    <glyph glyph-name="Scircumflex" unicode="&#x15c;" horiz-adv-x="668" 
d="M384 795l-52 66l-51 -66h-152l115 170h177l114 -170h-151zM328 759q65 0 118 -16.5t91 -48t59 -76.5t22 -102l-197 -10q0 38 -22.5 62t-66.5 24q-36 0 -57.5 -17.5t-21.5 -48.5q0 -14 5.5 -24.5t20 -19t38.5 -16t60 -15.5q55 -15 101.5 -33t80 -44t52 -62t18.5 -86
q0 -62 -22.5 -107t-60.5 -74t-89.5 -42.5t-108.5 -13.5q-68 0 -125 16.5t-98 48.5t-63.5 79t-22.5 109l197 10q-1 -43 30.5 -69.5t81.5 -26.5q38 0 61 14t23 46q0 28 -31 46t-96 35q-51 13 -96.5 29t-79 40.5t-53.5 61.5t-20 92q0 48 17 91.5t50.5 76.5t84.5 52t120 19z" />
    <glyph glyph-name="scircumflex" unicode="&#x15d;" horiz-adv-x="510" 
d="M299 600l-52 65l-51 -65h-152l115 182h177l114 -182h-151zM252 532q107 0 162 -47.5t61 -123.5l-182 -10q1 22 -8.5 37.5t-32.5 15.5q-38 0 -38 -31q0 -20 24 -29t66 -20q37 -10 69.5 -22t55.5 -29.5t36.5 -42t13.5 -60.5q0 -81 -57 -131t-167 -50q-216 0 -231 171
l183 10q-1 -22 9 -37.5t39 -15.5q41 0 41 34q0 7 -2.5 12.5t-11 11t-23 11t-38.5 11.5q-44 11 -78.5 22.5t-59.5 29.5t-38 44.5t-13 67.5q0 80 58.5 125.5t161.5 45.5z" />
    <glyph glyph-name="Scedilla" unicode="&#x15e;" horiz-adv-x="668" 
d="M629 226q0 -59 -20 -102t-54.5 -72t-81 -44t-99.5 -18l-10 -36q21 -1 42 -8.5t37.5 -21.5t27 -34t10.5 -47t-12.5 -47t-33 -32.5t-47 -18.5t-53.5 -6q-37 0 -61 5t-42 14l27 86q9 -5 19.5 -7.5t24.5 -2.5q13 0 27.5 6t14.5 23t-13 24.5t-28 7.5q-24 0 -38 -7l36 103
q-59 5 -107.5 24t-83 50.5t-53.5 76t-19 100.5l197 10q-1 -43 30.5 -69.5t81.5 -26.5q38 0 61 14t23 46q0 28 -31 46t-96 35q-51 13 -96.5 29t-79 40.5t-53.5 61.5t-20 92q0 48 17 91.5t50.5 76.5t84.5 52t120 19q65 0 118 -16.5t91 -48t59 -76.5t22 -102l-197 -10
q0 38 -22.5 62t-66.5 24q-36 0 -57.5 -17.5t-21.5 -48.5q0 -14 5.5 -24.5t20 -19t38.5 -16t60 -15.5q55 -15 101.5 -33t80 -44t52 -62t18.5 -86z" />
    <glyph glyph-name="scedilla" unicode="&#x15f;" horiz-adv-x="510" 
d="M479 170q0 -75 -49 -123.5t-144 -56.5l-10 -36q21 -1 42 -8.5t37.5 -21.5t27 -34t10.5 -47t-12.5 -47t-33 -32.5t-47 -18.5t-53.5 -6q-37 0 -61 5t-42 14l27 86q9 -5 19.5 -7.5t24.5 -2.5q13 0 27.5 6t14.5 23t-13 24.5t-28 7.5q-24 0 -38 -7l36 103q-176 15 -190 169
l183 10q-1 -22 9 -37.5t39 -15.5q41 0 41 34q0 7 -2.5 12.5t-11 11t-23 11t-38.5 11.5q-44 11 -78.5 22.5t-59.5 29.5t-38 44.5t-13 67.5q0 80 58.5 125.5t161.5 45.5q107 0 162 -47.5t61 -123.5l-182 -10q1 22 -8.5 37.5t-32.5 15.5q-38 0 -38 -31q0 -20 24 -29t66 -20
q37 -10 69.5 -22t55.5 -29.5t36.5 -42t13.5 -60.5z" />
    <glyph glyph-name="Scaron" unicode="&#x160;" horiz-adv-x="668" 
d="M244 795l-115 170h152l51 -66l52 66h151l-114 -170h-177zM328 759q65 0 118 -16.5t91 -48t59 -76.5t22 -102l-197 -10q0 38 -22.5 62t-66.5 24q-36 0 -57.5 -17.5t-21.5 -48.5q0 -14 5.5 -24.5t20 -19t38.5 -16t60 -15.5q55 -15 101.5 -33t80 -44t52 -62t18.5 -86
q0 -62 -22.5 -107t-60.5 -74t-89.5 -42.5t-108.5 -13.5q-68 0 -125 16.5t-98 48.5t-63.5 79t-22.5 109l197 10q-1 -43 30.5 -69.5t81.5 -26.5q38 0 61 14t23 46q0 28 -31 46t-96 35q-51 13 -96.5 29t-79 40.5t-53.5 61.5t-20 92q0 48 17 91.5t50.5 76.5t84.5 52t120 19z" />
    <glyph glyph-name="scaron" unicode="&#x161;" horiz-adv-x="510" 
d="M159 598l-115 182h152l51 -64l52 64h151l-114 -182h-177zM252 532q107 0 162 -47.5t61 -123.5l-182 -10q1 22 -8.5 37.5t-32.5 15.5q-38 0 -38 -31q0 -20 24 -29t66 -20q37 -10 69.5 -22t55.5 -29.5t36.5 -42t13.5 -60.5q0 -81 -57 -131t-167 -50q-216 0 -231 171l183 10
q-1 -22 9 -37.5t39 -15.5q41 0 41 34q0 7 -2.5 12.5t-11 11t-23 11t-38.5 11.5q-44 11 -78.5 22.5t-59.5 29.5t-38 44.5t-13 67.5q0 80 58.5 125.5t161.5 45.5z" />
    <glyph glyph-name="Tcaron" unicode="&#x164;" horiz-adv-x="700" 
d="M266 795l-115 170h152l51 -66l52 66h151l-114 -170h-177zM447 577v-577h-193v577h-234v171h660v-171h-233z" />
    <glyph glyph-name="tcaron" unicode="&#x165;" horiz-adv-x="629" 
d="M618 673q-1 -79 -43.5 -142.5t-133.5 -109.5v75q52 31 70 84q-41 4 -68 33.5t-27 71.5q0 22 7.5 41t21.5 33.5t33 23t42 8.5q47 0 72.5 -33t25.5 -84v-1zM398 521v-156h-112l-1 -146q0 -35 22 -51t48 -16q15 0 25 1t18 3v-161q-18 -2 -36.5 -4t-51.5 -2q-47 0 -85 11
t-65.5 33.5t-42 56.5t-14.5 81l1 194h-94v156h95l1 168h182l-1 -168h111z" />
    <glyph glyph-name="Tbar" unicode="&#x166;" horiz-adv-x="700" 
d="M447 420h112v-147h-112v-273h-193v273h-113v147h113v157h-234v171h660v-171h-233v-157z" />
    <glyph glyph-name="tbar" unicode="&#x167;" horiz-adv-x="433" 
d="M286 324h112v-130h-109q8 -22 26.5 -32t39.5 -10q15 0 25 1t18 3v-161q-18 -2 -36.5 -4t-51.5 -2q-47 0 -85 11t-65.5 33.5t-42 56.5t-14.5 81v23h-93v130h94v41h-94v156h95l1 168h182l-1 -168h111v-156h-112v-41z" />
    <glyph glyph-name="Utilde" unicode="&#x168;" horiz-adv-x="785" 
d="M316 974q24 0 42 -7.5t32.5 -17t28 -17t28.5 -7.5q20 0 28.5 11t8.5 31h102q3 -35 -3.5 -67t-22 -57t-39 -40t-53.5 -15q-25 0 -43 8t-33 17t-28 17t-27 8q-21 0 -29 -11.5t-8 -31.5h-102q-3 35 3.5 67.5t21.5 57t38.5 39.5t54.5 15zM723 318q0 -78 -22.5 -139t-65 -103
t-104 -64.5t-138.5 -22.5q-78 0 -139.5 22.5t-104 64.5t-65.5 103t-23 139v430h193v-427q0 -78 34 -119.5t105 -41.5q70 0 104 41.5t34 119.5v427h192v-430z" />
    <glyph glyph-name="utilde" unicode="&#x169;" horiz-adv-x="609" 
d="M228 776q24 0 42 -7.5t32.5 -17t28 -17t28.5 -7.5q20 0 28.5 11.5t8.5 30.5h102q3 -35 -3.5 -67t-22 -56.5t-39 -39.5t-53.5 -15q-25 0 -43 7.5t-33 17t-28 17t-27 7.5q-21 0 -29 -11.5t-8 -30.5h-102q-3 34 3.5 66.5t21.5 57t38.5 39.5t54.5 15zM374 0v36
q-16 -20 -45 -33.5t-77 -13.5q-92 0 -143 50t-51 148v334h182v-289q0 -38 13.5 -55.5t46.5 -17.5q64 0 64 71v291h182v-521h-172z" />
    <glyph glyph-name="Umacron" unicode="&#x16a;" horiz-adv-x="785" 
d="M231 803v139h323v-139h-323zM723 318q0 -78 -22.5 -139t-65 -103t-104 -64.5t-138.5 -22.5q-78 0 -139.5 22.5t-104 64.5t-65.5 103t-23 139v430h193v-427q0 -78 34 -119.5t105 -41.5q70 0 104 41.5t34 119.5v427h192v-430z" />
    <glyph glyph-name="umacron" unicode="&#x16b;" horiz-adv-x="609" 
d="M143 609v140h323v-140h-323zM374 0v36q-16 -20 -45 -33.5t-77 -13.5q-92 0 -143 50t-51 148v334h182v-289q0 -38 13.5 -55.5t46.5 -17.5q64 0 64 71v291h182v-521h-172z" />
    <glyph glyph-name="Ubreve" unicode="&#x16c;" horiz-adv-x="785" 
d="M596 976q0 -47 -15.5 -82t-42.5 -58t-64.5 -34t-81.5 -11t-81.5 11t-64.5 34t-42 58t-15 82h148q0 -29 15 -44.5t40 -15.5q26 0 41 15.5t15 44.5h148zM723 318q0 -78 -22.5 -139t-65 -103t-104 -64.5t-138.5 -22.5q-78 0 -139.5 22.5t-104 64.5t-65.5 103t-23 139v430
h193v-427q0 -78 34 -119.5t105 -41.5q70 0 104 41.5t34 119.5v427h192v-430z" />
    <glyph glyph-name="ubreve" unicode="&#x16d;" horiz-adv-x="609" 
d="M508 774q0 -47 -15.5 -82t-42.5 -58t-64.5 -34t-81.5 -11t-81.5 11t-64.5 34t-42 58t-15 82h148q0 -28 15 -44t40 -16q26 0 41 16t15 44h148zM374 0v36q-16 -20 -45 -33.5t-77 -13.5q-92 0 -143 50t-51 148v334h182v-289q0 -38 13.5 -55.5t46.5 -17.5q64 0 64 71v291h182
v-521h-172z" />
    <glyph glyph-name="Uring" unicode="&#x16e;" horiz-adv-x="785" 
d="M393 1019q25 0 47 -8t38.5 -23t26 -36t9.5 -46t-9.5 -45.5t-26 -35.5t-38.5 -23.5t-47 -8.5q-52 0 -87 31.5t-35 81.5q0 51 35 82t87 31zM393 941q-17 0 -26 -10t-9 -25q0 -14 9 -24t26 -10q16 0 25 10t9 24q0 15 -9 25t-25 10zM723 318q0 -78 -22.5 -139t-65 -103
t-104 -64.5t-138.5 -22.5q-78 0 -139.5 22.5t-104 64.5t-65.5 103t-23 139v430h193v-427q0 -78 34 -119.5t105 -41.5q70 0 104 41.5t34 119.5v427h192v-430z" />
    <glyph glyph-name="uring" unicode="&#x16f;" horiz-adv-x="609" 
d="M305 838q29 0 55 -10t45 -27t30 -41.5t11 -52.5q0 -29 -11 -53t-30 -41.5t-45 -27.5t-55 -10q-30 0 -55.5 10t-45 27.5t-30.5 41.5t-11 53q0 28 11 52.5t30.5 41.5t45 27t55.5 10zM305 745q-18 0 -28.5 -10.5t-10.5 -27.5t10.5 -28t28.5 -11q17 0 27.5 11t10.5 28
t-10.5 27.5t-27.5 10.5zM374 0v36q-16 -20 -45 -33.5t-77 -13.5q-92 0 -143 50t-51 148v334h182v-289q0 -38 13.5 -55.5t46.5 -17.5q64 0 64 71v291h182v-521h-172z" />
    <glyph glyph-name="Uhungarumlaut" unicode="&#x170;" horiz-adv-x="785" 
d="M204 798l62 182h172l-92 -182h-142zM426 798l62 182h172l-92 -182h-142zM723 318q0 -78 -22.5 -139t-65 -103t-104 -64.5t-138.5 -22.5q-78 0 -139.5 22.5t-104 64.5t-65.5 103t-23 139v430h193v-427q0 -78 34 -119.5t105 -41.5q70 0 104 41.5t34 119.5v427h192v-430z
" />
    <glyph glyph-name="uhungarumlaut" unicode="&#x171;" horiz-adv-x="609" 
d="M121 600l62 193h172l-92 -193h-142zM343 600l62 193h172l-92 -193h-142zM374 0v36q-16 -20 -45 -33.5t-77 -13.5q-92 0 -143 50t-51 148v334h182v-289q0 -38 13.5 -55.5t46.5 -17.5q64 0 64 71v291h182v-521h-172z" />
    <glyph glyph-name="Uogonek" unicode="&#x172;" horiz-adv-x="785" 
d="M723 318q0 -130 -61 -212t-173 -107q-28 -17 -42.5 -31.5t-14.5 -36.5q0 -29 32 -29q14 0 24 3t21 8l16 -87q-19 -8 -40 -13.5t-53 -5.5q-28 0 -53 6t-43.5 18t-29 31.5t-10.5 46.5t12 47t34 36q-133 14 -207 98.5t-74 227.5v430h193v-427q0 -78 34 -119.5t105 -41.5
q70 0 104 41.5t34 119.5v427h192v-430z" />
    <glyph glyph-name="uogonek" unicode="&#x173;" horiz-adv-x="609" 
d="M510 0q-29 -17 -44.5 -32t-15.5 -38q0 -29 32 -29q14 0 24 3t21 8l16 -87q-19 -8 -40 -13.5t-53 -5.5q-28 0 -53 6t-43.5 18t-29 31.5t-10.5 46.5q0 31 16 53t44 39v36q-16 -20 -45 -33.5t-77 -13.5q-92 0 -143 50t-51 148v334h182v-289q0 -38 13.5 -55.5t46.5 -17.5
q64 0 64 71v291h182v-521h-36z" />
    <glyph glyph-name="Wcircumflex" unicode="&#x174;" horiz-adv-x="1129" 
d="M617 795l-52 66l-51 -66h-152l115 170h177l114 -170h-151zM698 0l-134 413l-134 -413h-162l-261 748h212l132 -430l134 430h159l133 -430l133 430h212l-261 -748h-163z" />
    <glyph glyph-name="wcircumflex" unicode="&#x175;" horiz-adv-x="862" 
d="M486 600l-52 65l-51 -65h-152l115 182h177l114 -182h-151zM515 0l-83 218l-84 -218h-146l-201 521h203l77 -258l86 258h128l86 -258l77 258h203l-201 -521h-145z" />
    <glyph glyph-name="Ycircumflex" unicode="&#x176;" horiz-adv-x="776" 
d="M440 795l-52 66l-51 -66h-152l115 170h177l114 -170h-151zM485 0h-193v274l-284 474h224l156 -282l156 282h224l-283 -474v-274z" />
    <glyph glyph-name="ycircumflex" unicode="&#x177;" horiz-adv-x="599" 
d="M351 600l-52 65l-51 -65h-152l115 182h177l114 -182h-151zM63 -255l139 312l-201 464h202l97 -260l96 260h202l-336 -776h-199z" />
    <glyph glyph-name="Ydieresis" unicode="&#x178;" horiz-adv-x="776" 
d="M278 980q41 0 68.5 -28t27.5 -68q0 -41 -27.5 -68t-68.5 -27q-40 0 -67.5 27t-27.5 68q0 40 27.5 68t67.5 28zM497 980q41 0 69 -28t28 -68q0 -41 -28 -68t-69 -27q-40 0 -67.5 27t-27.5 68q0 40 27.5 68t67.5 28zM485 0h-193v274l-284 474h224l156 -282l156 282h224
l-283 -474v-274z" />
    <glyph glyph-name="Zacute" unicode="&#x179;" horiz-adv-x="631" 
d="M229 795l116 162h247l-199 -162h-164zM285 171h313v-171h-560v146l301 431h-301v171h549v-146z" />
    <glyph glyph-name="zacute" unicode="&#x17a;" horiz-adv-x="459" 
d="M158 600l73 191h206l-137 -191h-142zM246 147h179v-147h-391v120l176 254h-172v147h382v-120z" />
    <glyph glyph-name="Zdotaccent" unicode="&#x17b;" horiz-adv-x="631" 
d="M312 1003q22 0 42 -8.5t34 -23t22.5 -34t8.5 -41.5t-8.5 -41t-22.5 -33.5t-34 -22.5t-42 -8q-45 0 -75 30t-30 75q0 22 8.5 41.5t22.5 34t33.5 23t40.5 8.5zM285 171h313v-171h-560v146l301 431h-301v171h549v-146z" />
    <glyph glyph-name="zdotaccent" unicode="&#x17c;" horiz-adv-x="459" 
d="M232 789q22 0 42 -8.5t34 -23t22.5 -34t8.5 -41.5t-8.5 -41t-22.5 -33.5t-34 -22.5t-42 -8q-45 0 -75 30t-30 75q0 22 8.5 41.5t22.5 34t33.5 23t40.5 8.5zM246 147h179v-147h-391v120l176 254h-172v147h382v-120z" />
    <glyph glyph-name="Zcaron" unicode="&#x17d;" horiz-adv-x="631" 
d="M224 795l-115 170h152l51 -66l52 66h151l-114 -170h-177zM285 171h313v-171h-560v146l301 431h-301v171h549v-146z" />
    <glyph glyph-name="zcaron" unicode="&#x17e;" horiz-adv-x="459" 
d="M144 598l-115 182h152l51 -64l52 64h151l-114 -182h-177zM246 147h179v-147h-391v120l176 254h-172v147h382v-120z" />
    <glyph glyph-name="florin" unicode="&#x192;" horiz-adv-x="452" 
d="M381 786q54 0 92 -11.5t64 -28.5l-73 -149q-9 11 -25.5 20t-37.5 9q-53 0 -63 -52l-9 -53h109v-151h-136l-91 -512h-186l91 512h-86v151h113l15 83q17 94 77.5 138t145.5 44z" />
    <glyph glyph-name="Aringacute" unicode="&#x1fa;" horiz-adv-x="823" 
d="M423 772q-26 0 -48.5 8.5t-39 23.5t-26 35.5t-9.5 45.5q0 51 35 81l118 123h227l-181 -115q20 -15 32 -37.5t12 -51.5q0 -25 -9.5 -45.5t-25.5 -35.5t-38 -23.5t-47 -8.5zM423 851q15 0 24.5 10t9.5 24q0 15 -9.5 25t-24.5 10q-17 0 -26 -10t-9 -25q0 -14 9 -24t26 -10z
M607 0l-52 119h-287l-52 -119h-212l326 748h163l326 -748h-212zM411 449l-78 -182h157z" />
    <glyph glyph-name="aringacute" unicode="&#x1fb;" horiz-adv-x="566" 
d="M286 571q-26 0 -48 8.5t-38.5 23.5t-26 36t-9.5 45q0 27 10.5 49.5t30.5 37.5l112 117h226l-181 -114q20 -16 32 -38.5t12 -51.5q0 -24 -9.5 -45t-25.5 -36t-38 -23.5t-47 -8.5zM286 651q15 0 24.5 9.5t9.5 23.5q0 16 -9.5 25.5t-24.5 9.5q-17 0 -26 -9.5t-9 -25.5
q0 -14 9 -23.5t26 -9.5zM282 532q111 0 168.5 -53t57.5 -160v-319h-171v37q-17 -19 -48 -33.5t-78 -14.5q-80 0 -126 38.5t-46 115.5q0 46 19 76.5t51 48.5t73 26t85 10l59 2v27q0 26 -11 37.5t-30 11.5q-26 0 -38 -15.5t-12 -30.5l-182 6q0 35 16 69t46 61t72 43.5t95 16.5
zM279 198q-26 -2 -42 -11t-16 -29q0 -19 11.5 -27.5t29.5 -8.5q24 0 43.5 15t19.5 38v25z" />
    <glyph glyph-name="AEacute" unicode="&#x1fc;" horiz-adv-x="1073" 
d="M612 795l116 162h247l-199 -162h-164zM1022 0h-491v119h-211l-82 -119h-235l507 748h511v-171h-297v-112h254v-167h-254v-127h298v-171zM531 438l-113 -171h113v171z" />
    <glyph glyph-name="aeacute" unicode="&#x1fd;" horiz-adv-x="891" 
d="M356 600l73 191h206l-137 -191h-142zM521 211q0 -35 18 -58.5t59 -23.5q53 0 66 40l184 -9q-6 -40 -28 -71.5t-55 -53.5t-75 -34t-88 -12q-120 0 -194 68q-35 -30 -78.5 -49t-97.5 -19q-92 0 -142.5 40t-50.5 116q0 46 19 76t51 48t73 25.5t85 9.5l59 2v23
q0 19 -8.5 35.5t-34.5 16.5t-37 -15t-11 -30l-182 6q0 35 15.5 69t44 61t70 43.5t93.5 16.5q48 0 87 -12t68 -37q69 49 167 49q56 0 103 -17.5t80.5 -50.5t52.5 -82t19 -112v-59h-332zM596 398q-35 0 -54 -21.5t-21 -58.5h147q-2 37 -19.5 58.5t-52.5 21.5zM279 198
q-26 -2 -42 -11.5t-16 -29.5q0 -19 11.5 -27t29.5 -8q26 0 44.5 15t18.5 38v25z" />
    <glyph glyph-name="Oslashacute" unicode="&#x1fe;" horiz-adv-x="882" 
d="M358 795l116 162h247l-199 -162h-164zM738 641q47 -50 72.5 -117t25.5 -150q0 -88 -29.5 -159t-82 -121.5t-125 -77.5t-158.5 -27q-97 0 -177 34l-62 -81l-118 90l58 75q-47 51 -72.5 118t-25.5 149q0 88 29.5 159t82 121t125.5 77.5t160 27.5q95 0 175 -34l63 83
l118 -89zM241 374q0 -32 5.5 -59t16.5 -50l241 315q-30 8 -63 8q-92 0 -146 -57t-54 -157zM441 160q91 0 144.5 57t53.5 157q0 65 -22 110l-241 -315q30 -9 65 -9z" />
    <glyph glyph-name="oslashacute" unicode="&#x1ff;" horiz-adv-x="643" 
d="M247 600l73 191h206l-137 -191h-142zM538 443q32 -35 49 -81t17 -102q0 -61 -21 -111t-58.5 -85.5t-89.5 -55t-114 -19.5q-61 0 -110 18l-46 -61l-100 74l42 55q-32 35 -50 81.5t-18 103.5q0 61 21 111t58.5 86t89 55.5t113.5 19.5q59 0 114 -19l36 48l100 -74zM223 260
q0 -7 0.5 -13.5t1.5 -13.5l107 143h-11q-45 0 -71.5 -30.5t-26.5 -85.5zM321 145q46 0 72.5 30.5t26.5 84.5q0 6 -0.5 12t-1.5 12l-104 -139h7z" />
    <glyph glyph-name="Scommaaccent" unicode="&#x218;" horiz-adv-x="668" 
d="M377 451q55 -15 101.5 -33t80 -44t52 -62t18.5 -86q0 -62 -22.5 -107t-60.5 -74t-89.5 -42.5t-108.5 -13.5q-68 0 -125 16.5t-98 48.5t-63.5 79t-22.5 109l197 10q-1 -43 30.5 -69.5t81.5 -26.5q38 0 61 14t23 46q0 28 -31 46t-96 35q-51 13 -96.5 29t-79 40.5
t-53.5 61.5t-20 92q0 48 17 91.5t50.5 76.5t84.5 52t120 19q65 0 118 -16.5t91 -48t59 -76.5t22 -102l-197 -10q0 38 -22.5 62t-66.5 24q-36 0 -57.5 -17.5t-21.5 -48.5q0 -14 5.5 -24.5t20 -19t38.5 -16t60 -15.5zM340 -49q47 0 72.5 -32.5t25.5 -83.5v-1v-1
q-1 -79 -43.5 -142.5t-133.5 -109.5v75q52 31 70 84q-41 4 -68 33t-27 71q0 22 7.5 41.5t21.5 34t33 23t42 8.5z" />
    <glyph glyph-name="scommaaccent" unicode="&#x219;" horiz-adv-x="510" 
d="M304 324q37 -10 69.5 -22t55.5 -29.5t36.5 -42t13.5 -60.5q0 -81 -57 -131t-167 -50q-216 0 -231 171l183 10q-1 -22 9 -37.5t39 -15.5q41 0 41 34q0 7 -2.5 12.5t-11 11t-23 11t-38.5 11.5q-44 11 -78.5 22.5t-59.5 29.5t-38 44.5t-13 67.5q0 80 58.5 125.5t161.5 45.5
q107 0 162 -47.5t61 -123.5l-182 -10q1 22 -8.5 37.5t-32.5 15.5q-38 0 -38 -31q0 -20 24 -29t66 -20zM253 -49q47 0 72.5 -32.5t25.5 -83.5v-1v-1q-1 -79 -43.5 -142.5t-133.5 -109.5v75q52 31 70 84q-41 4 -68 33t-27 71q0 22 7.5 41.5t21.5 34t33 23t42 8.5z" />
    <glyph glyph-name="uni021A" unicode="&#x21a;" horiz-adv-x="700" 
d="M680 577h-233v-577h-193v577h-234v171h660v-171zM352 -44q47 0 72.5 -32.5t25.5 -83.5v-1v-1q-1 -79 -43.5 -142.5t-133.5 -109.5v75q52 31 70 84q-41 4 -68 33t-27 71q0 22 7.5 41.5t21.5 34t33 23t42 8.5z" />
    <glyph glyph-name="uni021B" unicode="&#x21b;" horiz-adv-x="433" 
d="M285 219q0 -35 22 -51t48 -16q15 0 25 1t18 3v-161q-18 -2 -36.5 -4t-51.5 -2q-47 0 -85 11t-65.5 33.5t-42 56.5t-14.5 81l1 194h-94v156h95l1 168h182l-1 -168h111v-156h-112zM247 -52q47 0 72.5 -32.5t25.5 -83.5v-1v-1q-1 -79 -43.5 -142.5t-133.5 -109.5v75
q52 31 70 84q-41 4 -68 33t-27 71q0 22 7.5 41.5t21.5 34t33 23t42 8.5z" />
    <glyph glyph-name="dotlessj" unicode="&#x237;" 
d="M245 -35q0 -61 -16.5 -104.5t-45.5 -71.5t-68.5 -41.5t-85.5 -13.5q-52 0 -90.5 11.5t-64.5 29.5l73 149q11 -10 25.5 -20t37.5 -10q53 0 53 61v566h182v-556z" />
    <glyph glyph-name="circumflex" unicode="&#x2c6;" horiz-adv-x="415" 
d="M259 600l-52 65l-51 -65h-152l115 182h177l114 -182h-151z" />
    <glyph glyph-name="caron" unicode="&#x2c7;" horiz-adv-x="415" 
d="M119 598l-115 182h152l51 -64l52 64h151l-114 -182h-177z" />
    <glyph glyph-name="breve" unicode="&#x2d8;" horiz-adv-x="415" 
d="M411 774q0 -47 -15.5 -82t-42.5 -58t-64.5 -34t-81.5 -11t-81.5 11t-64.5 34t-42 58t-15 82h148q0 -28 15 -44t40 -16q26 0 41 16t15 44h148z" />
    <glyph glyph-name="dotaccent" unicode="&#x2d9;" horiz-adv-x="220" 
d="M109 789q22 0 42 -8.5t34 -23t22.5 -34t8.5 -41.5t-8.5 -41t-22.5 -33.5t-34 -22.5t-42 -8q-45 0 -75 30t-30 75q0 22 8.5 41.5t22.5 34t33.5 23t40.5 8.5z" />
    <glyph glyph-name="ring" unicode="&#x2da;" horiz-adv-x="291" 
d="M146 838q29 0 55 -10t45 -27t30 -41.5t11 -52.5q0 -29 -11 -53t-30 -41.5t-45 -27.5t-55 -10q-30 0 -55.5 10t-45 27.5t-30.5 41.5t-11 53q0 28 11 52.5t30.5 41.5t45 27t55.5 10zM146 745q-18 0 -28.5 -10.5t-10.5 -27.5t10.5 -28t28.5 -11q17 0 27.5 11t10.5 28
t-10.5 27.5t-27.5 10.5z" />
    <glyph glyph-name="ogonek" unicode="&#x2db;" horiz-adv-x="236" 
d="M201 4q-30 -18 -46 -33t-16 -38q0 -29 32 -29q14 0 24 3t21 8l16 -87q-19 -8 -40 -13.5t-53 -5.5q-28 0 -53 6t-43.5 18t-29 31.5t-10.5 46.5q0 28 13 48.5t36 36t53.5 27t66.5 20.5z" />
    <glyph glyph-name="tilde" unicode="&#x2dc;" horiz-adv-x="398" 
d="M123 776q24 0 42 -7.5t32.5 -17t28 -17t28.5 -7.5q20 0 28.5 11.5t8.5 30.5h102q3 -35 -3.5 -67t-22 -56.5t-39 -39.5t-53.5 -15q-25 0 -43 7.5t-33 17t-28 17t-27 7.5q-21 0 -29 -11.5t-8 -30.5h-102q-3 34 3.5 66.5t21.5 57t38.5 39.5t54.5 15z" />
    <glyph glyph-name="hungarumlaut" unicode="&#x2dd;" horiz-adv-x="464" 
d="M4 600l62 193h172l-92 -193h-142zM226 600l62 193h172l-92 -193h-142z" />
    <glyph glyph-name="uni0326" unicode="&#x326;" horiz-adv-x="0" 
d="M236 -162q-1 -79 -43.5 -143t-133.5 -109v75q26 16 43.5 36t26.5 47q-41 4 -68 33.5t-27 71.5q0 22 7.5 41.5t21.5 34t33 23t42 8.5q47 0 72.5 -32.5t25.5 -83.5v-1v-1z" />
    <glyph glyph-name="Omega" unicode="&#x3a9;" horiz-adv-x="807" 
d="M404 730q78 0 140 -27t105.5 -74.5t67 -111t23.5 -135.5q0 -39 -7 -75.5t-19 -67.5t-28 -56.5t-34 -43.5h135v-139h-327v129q29 18 52.5 45t40 60t25.5 69t9 72q0 48 -12.5 87.5t-36.5 68t-58 44t-76 15.5q-43 0 -77 -15.5t-58 -44t-36.5 -68t-12.5 -87.5q0 -36 9 -72
t25.5 -69t39.5 -60t52 -45v-129h-326v139h135q-18 18 -33.5 43.5t-27.5 56.5t-19 67.5t-7 75.5q0 73 23 136.5t66.5 110.5t106 74t140.5 27z" />
    <glyph glyph-name="mu" unicode="&#x3bc;" horiz-adv-x="614" 
d="M551 0h-172v36q-16 -20 -45 -33.5t-77 -13.5h-12v-244h-182v776h182v-289q0 -38 13.5 -55.5t46.5 -17.5q64 0 64 71v291h182v-521z" />
    <glyph glyph-name="pi" unicode="&#x3c0;" horiz-adv-x="758" 
d="M738 454q-7 -28 -20 -55t-34 -48.5t-51 -34.5t-71 -13l-16 -132q-4 -29 16 -29q8 0 16 4.5t15 9.5l80 -106q-26 -29 -58.5 -44t-79.5 -15q-76 0 -109 46t-24 122l16 144h-75l-23 -178q-5 -45 -16 -74t-22 -51h-170q10 22 19.5 41t17.5 37t13.5 36.5t8.5 38.5l19 150h-3
q-29 0 -50 -15.5t-35 -36.5l-83 124q19 21 38.5 37.5t42.5 28t52.5 17.5t70.5 6h247q31 0 52.5 5t35.5 14t23 22t17 30z" />
    <glyph glyph-name="Wgrave" unicode="&#x1e80;" horiz-adv-x="1129" 
d="M476 795l-199 162h248l115 -162h-164zM698 0l-134 413l-134 -413h-162l-261 748h212l132 -430l134 430h159l133 -430l133 430h212l-261 -748h-163z" />
    <glyph glyph-name="wgrave" unicode="&#x1e81;" horiz-adv-x="862" 
d="M358 600l-137 191h206l73 -191h-142zM515 0l-83 218l-84 -218h-146l-201 521h203l77 -258l86 258h128l86 -258l77 258h203l-201 -521h-145z" />
    <glyph glyph-name="Wacute" unicode="&#x1e82;" horiz-adv-x="1129" 
d="M482 795l116 162h247l-199 -162h-164zM698 0l-134 413l-134 -413h-162l-261 748h212l132 -430l134 430h159l133 -430l133 430h212l-261 -748h-163z" />
    <glyph glyph-name="wacute" unicode="&#x1e83;" horiz-adv-x="862" 
d="M360 600l73 191h206l-137 -191h-142zM515 0l-83 218l-84 -218h-146l-201 521h203l77 -258l86 258h128l86 -258l77 258h203l-201 -521h-145z" />
    <glyph glyph-name="Wdieresis" unicode="&#x1e84;" horiz-adv-x="1129" 
d="M456 980q41 0 68.5 -28t27.5 -68q0 -41 -27.5 -68t-68.5 -27q-40 0 -67.5 27t-27.5 68q0 40 27.5 68t67.5 28zM675 980q41 0 69 -28t28 -68q0 -41 -28 -68t-69 -27q-40 0 -67.5 27t-27.5 68q0 40 27.5 68t67.5 28zM698 0l-134 413l-134 -413h-162l-261 748h212l132 -430
l134 430h159l133 -430l133 430h212l-261 -748h-163z" />
    <glyph glyph-name="wdieresis" unicode="&#x1e85;" horiz-adv-x="862" 
d="M323 773q41 0 68.5 -27.5t27.5 -67.5q0 -41 -27.5 -68.5t-68.5 -27.5q-40 0 -67.5 27.5t-27.5 68.5q0 40 27.5 67.5t67.5 27.5zM542 773q41 0 69 -27.5t28 -67.5q0 -41 -28 -68.5t-69 -27.5q-40 0 -67.5 27.5t-27.5 68.5q0 40 27.5 67.5t67.5 27.5zM515 0l-83 218
l-84 -218h-146l-201 521h203l77 -258l86 258h128l86 -258l77 258h203l-201 -521h-145z" />
    <glyph glyph-name="Ygrave" unicode="&#x1ef2;" horiz-adv-x="776" 
d="M299 795l-199 162h248l115 -162h-164zM485 0h-193v274l-284 474h224l156 -282l156 282h224l-283 -474v-274z" />
    <glyph glyph-name="ygrave" unicode="&#x1ef3;" horiz-adv-x="599" 
d="M223 600l-137 191h206l73 -191h-142zM63 -255l139 312l-201 464h202l97 -260l96 260h202l-336 -776h-199z" />
    <glyph glyph-name="endash" unicode="&#x2013;" horiz-adv-x="568" 
d="M45 177v171h478v-171h-478z" />
    <glyph glyph-name="emdash" unicode="&#x2014;" horiz-adv-x="800" 
d="M45 177v171h710v-171h-710z" />
    <glyph glyph-name="quoteleft" unicode="&#x2018;" horiz-adv-x="250" 
d="M142 633q40 -4 67 -33.5t27 -71.5q0 -45 -28.5 -75.5t-74.5 -30.5q-47 0 -72.5 32t-25.5 83v1v1q1 79 43 143t133 109v-75q-26 -16 -43.5 -36t-25.5 -47z" />
    <glyph glyph-name="quoteright" unicode="&#x2019;" horiz-adv-x="250" 
d="M216 673q-1 -79 -43.5 -142.5t-133.5 -108.5v74q26 16 43.5 36.5t25.5 47.5q-40 4 -67 33.5t-27 71.5q0 45 28.5 75.5t74.5 30.5q47 0 73 -32.5t26 -83.5v-1v-1z" />
    <glyph glyph-name="quotesinglbase" unicode="&#x201a;" horiz-adv-x="250" 
d="M216 83q-1 -79 -43.5 -142.5t-133.5 -109.5v75q26 16 43.5 36.5t25.5 47.5q-40 4 -67 33.5t-27 71.5q0 22 7.5 41t21 33.5t32.5 23t42 8.5q47 0 73 -32.5t26 -83.5v-1v-1z" />
    <glyph glyph-name="quotedblleft" unicode="&#x201c;" horiz-adv-x="485" 
d="M142 633q41 -4 68 -33t27 -71q0 -22 -7.5 -41.5t-21.5 -34t-33 -23t-42 -8.5q-47 0 -72.5 32.5t-25.5 83.5v1v1q1 79 43.5 142.5t133.5 109.5v-75q-53 -32 -70 -84zM377 633q41 -4 68 -33t27 -71q0 -22 -7.5 -41.5t-21.5 -34t-33 -23t-42 -8.5q-47 0 -72.5 32.5
t-25.5 83.5v1v1q1 79 43.5 142.5t133.5 109.5v-75q-53 -32 -70 -84z" />
    <glyph glyph-name="quotedblright" unicode="&#x201d;" horiz-adv-x="485" 
d="M118 791q47 0 72.5 -32.5t25.5 -83.5v-1v-1q-1 -79 -43.5 -142.5t-133.5 -109.5v75q52 31 70 84q-41 4 -68 33.5t-27 71.5q0 22 7.5 41t21.5 33.5t33 23t42 8.5zM451 673q-1 -79 -43.5 -142.5t-133.5 -109.5v75q52 31 70 84q-41 4 -68 33.5t-27 71.5q0 22 7.5 41
t21.5 33.5t33 23t42 8.5q47 0 72.5 -33t25.5 -84v-1z" />
    <glyph glyph-name="quotedblbase" unicode="&#x201e;" horiz-adv-x="485" 
d="M117 201q47 0 73 -32.5t26 -83.5v-1v-1q-1 -79 -43.5 -142.5t-133.5 -109.5v75q26 16 43.5 36.5t25.5 47.5q-40 4 -67 33.5t-27 71.5q0 22 7.5 41t21 33.5t32.5 23t42 8.5zM451 83q-1 -79 -43.5 -142.5t-133.5 -109.5v75q52 31 70 84q-42 4 -68.5 33.5t-26.5 71.5
q0 44 28.5 75t75.5 31t72.5 -33t25.5 -84v-1z" />
    <glyph glyph-name="dagger" unicode="&#x2020;" horiz-adv-x="560" 
d="M545 565v-164h-174v-468h-182v468h-174v164h174v183h182v-183h174z" />
    <glyph glyph-name="daggerdbl" unicode="&#x2021;" horiz-adv-x="560" 
d="M545 565v-164h-174v-121h174v-164h-174v-183h-182v183h-174v164h174v121h-174v164h174v183h182v-183h174z" />
    <glyph glyph-name="bullet" unicode="&#x2022;" horiz-adv-x="349" 
d="M175 385q27 0 50.5 -10.5t41 -28t28 -41t10.5 -50.5t-10.5 -51t-28 -41.5t-41 -28t-50.5 -10.5t-51 10.5t-41.5 28t-28 41.5t-10.5 51t10.5 50.5t28 41t41.5 28t51 10.5z" />
    <glyph glyph-name="ellipsis" unicode="&#x2026;" horiz-adv-x="874" 
d="M140 201q22 0 41.5 -8.5t33.5 -23t22.5 -33.5t8.5 -41q0 -23 -8.5 -42t-22.5 -33.5t-33.5 -22.5t-41.5 -8t-41.5 8t-33.5 22.5t-22.5 33.5t-8.5 42q0 22 8.5 41t22.5 33.5t33.5 23t41.5 8.5zM426 201q22 0 41.5 -8.5t34 -23t23 -33.5t8.5 -41q0 -23 -8.5 -42t-23 -33.5
t-34 -22.5t-41.5 -8t-41.5 8t-33.5 22.5t-22.5 33.5t-8.5 42q0 22 8.5 41t22.5 33.5t33.5 23t41.5 8.5zM712 201q22 0 41.5 -8.5t34 -23t23 -33.5t8.5 -41q0 -23 -8.5 -42t-23 -33.5t-34 -22.5t-41.5 -8t-41 8t-33.5 22.5t-22.5 33.5t-8 42q0 22 8 41t22.5 33.5t33.5 23
t41 8.5z" />
    <glyph glyph-name="perthousand" unicode="&#x2030;" horiz-adv-x="1329" 
d="M212 759q40 0 73.5 -14t58 -39t38 -61t13.5 -79q0 -44 -13.5 -79.5t-38 -61t-58 -39.5t-73.5 -14t-74 14t-58.5 39.5t-38.5 61t-14 79.5q0 43 14 79t38.5 61t58.5 39t74 14zM139 0l472 748h175l-472 -748h-175zM212 633q-52 0 -52 -67q0 -32 14 -50t38 -18q50 0 50 68
q0 67 -50 67zM714 376q40 0 73.5 -13.5t58 -39t38 -61t13.5 -79.5t-13.5 -79.5t-38 -61t-58 -39.5t-73.5 -14t-74 14t-58.5 39.5t-38.5 61t-14 79.5t14 79.5t38.5 61t58.5 39t74 13.5zM1118 376q40 0 74 -13.5t58.5 -39t38 -61t13.5 -79.5t-13.5 -79.5t-38 -61t-58.5 -39.5
t-74 -14t-74 14t-58.5 39.5t-38.5 61t-14 79.5t14 79.5t38.5 61t58.5 39t74 13.5zM714 250q-52 0 -52 -67q0 -32 14 -50t38 -18q50 0 50 68q0 67 -50 67zM1118 250q-51 0 -51 -67q0 -32 13.5 -50t37.5 -18q50 0 50 68q0 67 -50 67z" />
    <glyph glyph-name="guilsinglleft" unicode="&#x2039;" horiz-adv-x="357" 
d="M234 260l108 -126l-130 -114l-197 240l197 241l130 -114z" />
    <glyph glyph-name="guilsinglright" unicode="&#x203a;" horiz-adv-x="357" 
d="M145 20l-130 114l108 126l-108 127l130 114l197 -241z" />
    <glyph glyph-name="fraction" unicode="&#x2044;" horiz-adv-x="237" 
d="M-221 0l494 748h185l-494 -748h-185z" />
    <glyph glyph-name="Euro" unicode="&#x20ac;" horiz-adv-x="706" 
d="M682 47q-25 -14 -48.5 -25t-49.5 -18.5t-56 -11t-67 -3.5q-54 0 -105 16t-93.5 46.5t-75.5 76.5t-51 106h-125l42 112h65l-1 28v21h-106l42 113h82q18 62 51 109t76.5 78.5t95.5 47.5t106 16q35 0 63 -4t52 -12t45.5 -19.5t43.5 -26.5l-60 -159q-26 22 -57.5 36t-78.5 14
q-43 0 -77 -19.5t-54 -60.5h257l-42 -113h-242v-21v-14.5t1 -13.5h223l-41 -112h-153q21 -38 53.5 -56t74.5 -18q41 0 73.5 14t56.5 34z" />
    <glyph glyph-name="trademark" unicode="&#x2122;" horiz-adv-x="903" 
d="M254 619v-230h-133v230h-107v129h348v-129h-108zM715 389v113l-55 -108h-60l-55 108v-113h-133v359h114l104 -197l105 197h114v-359h-134z" />
    <glyph glyph-name="estimated" unicode="&#x212e;" horiz-adv-x="598" 
d="M311 542q54 0 100 -16.5t80 -49.5t53.5 -82.5t19.5 -115.5h-369v-180q0 -19 6 -36.5t34 -29.5q10 -4 31 -6.5t45 -2.5q69 0 124 33t92 93l32 -21q-42 -66 -105.5 -104t-142.5 -38q-59 0 -110 19.5t-88 56t-58 87.5t-21 114q0 64 21 115.5t58 88t88 56t110 19.5zM311 505
q-24 0 -46 -3.5t-33 -8.5q-26 -11 -31.5 -30t-5.5 -35v-114h222v112q0 28 -6 44t-30 25q-11 3 -29 6.5t-41 3.5z" />
    <glyph glyph-name="partialdiff" unicode="&#x2202;" horiz-adv-x="615" 
d="M279 759q79 0 135.5 -28.5t93 -82.5t54 -131.5t17.5 -176.5q0 -173 -73.5 -262t-199.5 -89q-59 0 -108.5 18t-85.5 51.5t-56 81t-20 106.5q0 55 19 99.5t53 75.5t81 47.5t103 16.5q52 0 95 -20q-2 38 -10 62t-21.5 37.5t-31.5 18.5t-39 5q-41 0 -70.5 -14t-55.5 -39
l-102 159q46 29 98 47t124 18zM309 160q36 0 57 24t21 60v10q-2 37 -22.5 59t-55.5 22q-33 0 -54.5 -23t-21.5 -63q0 -41 20 -65t56 -24z" />
    <glyph glyph-name="product" unicode="&#x220f;" horiz-adv-x="672" 
d="M567 577v-741h-165v741h-132v-741h-165v741h-91v171h644v-171h-91z" />
    <glyph glyph-name="summation" unicode="&#x2211;" horiz-adv-x="600" 
d="M267 577l151 -203l-151 -203h295v-171h-516v142l172 232l-172 232v142h516v-171h-295z" />
    <glyph glyph-name="minus" unicode="&#x2212;" horiz-adv-x="548" 
d="M30 286v171h488v-171h-488z" />
    <glyph glyph-name="radical" unicode="&#x221a;" horiz-adv-x="702" 
d="M363 -77l-160 307l-100 -61l-89 143l257 156l87 -176l182 401l149 -64z" />
    <glyph glyph-name="infinity" unicode="&#x221e;" horiz-adv-x="771" 
d="M543 513q44 0 80.5 -16.5t62.5 -45t40.5 -67t14.5 -81.5q0 -44 -14.5 -82.5t-40.5 -67.5t-62.5 -45.5t-80.5 -16.5q-57 0 -96.5 24t-68.5 55l-8 9l-9 -8q-32 -28 -66.5 -47t-84.5 -19q-41 0 -74 15.5t-56.5 42t-36.5 62.5t-13 77t13 77t36.5 63t56.5 43t74 16
q52 0 86 -21t64 -50l7 -6l6 6q17 17 34.5 32t38 26.5t44 18t53.5 6.5zM543 359q-21 0 -38 -12.5t-36 -32.5l-9 -12l9 -11q20 -20 37 -33t37 -13q23 0 34.5 17t11.5 41q0 23 -11.5 39.5t-34.5 16.5zM214 353q-20 0 -31 -15t-11 -36q0 -20 11 -35t31 -15q15 0 32 8t31 30l7 11
l-7 7q-19 22 -33.5 33.5t-29.5 11.5z" />
    <glyph glyph-name="integral" unicode="&#x222b;" horiz-adv-x="335" 
d="M231 759q45 0 72 -6t49 -14l-30 -138q-14 5 -26 8t-26 3q-10 0 -17 -6.5t-7 -17.5v-595q0 -78 -37 -121t-106 -43q-44 0 -71.5 6.5t-48.5 14.5l30 137q13 -5 22.5 -8t22.5 -3t21.5 7.5t8.5 15.5v595q0 78 37.5 121.5t105.5 43.5z" />
    <glyph glyph-name="approxequal" unicode="&#x2248;" horiz-adv-x="549" 
d="M545 484q-34 -46 -75 -72t-92 -26q-29 0 -52.5 8.5t-45 18.5t-43.5 18.5t-47 8.5q-32 0 -57 -10t-48 -39l-81 121q34 45 75 71.5t92 26.5q30 0 53.5 -8.5t45.5 -19t43 -19t46 -8.5q32 0 57 10.5t48 39.5zM545 231q-34 -45 -75 -71.5t-92 -26.5q-29 0 -52.5 8.5t-45 19
t-43.5 19t-47 8.5q-32 0 -57 -10.5t-48 -39.5l-81 121q34 46 75 72t92 26q30 0 53.5 -8.5t45.5 -18.5t43 -18.5t46 -8.5q32 0 57 10t48 39z" />
    <glyph glyph-name="notequal" unicode="&#x2260;" horiz-adv-x="548" 
d="M347 332h171v-170h-208l-24 -112l-155 36l16 76h-117v170h154l17 78h-171v171h208l23 108l156 -35l-16 -73h117v-171h-154z" />
    <glyph glyph-name="lessequal" unicode="&#x2264;" horiz-adv-x="550" 
d="M394 485l127 -59v-188l-491 247l491 245v-186zM30 31v171h491v-171h-491z" />
    <glyph glyph-name="greaterequal" unicode="&#x2265;" horiz-adv-x="550" 
d="M30 238v188l127 59l-127 59v186l490 -245zM30 31v171h490v-171h-490z" />
    <glyph glyph-name="lozenge" unicode="&#x25ca;" horiz-adv-x="572" 
d="M345 -55h-117l-204 401l204 402h117l203 -402zM286 203l73 143l-73 142l-72 -142z" />
    <glyph glyph-name="fi" unicode="&#xfb01;" horiz-adv-x="711" 
d="M557 788q22 0 41.5 -8.5t33.5 -23t22.5 -34t8.5 -41.5q0 -45 -30.5 -75.5t-75.5 -30.5t-75.5 30.5t-30.5 75.5q0 22 8.5 41.5t23 34t34 23t40.5 8.5zM328 784q35 0 58 -4v-157q-15 3 -37 3q-33 0 -54.5 -19t-21.5 -48v-38h113v-156h-113v-365h-183v365h-89v156h89v34
q0 51 17 93.5t48.5 72.5t75 46.5t97.5 16.5zM466 0v521h182v-521h-182z" />
    <glyph glyph-name="fl" unicode="&#xfb02;" horiz-adv-x="711" 
d="M328 784q35 0 58 -4v-157q-15 3 -37 3q-33 0 -54.5 -19t-21.5 -48v-38h113v-156h-113v-365h-183v365h-89v156h89v34q0 51 17 93.5t48.5 72.5t75 46.5t97.5 16.5zM466 0v777h182v-777h-182z" />
    <glyph glyph-name="n.001" horiz-adv-x="624" 
d="M362 532q46 0 83.5 -13.5t64.5 -40t41.5 -65.5t14.5 -90v-323h-182v281q0 81 -68 81q-32 0 -51.5 -21t-19.5 -61v-280h-182v521h172v-35q16 19 47.5 32.5t79.5 13.5z" />
    <glyph glyph-name="germandbls.cap" horiz-adv-x="712" 
d="M344 756q98 0 167.5 -31.5t120.5 -89.5l-107 -179q31 -14 58.5 -32.5t47.5 -43.5t32 -58.5t12 -77.5q0 -58 -20.5 -104.5t-58 -79.5t-89.5 -50.5t-115 -17.5q-32 0 -59 3t-50 8l37 170q27 -10 64 -10q38 0 65 24.5t27 67.5q0 31 -12.5 52.5t-34.5 36t-52.5 24.5t-66.5 18
l96 175q-11 10 -29 17t-41 7q-36 0 -60.5 -22t-24.5 -66v-497h-193v495q0 61 22 109t60 82t90.5 52t113.5 18z" />
    <glyph glyph-name="a.sups" horiz-adv-x="466" 
d="M229 757q195 0 195 -171v-257h-154v21q-14 -12 -39 -21t-60 -9q-68 0 -107 31t-39 94q0 37 15.5 60.5t42 38t60.5 21t71 8.5l47 3v22q0 15 -8.5 24.5t-22.5 9.5q-18 0 -27 -10t-9 -27l-159 5q0 28 13.5 56t38.5 50.5t61 36.5t81 14zM227 483q-17 -2 -27.5 -8.5
t-10.5 -19.5q0 -12 8 -17t21 -5q17 0 30 9.5t13 23.5v19z" />
    <glyph glyph-name="b.sups" horiz-adv-x="532" 
d="M209 740q16 5 38.5 11t52.5 6q46 0 83.5 -16t64 -45t41 -69t14.5 -88t-14.5 -88t-41 -69.5t-64 -45.5t-83.5 -16q-35 0 -60 9t-41 17v-17h-153v622h163v-211zM273 619q-29 0 -46.5 -21t-17.5 -53v-13q0 -31 17.5 -52t46.5 -21q32 0 49 21t17 59q0 37 -17 58.5t-49 21.5z
" />
    <glyph glyph-name="c.sups" horiz-adv-x="486" 
d="M252 757q39 0 74 -11.5t62.5 -33t46 -52.5t24.5 -70l-158 -13q-3 18 -15.5 30t-33.5 12q-27 0 -42.5 -21t-15.5 -59t15.5 -59t42.5 -21q20 0 33 11.5t16 31.5l158 -13q-6 -39 -24.5 -70.5t-46 -53.5t-62.5 -33.5t-74 -11.5q-48 0 -89 15t-71 43t-46.5 69t-16.5 92
t17 91.5t46.5 68.5t70.5 43t89 15z" />
    <glyph glyph-name="d.sups" horiz-adv-x="533" 
d="M332 329v17q-15 -8 -40 -17t-60 -9q-46 0 -83.5 16t-64 45.5t-41 69.5t-14.5 88t14.5 88t41 69t64 45t83.5 16q30 0 53 -6t38 -11v211h163v-622h-154zM259 619q-31 0 -48 -21.5t-17 -58.5q0 -38 17 -59t48 -21q30 0 47 21t17 52v13q0 32 -17 53t-47 21z" />
    <glyph glyph-name="e.sups" horiz-adv-x="485" 
d="M202 494q0 -20 9.5 -34.5t36.5 -14.5q17 0 27 6.5t13 17.5l164 -8q-5 -32 -22.5 -58t-44.5 -44.5t-61 -28.5t-71 -10q-51 0 -92.5 15.5t-70.5 44t-45 69t-16 90.5t16 90.5t45 69t69.5 43.5t89.5 15q45 0 83 -13.5t65.5 -40.5t43 -66.5t15.5 -91.5v-51h-254zM247 638
q-23 0 -33.5 -13t-11.5 -36h89q-3 49 -44 49z" />
    <glyph glyph-name="f.sups" horiz-adv-x="327" 
d="M271 957q17 0 27.5 -1t22.5 -3v-139q-6 2 -13.5 2h-18.5q-23 0 -39.5 -13.5t-16.5 -32.5v-22h88v-139h-88v-280h-162v280h-70v139h70v19q0 42 14.5 77t40.5 60t63 39t82 14z" />
    <glyph glyph-name="g.sups" horiz-adv-x="528" 
d="M232 757q35 0 60 -9t40 -17v17h154v-427q0 -45 -15.5 -82.5t-44.5 -64.5t-70 -42t-92 -15q-54 0 -94.5 12.5t-68.5 35t-43.5 54t-20.5 70.5l161 6q0 -41 59 -41q31 0 48.5 13.5t17.5 42.5v28q-16 -6 -38.5 -12t-52.5 -6q-46 0 -83.5 16t-64 45.5t-41 69.5t-14.5 88
t14.5 88t41 69t64 45t83.5 16zM259 619q-31 0 -48 -21.5t-17 -58.5q0 -38 17 -59t48 -21q30 0 47 21t17 52v13q0 32 -17 53t-47 21z" />
    <glyph glyph-name="h.sups" horiz-adv-x="502" 
d="M209 735q13 8 33 15t53 7q75 0 120 -43t45 -125v-260h-163v222q0 55 -43 55q-21 0 -33 -13.5t-12 -42.5v-221h-163v622h163v-216z" />
    <glyph glyph-name="i.sups" horiz-adv-x="255" 
d="M128 966q39 0 66 -27.5t27 -67.5q0 -19 -7 -36t-20 -29.5t-30 -19.5t-36 -7q-20 0 -37 7t-29.5 19.5t-20 29.5t-7.5 36q0 20 7.5 37.5t20.5 30t30 20t36 7.5zM46 329v419h163v-419h-163z" />
    <glyph glyph-name="j.sups" horiz-adv-x="255" 
d="M127 966q40 0 67 -27.5t27 -67.5q0 -19 -7 -36t-20 -29.5t-30 -19.5t-37 -7t-36.5 7t-29.5 19.5t-20 29.5t-7 36q0 40 27 67.5t66 27.5zM209 309q0 -42 -14.5 -77.5t-41 -60.5t-64 -39t-82.5 -14q-17 0 -28 0.5t-22 2.5v141q12 -3 32 -3q24 0 40.5 14t16.5 33v442h163
v-439z" />
    <glyph glyph-name="k.sups" horiz-adv-x="500" 
d="M298 748h196l-140 -176l143 -243h-191l-67 121l-30 -36v-85h-163v622h163v-320z" />
    <glyph glyph-name="l.sups" horiz-adv-x="255" 
d="M46 329v622h163v-622h-163z" />
    <glyph glyph-name="m.sups" horiz-adv-x="740" 
d="M536 757q75 0 118.5 -43t43.5 -125v-260h-162v222q0 29 -9 42t-31 13q-42 0 -42 -56v-221h-162v222q0 55 -41 55q-42 0 -42 -56v-221h-163v419h153v-20q14 13 35.5 21t57.5 8q83 0 127 -52q18 23 45 37.5t72 14.5z" />
    <glyph glyph-name="n.sups" horiz-adv-x="502" 
d="M295 757q75 0 120 -43t45 -125v-260h-163v222q0 55 -43 55q-21 0 -33 -13.5t-12 -42.5v-221h-163v419h153v-20q14 13 37.5 21t58.5 8z" />
    <glyph glyph-name="o.sups" horiz-adv-x="517" 
d="M258 757q51 0 93 -16t72.5 -44.5t47.5 -68.5t17 -89t-17 -89.5t-47.5 -69t-72.5 -44.5t-93 -16q-50 0 -92 16t-72.5 44.5t-47.5 69t-17 89.5t17 89t47.5 68.5t72.5 44.5t92 16zM258 619q-31 0 -47.5 -21t-16.5 -59t16.5 -59t47.5 -21q32 0 49 21t17 59t-17 59t-49 21z
" />
    <glyph glyph-name="p.sups" horiz-adv-x="532" 
d="M300 757q46 0 83.5 -16t64 -45t41 -69t14.5 -88t-14.5 -88t-41 -69.5t-64 -45.5t-83.5 -16q-30 0 -52.5 6t-38.5 12v-213h-163v623h153v-17q16 8 41 17t60 9zM273 619q-29 0 -46.5 -21t-17.5 -53v-13q0 -31 17.5 -52t46.5 -21q32 0 49 21t17 59q0 37 -17 58.5t-49 21.5z
" />
    <glyph glyph-name="q.sups" horiz-adv-x="532" 
d="M232 757q35 0 60 -9t40 -17v17h154v-623h-163v213q-15 -6 -38 -12t-53 -6q-46 0 -83.5 16t-64 45.5t-41 69.5t-14.5 88t14.5 88t41 69t64 45t83.5 16zM259 619q-31 0 -48 -21.5t-17 -58.5q0 -38 17 -59t48 -21q30 0 47 21t17 52v13q0 32 -17 53t-47 21z" />
    <glyph glyph-name="r.sups" horiz-adv-x="325" 
d="M311 595q-48 0 -75 -21t-27 -59v-186h-163v419h157v-31q15 15 38.5 25t69.5 10v-157z" />
    <glyph glyph-name="s.sups" horiz-adv-x="410" 
d="M203 757q89 0 134.5 -39t50.5 -101l-162 -10q1 15 -3.5 25.5t-19.5 10.5q-19 0 -19 -15q0 -12 17 -18.5t49 -15.5q29 -8 54.5 -18t44 -24t29.5 -34t11 -49q0 -66 -46.5 -107.5t-137.5 -41.5q-179 0 -190 141l163 9q-2 -14 2.5 -25t24.5 -11q12 0 17 5.5t5 11.5
q0 7 -8.5 14.5t-42.5 15.5q-36 10 -64.5 20t-49 24.5t-31 36.5t-10.5 55q0 66 49 103t133 37z" />
    <glyph glyph-name="t.sups" horiz-adv-x="353" 
d="M246 512q0 -24 16 -35.5t36 -11.5q12 0 19.5 1t14.5 2v-144q-16 -2 -31 -3.5t-43 -1.5q-39 0 -71.5 9t-55.5 28t-35.5 47t-12.5 66l1 140h-75v139h76l1 133h163l-1 -133h84v-139h-85z" />
    <glyph glyph-name="u.sups" horiz-adv-x="491" 
d="M292 329v20q-14 -12 -35.5 -20.5t-57.5 -8.5q-75 0 -116 40.5t-41 118.5v269h163v-229q0 -26 7.5 -37t29.5 -11q40 0 40 47v230h163v-419h-153z" />
    <glyph glyph-name="v.sups" horiz-adv-x="491" 
d="M182 329l-182 419h177l68 -167l68 167h177l-181 -419h-127z" />
    <glyph glyph-name="w.sups" horiz-adv-x="701" 
d="M412 329l-61 191l-62 -191h-127l-162 419h177l59 -176l58 176h113l58 -176l59 176h177l-162 -419h-127z" />
    <glyph glyph-name="x.sups" horiz-adv-x="471" 
d="M465 329h-180l-50 98l-48 -98h-180l118 208l-121 211h179l52 -102l53 102h179l-121 -210z" />
    <glyph glyph-name="y.sups" horiz-adv-x="491" 
d="M44 125l113 261l-157 362h177l68 -167l68 167h177l-269 -623h-177z" />
    <glyph glyph-name="z.sups" horiz-adv-x="375" 
d="M215 459h132v-130h-319v112l128 176h-125v131h312v-112z" />
    <glyph glyph-name="f_j" horiz-adv-x="711" 
d="M557 788q22 0 41.5 -8.5t33.5 -23t22.5 -34t8.5 -41.5q0 -45 -30.5 -75.5t-75.5 -30.5t-75.5 30.5t-30.5 75.5q0 22 8.5 41.5t22.5 34t33.5 23t41.5 8.5zM328 784q35 0 58 -4v-157q-15 3 -37 3q-33 0 -54.5 -19t-21.5 -48v-38h113v-156h-113v-365h-183v365h-89v156h89v34
q0 51 17 93.5t48.5 72.5t75 46.5t97.5 16.5zM648 -34q0 -51 -17 -93.5t-48.5 -72.5t-75 -46.5t-97.5 -16.5q-35 0 -58 4v157q15 -3 38 -3q32 0 54 19t22 48v559h182v-555z" />
    <glyph glyph-name="zero.onum" horiz-adv-x="657" 
d="M328 601q64 0 118 -21t93 -61t61 -96.5t22 -126.5q0 -71 -22 -128t-61 -96.5t-93 -61t-118 -21.5t-118 21.5t-93 61t-60.5 96.5t-21.5 128q0 70 21.5 126.5t60.5 96.5t93 61t118 21zM328 430q-43 0 -68.5 -34.5t-25.5 -99.5q0 -66 25.5 -101t68.5 -35q44 0 69.5 35
t25.5 101q0 65 -25.5 99.5t-69.5 34.5z" />
    <glyph glyph-name="one.onum" horiz-adv-x="406" 
d="M147 0v354l-74 -47l-81 153l206 130h142v-590h-193z" />
    <glyph glyph-name="two.onum" horiz-adv-x="546" 
d="M279 601q61 0 106 -16t74.5 -44t44 -67.5t14.5 -85.5q0 -65 -32 -109.5t-80 -77.5l-46 -30h160v-171h-476v147l201 131q39 26 59 49t20 57q0 46 -41 46q-44 0 -46 -66l-193 11q1 53 18 95t47.5 71t73.5 44.5t96 15.5z" />
    <glyph glyph-name="three.onum" horiz-adv-x="575" 
d="M285 601q58 0 103 -16t76 -46t47 -72t16 -94q0 -29 -5 -50.5t-14 -38.5t-20.5 -30.5t-24.5 -25.5q30 -18 51.5 -58.5t21.5 -99.5q0 -57 -18.5 -101.5t-52 -75t-80 -46.5t-101.5 -16q-124 0 -188.5 63t-65.5 170l193 11q0 -34 14.5 -53.5t45.5 -19.5q59 0 59 74
q0 35 -19 52.5t-50 17.5h-79v161h77q27 0 44.5 16.5t17.5 47.5q0 59 -49 59q-52 0 -52 -68l-193 11q2 107 64 167.5t182 60.5z" />
    <glyph glyph-name="four.onum" horiz-adv-x="608" 
d="M585 116v-171h-104v-103h-163v103h-291v159l308 486h146v-474h104zM318 116v167l-106 -167h106z" />
    <glyph glyph-name="five.onum" horiz-adv-x="577" 
d="M307 327q49 0 92 -15t74.5 -45t49.5 -75.5t18 -106.5q0 -59 -18.5 -106t-52 -80t-81.5 -50.5t-108 -17.5q-59 0 -105 15.5t-78 44.5t-49 69t-17 90l193 12q0 -27 14 -43.5t43 -16.5q33 0 49 21t16 57q0 75 -59 75q-32 0 -53 -15h-178v450h454v-171h-261v-100q26 8 57 8z
" />
    <glyph glyph-name="six.onum" horiz-adv-x="617" 
d="M375 491q46 -9 84 -30.5t65.5 -53t43 -73t15.5 -90.5q0 -58 -20.5 -105t-57 -80.5t-86.5 -51.5t-108 -18q-59 0 -109 18t-87 51.5t-57.5 80.5t-20.5 105q0 49 16 87.5t42 78.5l229 338h231zM310 160q36 0 56.5 24.5t20.5 66.5q0 44 -20.5 67.5t-56.5 23.5
q-20 0 -35.5 -8.5t-26.5 -22.5q-7 -11 -11 -26t-4 -34q0 -42 20.5 -66.5t56.5 -24.5z" />
    <glyph glyph-name="seven.onum" horiz-adv-x="541" 
d="M254 -158h-213l257 577h-280v171h492v-155z" />
    <glyph glyph-name="eight.onum" horiz-adv-x="624" 
d="M311 759q54 0 100.5 -14.5t80 -42.5t53 -68.5t19.5 -91.5q0 -83 -50 -139q33 -32 51.5 -75.5t18.5 -97.5q0 -57 -20.5 -101.5t-57 -75.5t-86.5 -47.5t-108 -16.5t-108 16.5t-86.5 47.5t-57 75.5t-20.5 101.5q0 54 18 97t50 75q-23 27 -36 62.5t-13 77.5q0 51 19 91.5
t53 68.5t80 42.5t100 14.5zM312 588q-25 0 -42 -16t-17 -45q0 -28 17 -44.5t42 -16.5q26 0 42.5 16.5t16.5 44.5q0 29 -16.5 45t-42.5 16zM312 322q-34 0 -56.5 -21.5t-22.5 -60.5q0 -38 22.5 -59t56.5 -21q35 0 57 21t22 59q0 39 -22 60.5t-57 21.5z" />
    <glyph glyph-name="nine.onum" horiz-adv-x="617" 
d="M306 601q59 0 109 -18t87 -51.5t57.5 -80.5t20.5 -105q0 -49 -16 -87.5t-42 -78.5l-229 -338h-231l180 257q-46 9 -84 30.5t-65.5 53t-43 73t-15.5 90.5q0 58 20.5 105t57 80.5t86 51.5t108.5 18zM307 248q20 0 35.5 8.5t26.5 22.5q7 11 11 26t4 34q0 42 -20.5 66.5
t-56.5 24.5t-56.5 -24.5t-20.5 -66.5q0 -44 20.5 -67.5t56.5 -23.5z" />
    <glyph glyph-name="zero.slash" horiz-adv-x="656" 
d="M327 759q64 0 117.5 -25t92.5 -74t61 -121t22 -165t-22 -165t-61 -121t-92.5 -74t-117.5 -25q-63 0 -116.5 25t-92.5 74t-61 121t-22 165t22 165t61 121t92.5 74t116.5 25zM327 588q-53 0 -74 -54t-21 -160v-27t1 -25l128 259q-14 7 -34 7zM327 160q54 0 75 54t21 160
q0 13 -0.5 25.5t-0.5 23.5l-127 -257q13 -6 32 -6z" />
    <glyph glyph-name="zero.subs" horiz-adv-x="373" 
d="M187 338q36 0 66.5 -14t53 -41t35.5 -66.5t13 -90.5q0 -52 -13 -91.5t-35.5 -66.5t-53 -41t-66.5 -14t-66.5 14t-53.5 41t-36 66.5t-13 91.5q0 51 13 90.5t36 66.5t53.5 41t66.5 14zM187 214q-18 0 -22 -22t-4 -66q0 -45 4 -67t22 -22t22 22t4 67q0 44 -4 66t-22 22z" />
    <glyph glyph-name="one.subs" horiz-adv-x="241" 
d="M79 -80v229l-32 -17l-59 113l143 86h87v-411h-139z" />
    <glyph glyph-name="two.subs" horiz-adv-x="323" 
d="M156 338q38 0 66 -10.5t46 -29t27 -43.5t9 -55q0 -39 -17 -70.5t-40 -57.5l-23 -28h79v-124h-288v96l131 142q9 11 13.5 20.5t4.5 23.5q0 12 -5 12q-8 0 -8 -17l-136 8q1 63 39.5 98t101.5 35z" />
    <glyph glyph-name="three.subs" horiz-adv-x="333" 
d="M163 338q71 0 107 -34.5t36 -95.5q0 -28 -9 -45t-24 -31q15 -11 25 -32.5t10 -50.5q0 -66 -41 -101t-105 -35q-73 0 -110 36.5t-36 96.5l141 9q-3 -18 4 -18q8 0 8 17q0 20 -13 20h-46v108h44q6 0 11.5 4.5t5.5 12.5q0 15 -8 15q-3 0 -5 -3t-1 -12l-136 8q-1 62 35 96.5
t107 34.5z" />
    <glyph glyph-name="four.subs" horiz-adv-x="354" 
d="M339 89v-123h-33v-46h-139v46h-155v108l160 257h134v-242h33zM167 89v56l-35 -56h35z" />
    <glyph glyph-name="five.subs" horiz-adv-x="325" 
d="M179 195q27 0 51 -8t42 -24.5t28.5 -42t10.5 -61.5q0 -70 -41 -108t-110 -38t-106.5 34t-36.5 89l139 9q-2 -8 5 -8q10 0 10 18q0 16 -9 16q-3 0 -4.5 -1t-3.5 -2h-123v263h263v-124h-123v-12h8z" />
    <glyph glyph-name="six.subs" horiz-adv-x="357" 
d="M241 191q43 -16 69 -50.5t26 -82.5q0 -33 -12 -59.5t-33 -45.5t-49.5 -29.5t-62.5 -10.5t-63 10.5t-50 29.5t-33 45.5t-12 59.5q0 28 9 49.5t25 44.5l112 179h169zM178 37q17 0 17 26q0 25 -17 25q-5 0 -8 -3l-4 -6q-1 -2 -2 -6t-1 -10q0 -26 15 -26z" />
    <glyph glyph-name="seven.subs" horiz-adv-x="316" 
d="M178 -80h-154l110 287h-120v124h279v-109z" />
    <glyph glyph-name="eight.subs" horiz-adv-x="359" 
d="M178 338q64 0 106.5 -33t42.5 -93q0 -17 -4.5 -34.5t-18.5 -35.5q19 -20 27 -42.5t8 -47.5q0 -33 -12 -58.5t-33.5 -43.5t-51 -27.5t-63.5 -9.5t-63 9.5t-50.5 27.5t-33.5 43.5t-12 58.5q0 25 8 47t26 42q-13 18 -18 36t-5 35q0 30 11.5 53t31 39.5t46.5 25t58 8.5z
M179 214q-6 0 -11.5 -5.5t-5.5 -16.5q0 -10 5.5 -16t11.5 -6q17 0 17 22t-17 22zM179 86q-8 0 -14 -6.5t-6 -18.5q0 -11 6 -17.5t14 -6.5q20 0 20 24q0 25 -20 25z" />
    <glyph glyph-name="nine.subs" horiz-adv-x="357" 
d="M177 338q34 0 63 -10.5t50.5 -29.5t33.5 -45.5t12 -59.5q0 -28 -9 -49.5t-25 -44.5l-112 -179h-169l95 140q-43 15 -69 50t-26 83q0 33 12 59.5t33 45.5t49.5 29.5t61.5 10.5zM178 163q6 0 9 3l4 6q1 2 2 6t1 10q0 26 -16 26t-16 -26q0 -25 16 -25z" />
    <glyph glyph-name="zero.sups" horiz-adv-x="373" 
d="M187 820q36 0 66.5 -14t53 -41t35.5 -66.5t13 -90.5q0 -52 -13 -91.5t-35.5 -66.5t-53 -41t-66.5 -14t-66.5 14t-53.5 41t-36 66.5t-13 91.5q0 51 13 90.5t36 66.5t53.5 41t66.5 14zM187 696q-18 0 -22 -22t-4 -66q0 -45 4 -67t22 -22t22 22t4 67q0 44 -4 66t-22 22z" />
    <glyph glyph-name="one.sups" horiz-adv-x="241" 
d="M79 402v229l-32 -17l-59 113l143 86h87v-411h-139z" />
    <glyph glyph-name="two.sups" horiz-adv-x="323" 
d="M156 820q38 0 66 -10.5t46 -29t27 -43.5t9 -55q0 -39 -17 -70.5t-40 -57.5l-23 -28h79v-124h-288v96l131 142q9 11 13.5 20.5t4.5 23.5q0 12 -5 12q-8 0 -8 -17l-136 8q1 63 39.5 98t101.5 35z" />
    <glyph glyph-name="three.sups" horiz-adv-x="333" 
d="M163 820q71 0 107 -34.5t36 -95.5q0 -28 -9 -45t-24 -31q15 -11 25 -32.5t10 -50.5q0 -66 -41 -101t-105 -35q-73 0 -110 36.5t-36 96.5l141 9q-3 -18 4 -18q8 0 8 17q0 20 -13 20h-46v108h44q6 0 11.5 4.5t5.5 12.5q0 15 -8 15q-3 0 -5 -3t-1 -12l-136 8q-1 62 35 96.5
t107 34.5z" />
    <glyph glyph-name="four.sups" horiz-adv-x="354" 
d="M339 571v-123h-33v-46h-139v46h-155v108l160 257h134v-242h33zM167 571v56l-35 -56h35z" />
    <glyph glyph-name="five.sups" horiz-adv-x="325" 
d="M179 677q27 0 51 -8t42 -24.5t28.5 -42t10.5 -61.5q0 -70 -41 -108t-110 -38t-106.5 34t-36.5 89l139 9q-2 -8 5 -8q10 0 10 18q0 16 -9 16q-3 0 -4.5 -1t-3.5 -2h-123v263h263v-124h-123v-12h8z" />
    <glyph glyph-name="six.sups" horiz-adv-x="357" 
d="M241 673q43 -16 69 -50.5t26 -82.5q0 -33 -12 -59.5t-33 -45.5t-49.5 -29.5t-62.5 -10.5t-63 10.5t-50 29.5t-33 45.5t-12 59.5q0 28 9 49.5t25 44.5l112 179h169zM178 519q17 0 17 26q0 25 -17 25q-5 0 -8 -3l-4 -6q-1 -2 -2 -6t-1 -10q0 -26 15 -26z" />
    <glyph glyph-name="seven.sups" horiz-adv-x="316" 
d="M178 402h-154l110 287h-120v124h279v-109z" />
    <glyph glyph-name="eight.sups" horiz-adv-x="359" 
d="M178 820q64 0 106.5 -33t42.5 -93q0 -17 -4.5 -34.5t-18.5 -35.5q19 -20 27 -42.5t8 -47.5q0 -33 -12 -58.5t-33.5 -43.5t-51 -27.5t-63.5 -9.5t-63 9.5t-50.5 27.5t-33.5 43.5t-12 58.5q0 25 8 47t26 42q-13 18 -18 36t-5 35q0 30 11.5 53t31 39.5t46.5 25t58 8.5z
M179 696q-6 0 -11.5 -5.5t-5.5 -16.5q0 -10 5.5 -16t11.5 -6q17 0 17 22t-17 22zM179 568q-8 0 -14 -6.5t-6 -18.5q0 -11 6 -17.5t14 -6.5q20 0 20 24q0 25 -20 25z" />
    <glyph glyph-name="nine.sups" horiz-adv-x="357" 
d="M177 820q34 0 63 -10.5t50.5 -29.5t33.5 -45.5t12 -59.5q0 -28 -9 -49.5t-25 -44.5l-112 -179h-169l95 140q-43 15 -69 50t-26 83q0 33 12 59.5t33 45.5t49.5 29.5t61.5 10.5zM178 645q6 0 9 3l4 6q1 2 2 6t1 10q0 26 -16 26t-16 -26q0 -25 16 -25z" />
    <glyph glyph-name="zero.tnum" horiz-adv-x="650" 
d="M324 759q63 0 117 -25t93 -74t61 -121t22 -165t-22 -165t-61 -121t-93 -74t-117 -25q-64 0 -117.5 25t-92.5 74t-61 121t-22 165t22 165t61 121t92.5 74t117.5 25zM324 588q-54 0 -75 -54t-21 -160t21 -160t75 -54t75 54t21 160t-21 160t-75 54z" />
    <glyph glyph-name="one.tnum" horiz-adv-x="650" 
d="M569 171v-171h-439v171h132v342l-74 -48l-80 153l205 130h142v-577h114z" />
    <glyph glyph-name="two.tnum" horiz-adv-x="650" 
d="M331 759q112 0 175.5 -53.5t63.5 -160.5q0 -46 -11 -83.5t-29 -69t-41 -58t-46 -51.5l-106 -112h235v-171h-476v146l197 223q24 27 40 48t25.5 40t13.5 37.5t4 41.5q0 27 -11 39.5t-30 12.5q-28 0 -36.5 -20t-9.5 -56l-193 10q2 112 63 174.5t172 62.5z" />
    <glyph glyph-name="three.tnum" horiz-adv-x="650" 
d="M326 759q58 0 103.5 -16t76 -46t46.5 -72t16 -94q0 -29 -5 -50.5t-13.5 -38.5t-20 -30.5t-24.5 -25.5q29 -18 51 -58.5t22 -99.5q0 -57 -18.5 -101.5t-52 -75t-80 -46.5t-101.5 -16q-124 0 -188.5 63t-65.5 170l192 11q1 -34 15.5 -53.5t45.5 -19.5q59 0 59 74
q0 35 -19.5 52.5t-49.5 17.5h-80v161h78q27 0 44.5 16.5t17.5 47.5q0 59 -50 59t-52 -68l-193 11q2 107 64.5 167.5t181.5 60.5z" />
    <glyph glyph-name="four.tnum" horiz-adv-x="650" 
d="M597 274v-171h-103v-103h-164v103h-291v159l308 486h147v-474h103zM330 274v167l-106 -167h106z" />
    <glyph glyph-name="five.tnum" horiz-adv-x="650" 
d="M345 485q49 0 92 -15t74.5 -45t49.5 -75.5t18 -106.5q0 -59 -18.5 -106t-52 -80t-81.5 -50.5t-108 -17.5q-59 0 -105 15.5t-78 44.5t-49 69t-17 90l192 12q1 -27 15 -43.5t43 -16.5q32 0 48.5 21t16.5 57q0 75 -60 75q-31 0 -52 -15h-179v450h455v-171h-262v-100
q26 8 58 8z" />
    <glyph glyph-name="six.tnum" horiz-adv-x="650" 
d="M390 491q46 -9 84 -30.5t65.5 -53t43 -73t15.5 -90.5q0 -58 -20.5 -105t-57 -80.5t-86.5 -51.5t-108 -18q-59 0 -109 18t-86.5 51.5t-57 80.5t-20.5 105q0 49 15.5 87.5t41.5 78.5l229 338h231zM325 160q36 0 56.5 24.5t20.5 66.5q0 44 -20.5 67.5t-56.5 23.5
q-20 0 -35.5 -8.5t-26.5 -22.5q-7 -11 -11 -26t-4 -34q0 -42 21 -66.5t56 -24.5z" />
    <glyph glyph-name="seven.tnum" horiz-adv-x="650" 
d="M297 0h-212l257 577h-281v171h492v-155z" />
    <glyph glyph-name="eight.tnum" horiz-adv-x="650" 
d="M324 759q54 0 100.5 -14.5t80 -42.5t53 -68.5t19.5 -91.5q0 -42 -13 -77t-36 -62q32 -32 50.5 -75.5t18.5 -97.5q0 -57 -20.5 -101.5t-57 -75.5t-86.5 -47.5t-108 -16.5t-108 16.5t-86.5 47.5t-57 75.5t-20.5 101.5q0 54 18 97t50 75q-23 27 -36 62.5t-13 77.5
q0 51 19 91.5t53 68.5t80 42.5t100 14.5zM325 588q-25 0 -42 -16t-17 -45q0 -28 17 -44.5t42 -16.5q26 0 42.5 16.5t16.5 44.5q0 29 -16.5 45t-42.5 16zM325 322q-34 0 -56.5 -21.5t-22.5 -60.5q0 -38 22.5 -59t56.5 -21q35 0 57.5 21t22.5 59q0 39 -22.5 60.5t-57.5 21.5z
" />
    <glyph glyph-name="nine.tnum" horiz-adv-x="650" 
d="M324 759q59 0 109 -18t86.5 -51.5t57 -80.5t20.5 -105q0 -49 -15.5 -87.5t-41.5 -78.5l-229 -338h-231l180 257q-46 9 -84 30.5t-65.5 53t-43 73t-15.5 90.5q0 58 20.5 105t57 80.5t86 51.5t108.5 18zM325 406q20 0 35.5 8.5t26.5 22.5q7 11 11 26t4 34q0 42 -21 66.5
t-56 24.5q-36 0 -56.5 -24.5t-20.5 -66.5q0 -44 20.5 -67.5t56.5 -23.5z" />
    <glyph glyph-name="zero.dnom" horiz-adv-x="373" 
d="M187 418q36 0 66.5 -14t53 -41t35.5 -66.5t13 -90.5q0 -52 -13 -91.5t-35.5 -66.5t-53 -41t-66.5 -14t-66.5 14t-53.5 41t-36 66.5t-13 91.5q0 51 13 90.5t36 66.5t53.5 41t66.5 14zM187 294q-18 0 -22 -22t-4 -66q0 -45 4 -67t22 -22t22 22t4 67q0 44 -4 66t-22 22z" />
    <glyph glyph-name="one.dnom" horiz-adv-x="241" 
d="M79 0v229l-32 -17l-59 113l143 86h87v-411h-139z" />
    <glyph glyph-name="two.dnom" horiz-adv-x="323" 
d="M156 418q38 0 66 -10.5t46 -29t27 -43.5t9 -55q0 -39 -17 -70.5t-40 -57.5l-23 -28h79v-124h-288v96l131 142q9 11 13.5 20.5t4.5 23.5q0 12 -5 12q-8 0 -8 -17l-136 8q1 63 39.5 98t101.5 35z" />
    <glyph glyph-name="three.dnom" horiz-adv-x="333" 
d="M163 418q71 0 107 -34.5t36 -95.5q0 -28 -9 -45t-24 -31q15 -11 25 -32.5t10 -50.5q0 -66 -41 -101t-105 -35q-73 0 -110 36.5t-36 96.5l141 9q-3 -18 4 -18q8 0 8 17q0 20 -13 20h-46v108h44q6 0 11.5 4.5t5.5 12.5q0 15 -8 15q-3 0 -5 -3t-1 -12l-136 8q-1 62 35 96.5
t107 34.5z" />
    <glyph glyph-name="four.dnom" horiz-adv-x="354" 
d="M339 169v-123h-33v-46h-139v46h-155v108l160 257h134v-242h33zM167 169v56l-35 -56h35z" />
    <glyph glyph-name="five.dnom" horiz-adv-x="325" 
d="M179 275q27 0 51 -8t42 -24.5t28.5 -42t10.5 -61.5q0 -70 -41 -108t-110 -38t-106.5 34t-36.5 89l139 9q-2 -8 5 -8q10 0 10 18q0 16 -9 16q-3 0 -4.5 -1t-3.5 -2h-123v263h263v-124h-123v-12h8z" />
    <glyph glyph-name="six.dnom" horiz-adv-x="357" 
d="M241 271q43 -16 69 -50.5t26 -82.5q0 -33 -12 -59.5t-33 -45.5t-49.5 -29.5t-62.5 -10.5t-63 10.5t-50 29.5t-33 45.5t-12 59.5q0 28 9 49.5t25 44.5l112 179h169zM178 117q17 0 17 26q0 25 -17 25q-5 0 -8 -3l-4 -6q-1 -2 -2 -6t-1 -10q0 -26 15 -26z" />
    <glyph glyph-name="seven.dnom" horiz-adv-x="316" 
d="M178 0h-154l110 287h-120v124h279v-109z" />
    <glyph glyph-name="eight.dnom" horiz-adv-x="359" 
d="M178 418q64 0 106.5 -33t42.5 -93q0 -17 -4.5 -34.5t-18.5 -35.5q19 -20 27 -42.5t8 -47.5q0 -33 -12 -58.5t-33.5 -43.5t-51 -27.5t-63.5 -9.5t-63 9.5t-50.5 27.5t-33.5 43.5t-12 58.5q0 25 8 47t26 42q-13 18 -18 36t-5 35q0 30 11.5 53t31 39.5t46.5 25t58 8.5z
M179 294q-6 0 -11.5 -5.5t-5.5 -16.5q0 -10 5.5 -16t11.5 -6q17 0 17 22t-17 22zM179 166q-8 0 -14 -6.5t-6 -18.5q0 -11 6 -17.5t14 -6.5q20 0 20 24q0 25 -20 25z" />
    <glyph glyph-name="nine.dnom" horiz-adv-x="357" 
d="M177 418q34 0 63 -10.5t50.5 -29.5t33.5 -45.5t12 -59.5q0 -28 -9 -49.5t-25 -44.5l-112 -179h-169l95 140q-43 15 -69 50t-26 83q0 33 12 59.5t33 45.5t49.5 29.5t61.5 10.5zM178 243q6 0 9 3l4 6q1 2 2 6t1 10q0 26 -16 26t-16 -26q0 -25 16 -25z" />
    <glyph glyph-name="zero.numr" horiz-adv-x="373" 
d="M187 739q36 0 66.5 -14t53 -41t35.5 -66.5t13 -90.5q0 -52 -13 -91.5t-35.5 -66.5t-53 -41t-66.5 -14t-66.5 14t-53.5 41t-36 66.5t-13 91.5q0 51 13 90.5t36 66.5t53.5 41t66.5 14zM187 615q-18 0 -22 -22t-4 -66q0 -45 4 -67t22 -22t22 22t4 67q0 44 -4 66t-22 22z" />
    <glyph glyph-name="one.numr" horiz-adv-x="241" 
d="M79 322v229l-32 -17l-59 113l143 86h87v-411h-139z" />
    <glyph glyph-name="two.numr" horiz-adv-x="323" 
d="M156 739q38 0 66 -10.5t46 -29t27 -43.5t9 -55q0 -39 -17 -70.5t-40 -57.5l-23 -28h79v-124h-288v96l131 142q9 11 13.5 20.5t4.5 23.5q0 12 -5 12q-8 0 -8 -17l-136 8q1 63 39.5 98t101.5 35z" />
    <glyph glyph-name="three.numr" horiz-adv-x="333" 
d="M163 739q71 0 107 -34.5t36 -95.5q0 -28 -9 -45t-24 -31q15 -11 25 -32.5t10 -50.5q0 -66 -41 -101t-105 -35q-73 0 -110 36.5t-36 96.5l141 9q-3 -18 4 -18q8 0 8 17q0 20 -13 20h-46v108h44q6 0 11.5 4.5t5.5 12.5q0 15 -8 15q-3 0 -5 -3t-1 -12l-136 8q-1 62 35 96.5
t107 34.5z" />
    <glyph glyph-name="four.numr" horiz-adv-x="354" 
d="M339 490v-123h-33v-46h-139v46h-155v108l160 257h134v-242h33zM167 490v56l-35 -56h35z" />
    <glyph glyph-name="five.numr" horiz-adv-x="325" 
d="M179 597q27 0 51 -8t42 -24.5t28.5 -42t10.5 -61.5q0 -70 -41 -108t-110 -38t-106.5 34t-36.5 89l139 9q-2 -8 5 -8q10 0 10 18q0 16 -9 16q-3 0 -4.5 -1t-3.5 -2h-123v263h263v-124h-123v-12h8z" />
    <glyph glyph-name="six.numr" horiz-adv-x="357" 
d="M241 592q43 -16 69 -50.5t26 -82.5q0 -33 -12 -59.5t-33 -45.5t-49.5 -29.5t-62.5 -10.5t-63 10.5t-50 29.5t-33 45.5t-12 59.5q0 28 9 49.5t25 44.5l112 179h169zM178 438q17 0 17 26q0 25 -17 25q-5 0 -8 -3l-4 -6q-1 -2 -2 -6t-1 -10q0 -26 15 -26z" />
    <glyph glyph-name="seven.numr" horiz-adv-x="316" 
d="M178 322h-154l110 287h-120v124h279v-109z" />
    <glyph glyph-name="eight.numr" horiz-adv-x="359" 
d="M178 739q64 0 106.5 -33t42.5 -93q0 -17 -4.5 -34.5t-18.5 -35.5q19 -20 27 -42.5t8 -47.5q0 -33 -12 -58.5t-33.5 -43.5t-51 -27.5t-63.5 -9.5t-63 9.5t-50.5 27.5t-33.5 43.5t-12 58.5q0 25 8 47t26 42q-13 18 -18 36t-5 35q0 30 11.5 53t31 39.5t46.5 25t58 8.5z
M179 615q-6 0 -11.5 -5.5t-5.5 -16.5q0 -10 5.5 -16t11.5 -6q17 0 17 22t-17 22zM179 487q-8 0 -14 -6.5t-6 -18.5q0 -11 6 -17.5t14 -6.5q20 0 20 24q0 25 -20 25z" />
    <glyph glyph-name="nine.numr" horiz-adv-x="357" 
d="M177 739q34 0 63 -10.5t50.5 -29.5t33.5 -45.5t12 -59.5q0 -28 -9 -49.5t-25 -44.5l-112 -179h-169l95 140q-43 15 -69 50t-26 83q0 33 12 59.5t33 45.5t49.5 29.5t61.5 10.5zM178 564q6 0 9 3l4 6q1 2 2 6t1 10q0 26 -16 26t-16 -26q0 -25 16 -25z" />
    <glyph glyph-name="periodcentered.cap" horiz-adv-x="301" 
d="M140 564q22 0 41.5 -8.5t33.5 -23t22.5 -33.5t8.5 -41q0 -23 -8.5 -42t-22.5 -33.5t-33.5 -22.5t-41.5 -8t-41.5 8t-33.5 22.5t-22.5 33.5t-8.5 42q0 22 8.5 41t22.5 33.5t33.5 23t41.5 8.5z" />
    <glyph glyph-name="exclamdown.cap" horiz-adv-x="350" 
d="M176 547q-22 0 -41.5 8.5t-34 23t-23 34t-8.5 41.5t8.5 41t23 33.5t34 22.5t41.5 8q45 0 75 -30t30 -75q0 -22 -8 -41.5t-22.5 -34t-33.5 -23t-41 -8.5zM271 504l11 -504h-214l11 504h192z" />
    <glyph glyph-name="questiondown.cap" horiz-adv-x="555" 
d="M274 547q-22 0 -41.5 8.5t-33.5 23t-22.5 34t-8.5 41.5q0 45 30.5 75t75.5 30t75.5 -30t30.5 -75q0 -22 -8.5 -41.5t-22.5 -34t-33.5 -23t-41.5 -8.5zM277 -13q-60 0 -108.5 16t-82.5 46t-52.5 73.5t-18.5 98.5q0 30 8.5 54t22 43t30 34t33.5 29q13 11 25.5 21t22 20.5
t15.5 22t6 25.5v34h192v-41q0 -23 -8.5 -43t-22.5 -37.5t-31 -33t-33 -30.5q-25 -24 -44.5 -46.5t-19.5 -48.5q0 -34 18.5 -50t47.5 -16q31 0 50.5 21t20.5 60l192 -11q-1 -55 -20.5 -99.5t-54.5 -76t-83 -48.5t-105 -17z" />
    <glyph glyph-name="braceleft.cap" horiz-adv-x="334" 
d="M309 619q-21 0 -34.5 -4.5t-20 -17t-7.5 -34t3 -54.5q4 -27 3.5 -51t-9 -42t-26 -29.5t-47.5 -13.5q30 -2 47.5 -13.5t26 -30t9 -42.5t-3.5 -51q-4 -33 -3 -54.5t7.5 -34t20 -17t34.5 -4.5h6v-151h-6q-59 0 -108.5 14.5t-82.5 44.5t-46.5 75.5t-0.5 108.5q6 25 8 40.5
t-2.5 24.5t-17 12t-36.5 3h-8v149h8q24 0 36.5 3t17 12t2.5 24.5t-8 40.5q-13 63 0.5 108.5t46.5 75.5t82.5 44.5t108.5 14.5h6v-151h-6z" />
    <glyph glyph-name="braceright.cap" horiz-adv-x="334" 
d="M26 770q59 0 108.5 -14.5t82.5 -44.5t46 -75.5t0 -108.5q-6 -25 -8 -40.5t2.5 -24.5t17.5 -12t37 -3h8v-149h-8q-24 0 -37 -3t-17.5 -12t-2.5 -24.5t8 -40.5q13 -63 0 -108.5t-46 -75.5t-82.5 -44.5t-108.5 -14.5h-6v151h6q21 0 34 4.5t19.5 17t7.5 34t-3 54.5
q-3 27 -2.5 51t8.5 42.5t26 30t48 13.5q-30 2 -48 13.5t-26 29.5t-8.5 42t2.5 51q4 33 3 54.5t-7.5 34t-19.5 17t-34 4.5h-6v151h6z" />
    <glyph glyph-name="bracketleft.cap" horiz-adv-x="333" 
d="M232 619v-493h81v-151h-264v795h264v-151h-81z" />
    <glyph glyph-name="bracketright.cap" horiz-adv-x="348" 
d="M20 -25v151h81v493h-81v151h264v-795h-264z" />
    <glyph glyph-name="parenleft.cap" horiz-adv-x="324" 
d="M310 727q-40 -75 -66.5 -163.5t-26.5 -201.5t26.5 -202t66.5 -163l-158 -55q-51 78 -84 182.5t-33 237.5q0 132 33.5 237t83.5 183z" />
    <glyph glyph-name="parenright.cap" horiz-adv-x="318" 
d="M172 782q50 -78 84 -183t34 -237q0 -133 -33.5 -237.5t-84.5 -182.5l-157 55q39 74 65.5 163t26.5 202t-26.5 201.5t-65.5 163.5z" />
    <glyph glyph-name="emdash.cap" horiz-adv-x="800" 
d="M45 292v171h710v-171h-710z" />
    <glyph glyph-name="endash.cap" horiz-adv-x="568" 
d="M45 292v171h478v-171h-478z" />
    <glyph glyph-name="hyphen.cap" horiz-adv-x="408" 
d="M45 292v171h318v-171h-318z" />
    <glyph glyph-name="guillemotleft.cap" horiz-adv-x="612" 
d="M217 389l97 -155l-146 -89l-153 244l153 245l146 -89zM501 389l97 -155l-146 -89l-153 244l153 245l146 -89z" />
    <glyph glyph-name="guillemotright.cap" horiz-adv-x="612" 
d="M160 145l-145 89l97 155l-97 156l145 89l154 -245zM444 145l-146 89l97 155l-97 156l146 89l153 -245z" />
    <glyph glyph-name="guilsinglleft.cap" horiz-adv-x="357" 
d="M234 389l108 -126l-130 -114l-197 240l197 241l130 -114z" />
    <glyph glyph-name="guilsinglright.cap" horiz-adv-x="357" 
d="M145 149l-130 114l108 126l-108 127l130 114l197 -241z" />
    <glyph glyph-name="emdash_guilsinglright" horiz-adv-x="905" 
d="M627 -19l-128 114l82 92h-536v150h532l-78 88l128 115l243 -280z" />
    <glyph glyph-name="endash_guilsinglright" horiz-adv-x="630" 
d="M352 -19l-128 114l82 92h-261v150h257l-78 88l128 115l243 -280z" />
    <glyph glyph-name="guilsinglleft_emdash" horiz-adv-x="905" 
d="M328 337h532v-150h-536l82 -92l-128 -114l-243 279l243 280l128 -115z" />
    <glyph glyph-name="guilsinglleft_endash" horiz-adv-x="630" 
d="M328 337h257v-150h-261l82 -92l-128 -114l-243 279l243 280l128 -115z" />
    <glyph glyph-name="at.cap" horiz-adv-x="793" 
d="M599 270q0 -29 29 -29q23 0 40.5 31t17.5 102q0 62 -22 115t-60.5 92t-91.5 61t-116 22t-116 -22t-91.5 -61t-60 -92t-21.5 -115q0 -67 23.5 -120.5t62.5 -91t90 -57.5t105 -20q58 0 99.5 10.5t76.5 29.5l28 -65q-41 -23 -88 -33t-116 -10q-72 0 -136.5 25.5t-113 72.5
t-76.5 113t-28 146q0 77 27 143t75 114t114.5 75t145.5 27t145.5 -27t115 -75t75.5 -114t27 -143q0 -109 -45 -161t-123 -52t-109 48q-22 -24 -50 -37t-68 -13q-43 0 -78.5 15.5t-61 43.5t-39.5 67.5t-14 86.5q0 48 14 87t39.5 67t61 43.5t78.5 15.5q37 0 63 -11t41 -25v20
h131v-299zM461 379q0 38 -20 60.5t-54 22.5t-54 -23t-20 -67q0 -43 20 -67t54 -24t54 23t20 61v14z" />
    <glyph glyph-name="acute.case" horiz-adv-x="371" 
d="M4 797l115 162h248l-199 -162h-164z" />
    <glyph glyph-name="breve.case" horiz-adv-x="415" 
d="M411 978q0 -47 -15.5 -82t-42.5 -58t-64.5 -34t-81.5 -11t-81.5 11t-64.5 34t-42 58t-15 82h148q0 -29 15 -44.5t40 -15.5q26 0 41 15.5t15 44.5h148z" />
    <glyph glyph-name="caron.case" horiz-adv-x="414" 
d="M119 797l-115 170h152l51 -66l52 66h151l-114 -170h-177z" />
    <glyph glyph-name="circumflex.case" horiz-adv-x="414" 
d="M259 797l-52 66l-51 -66h-152l115 170h177l114 -170h-151z" />
    <glyph glyph-name="dieresis.case" horiz-adv-x="418" 
d="M99 982q41 0 68.5 -28t27.5 -68q0 -41 -27.5 -68t-68.5 -27q-40 0 -67.5 27t-27.5 68q0 40 27.5 68t67.5 28zM318 982q41 0 69 -28t28 -68q0 -41 -28 -68t-69 -27q-40 0 -67.5 27t-27.5 68q0 40 27.5 68t67.5 28z" />
    <glyph glyph-name="dotaccent.case" horiz-adv-x="220" 
d="M109 1005q22 0 42 -8.5t34 -23t22.5 -34t8.5 -41.5t-8.5 -41t-22.5 -33.5t-34 -22.5t-42 -8q-45 0 -75 30t-30 75q0 22 8.5 41.5t22.5 34t33.5 23t40.5 8.5z" />
    <glyph glyph-name="grave.case" horiz-adv-x="371" 
d="M203 797l-199 162h248l115 -162h-164z" />
    <glyph glyph-name="hungarumlaut.case" horiz-adv-x="464" 
d="M4 800l62 182h172l-92 -182h-142zM226 800l62 182h172l-92 -182h-142z" />
    <glyph glyph-name="macron.case" horiz-adv-x="331" 
d="M4 805v139h323v-139h-323z" />
    <glyph glyph-name="ring.case" horiz-adv-x="250" 
d="M126 1021q25 0 47 -8t38.5 -23t26 -36t9.5 -46t-9.5 -45.5t-26 -35.5t-38.5 -23.5t-47 -8.5q-52 0 -87 31.5t-35 81.5q0 51 35 82t87 31zM126 943q-17 0 -26 -10t-9 -25q0 -14 9 -24t26 -10q16 0 25 10t9 24q0 15 -9 25t-25 10z" />
    <glyph glyph-name="tilde.case" horiz-adv-x="398" 
d="M123 976q24 0 42 -7.5t32.5 -17t28 -17t28.5 -7.5q20 0 28.5 11t8.5 31h102q3 -35 -3.5 -67t-22 -57t-39 -40t-53.5 -15q-25 0 -43 8t-33 17t-28 17t-27 8q-21 0 -29 -11.5t-8 -31.5h-102q-3 35 3.5 67.5t21.5 57t38.5 39.5t54.5 15z" />
    <glyph glyph-name="anneau" horiz-adv-x="603" 
d="M302 762q60 0 110.5 -19.5t87 -54t57.5 -81.5t21 -102q0 -56 -21 -103.5t-57.5 -82t-87 -54t-110.5 -19.5q-61 0 -112 19.5t-87.5 54t-57 82t-20.5 103.5q0 55 20.5 102t57 81.5t87.5 54t112 19.5zM302 701q-47 0 -85 -14.5t-65 -40t-42 -62t-15 -79.5q0 -44 15 -80
t42 -62t65 -40.5t85 -14.5q46 0 84 14.5t65 40.5t42 62t15 80q0 43 -15 79.5t-42 62t-65 40t-84 14.5z" />
    <glyph glyph-name="_496" horiz-adv-x="600" 
 />
    </font>
</defs>
</svg>
